<?xml version="1.0" encoding="UTF-8"?>
<svg id="Capa_19" data-name="Capa 19" xmlns="http://www.w3.org/2000/svg" viewBox="0 0 550 250">
  <defs>
    <style>
      .cls-1 {
        fill: #fff;
      }
    </style>
  </defs>
  <g id="_231f20ff" data-name="#231f20ff">
    <path id="path6" class="cls-1" d="M198.6,78.32c2.54-.05,5.08-.28,7.61-.1,5.39,.11,10.82,.76,15.99,2.34,5.54,1.69,10.81,4.68,14.51,9.2,3.85,4.64,5.76,10.61,6.26,16.55,.23,2,.17,4.01,.18,6.01v58.65c-7.44,0-14.88,0-22.32,0,0-2.64,0-5.29,0-7.93-2.67,2.7-5.72,5.1-9.25,6.57-3.23,1.38-6.74,1.96-10.23,2.17-3.69,.13-7.41,.1-11.05-.53-4.88-.78-9.68-2.6-13.53-5.77-4.45-3.57-7.28-8.85-8.58-14.35-1.14-5-1.28-10.29,0-15.27,1.34-5.3,4.54-10.12,8.98-13.32,5.72-4.18,12.92-5.77,19.89-5.97,7.75,0,15.49,0,23.24,0-.04-3.17,.2-6.39-.52-9.5-.53-2.39-1.75-4.68-3.68-6.22-1.56-1.26-3.45-2.04-5.38-2.52-3.19-.78-6.5-.83-9.77-.72-3.62,.15-7.34,.9-10.37,2.97-1.88,1.25-3.49,2.85-4.97,4.55-4.9-4.73-9.75-9.51-14.63-14.27,3.83-4.28,8.5-7.94,13.92-9.95,4.37-1.67,9.06-2.32,13.71-2.6m.96,54.06c-2.68,.29-5.4,1.15-7.41,3.02-2.03,1.87-2.95,4.71-2.85,7.43-.02,2.86,1.12,5.83,3.43,7.61,2.68,2.13,6.23,2.7,9.56,2.76,3.08-.03,6.23-.06,9.18-1.04,2.16-.7,4.08-2.02,5.69-3.61,1.26-1.28,2.04-2.96,2.45-4.69,.92-3.81,.63-7.77,.68-11.65-5.48,0-10.96,0-16.44,0-1.43-.01-2.87,.03-4.29,.17h0Z"/>
    <path id="path8" class="cls-1" d="M344.36,87.56c5.93-6.24,14.62-9.6,23.19-9.4,5.03-.05,10.11,.99,14.64,3.23,5.82,2.9,10.39,8.04,13.05,13.93,1.95,4.37,2.75,9.17,2.96,13.92,.13,4.66,.07,9.32,.08,13.98,0,15.94,0,31.88,0,47.82-7.66,0-15.32,0-22.97,0,0-18.14,0-36.29,0-54.43,.04-2.76-.19-5.57-1.09-8.2-.82-2.47-2.3-4.75-4.33-6.39-2.15-1.76-4.85-2.77-7.59-3.09-3.03-.36-6.17,.04-8.97,1.29-2.61,1.16-4.84,3.17-6.22,5.67-1.75,3.06-2.25,6.66-2.24,10.14,0,18.34,0,36.67,0,55.01-7.65,0-15.3,0-22.94,0,0-30.62,0-61.25,0-91.87,7.47,0,14.94,0,22.4,0,.02,2.8,0,5.6,0,8.4h0Z"/>
    <path id="path10" class="cls-1" d="M249.18,171.02c0-30.59,0-61.18,0-91.76,11.63,0,23.25,0,34.88,0,7.04,.09,14.23,1.78,20.08,5.82,2.95,2.05,5.47,4.67,7.55,7.6,2.52,3.56,4.14,7.71,4.93,11.99,1.28,6.95,.81,14.04,.87,21.06-.02,6.55,.33,13.16-.83,19.63-.77,4.37-2.42,8.61-4.99,12.24-2,2.8-4.4,5.34-7.21,7.34-6.06,4.33-13.63,6.01-20.98,6.07-11.43,.03-22.86,0-34.29,.01m22.56-71.66c0,17.17,0,34.33,0,51.5,2.36,0,4.71,0,7.07,0,2.75,0,5.58,.17,8.21-.8,3.06-1.03,5.45-3.6,6.64-6.56,.98-2.9,.96-6,1.16-9.03,.11-3.43,.09-6.87,.12-10.3-.08-3.23,.03-6.47-.2-9.7-.07-2.09-.23-4.19-.65-6.24-.49-2.52-2.04-4.76-4-6.38-2.38-1.93-5.55-2.54-8.55-2.5-3.26,0-6.52,0-9.79,0h0Z"/>
  </g>
  <g id="_005e96ff" data-name="#005e96ff">
    <path id="path13" class="cls-1" d="M156.31,79.36c1.4-.27,2.91-.09,4.14,.66,1.79,1.03,2.97,3.06,2.9,5.14,0,2.16-1.35,4.23-3.29,5.15-1.6,.77-3.57,.75-5.16-.06-1.71-.85-2.96-2.6-3.14-4.51-.05-.83-.05-1.69,.24-2.49,.61-1.94,2.33-3.46,4.31-3.89Z"/>
  </g>
  <g id="_ea851cff" data-name="#ea851cff">
    <path id="path16" class="cls-1" d="M156.31,93.15c2.74-.64,5.75,1.02,6.68,3.67,1.05,2.66-.23,5.96-2.8,7.2-1.81,.93-4.12,.84-5.82-.29-2.26-1.39-3.23-4.41-2.32-6.88,.66-1.86,2.33-3.32,4.26-3.71Z"/>
  </g>
  <g id="_8bb837ff" data-name="#8bb837ff">
    <path id="path19" class="cls-1" d="M156.31,106.94c2.51-.57,5.29,.74,6.41,3.06,1.07,2.04,.75,4.71-.77,6.44-1.45,1.73-3.94,2.42-6.1,1.78-2.31-.65-4.1-2.89-4.12-5.3-.23-2.77,1.86-5.46,4.58-5.98h0Z"/>
  </g>
  <g id="_d7181eff" data-name="#d7181eff">
    <path id="path22" class="cls-1" d="M155.97,120.83c2.62-.78,5.66,.59,6.8,3.08,1.27,2.49,.39,5.81-1.95,7.34-1.63,1.14-3.86,1.32-5.67,.51-1.79-.78-3.12-2.53-3.38-4.46-.06-.9-.09-1.85,.24-2.71,.58-1.81,2.12-3.26,3.96-3.75h0Z"/>
  </g>
</svg>