<?xml version="1.0" encoding="UTF-8"?>
<svg id="Capa_22" data-name="Capa 22" xmlns="http://www.w3.org/2000/svg" viewBox="0 0 550 250">
  <defs>
    <style>
      .cls-1 {
        fill: #fff;
      }
    </style>
  </defs>
  <path class="cls-1" d="M314.02,76.73c1.09,0,2.18,0,3.27,0,.12,.02,.25,.05,.37,.06,1.2,.1,2.4,.16,3.6,.31,3.65,.47,7.19,1.4,10.65,2.67,3.32,1.21,6.5,2.74,9.67,4.29,.35,.17,.57,.13,.85-.1,2.08-1.7,4.16-3.39,6.26-5.08,.14-.11,.34-.2,.52-.2,1.75-.01,3.5,0,5.25,0,.1,0,.2,.01,.32,.02v28.03c-.06,.01-.09,.02-.13,.02-1.81,0-3.61,0-5.42,0-.12,0-.27-.11-.34-.22-.74-1.09-1.46-2.2-2.2-3.29-2.2-3.26-4.44-6.47-7.14-9.35-2.49-2.65-5.33-4.8-8.69-6.22-3.02-1.28-6.2-1.94-9.45-2.23-3.99-.35-7.98-.38-11.95,.26-2.49,.4-4.9,1.08-7.14,2.27-2.61,1.38-4.7,3.28-5.97,5.99-1.17,2.51-1.22,5,.14,7.46,.84,1.51,2.03,2.69,3.42,3.69,2.58,1.88,5.5,3.02,8.53,3.94,2.7,.81,5.46,1.32,8.22,1.83,4.7,.86,9.4,1.69,14.09,2.63,4.69,.94,9.3,2.19,13.73,4.03,3.13,1.3,6.1,2.87,8.64,5.15,2.43,2.19,4.57,4.66,6.46,7.34,2.6,3.69,3.85,7.79,3.8,12.29-.01,1.31-.08,2.61-.14,3.92-.08,1.81-.37,3.59-.89,5.33-1.8,6.07-5.46,10.78-10.61,14.38-4.39,3.06-9.3,4.87-14.5,5.98-3.44,.74-6.92,1.12-10.43,1.28-3.91,.17-7.8,.08-11.68-.46-4.88-.68-9.58-1.98-14.03-4.1-5.78-2.75-10.73-6.55-14.65-11.65-.05-.07-.12-.13-.21-.23-.06,.49-.09,.92-.16,1.35-.07,.45-.14,.89-.25,1.33-1.66,6.44-5.73,10.57-12.07,12.46-3.82,1.14-7.72,1.17-11.62,.41-4.04-.79-7.49-2.68-10.27-5.74-2.12-2.32-3.61-5.02-4.76-7.93-.26-.65-.49-1.31-.74-1.96-.04-.03-.08-.06-.12-.09-.11,.16-.21,.34-.35,.48-2.46,2.32-4.89,4.68-7.41,6.92-2.57,2.28-5.4,4.21-8.51,5.71-3.7,1.78-7.62,2.75-11.7,3.14-3.6,.34-7.19,.37-10.78-.15-3.23-.47-6.33-1.35-9.24-2.86-4.51-2.34-7.88-5.76-9.87-10.46-1.15-2.72-1.68-5.57-1.74-8.52-.06-2.87,.26-5.68,1.18-8.41,1.21-3.56,3.31-6.52,6.04-9.06,3-2.8,6.46-4.92,10.11-6.73,5.62-2.79,11.53-4.78,17.55-6.48,4.34-1.23,8.73-2.27,13.15-3.18,2.95-.6,5.91-1.14,8.86-1.7,.61-.12,1.22-.22,1.85-.33,0-.14,.01-.24,.01-.34,0-3.73,0-7.46,0-11.19,0-2.52-.25-5.02-.95-7.45-1.56-5.38-4.94-8.93-10.44-10.32-2.64-.67-5.33-.8-8.03-.54-2.67,.26-5.24,.89-7.65,2.09-1.03,.52-1.99,1.14-2.76,2.01-.79,.88-1.24,1.89-1.07,3.11,.1,.7,.42,1.31,.79,1.91,.66,1.08,1.35,2.16,1.94,3.28,.97,1.87,1.47,3.88,1.23,6-.13,1.11-.35,2.22-.64,3.3-.84,3.15-2.77,5.33-5.88,6.42-1.53,.53-3.11,.85-4.72,.92-1.43,.07-2.88,.14-4.3-.02-3.88-.45-6.62-2.6-8.38-6.04-1.08-2.1-1.62-4.35-1.76-6.7-.08-1.27-.06-2.55,.3-3.79,.93-3.2,2.64-5.95,4.92-8.35,2.98-3.15,6.56-5.44,10.48-7.23,6.73-3.08,13.83-4.59,21.21-4.85,4.87-.17,9.72,.13,14.52,1.03,3.91,.73,7.68,1.87,11.21,3.75,6.68,3.56,10.88,9.04,12.67,16.38,.74,3.03,.99,6.11,.99,9.23,0,14.32,0,28.65,0,42.97,0,.78,.01,1.55,.06,2.33,.07,1.09,.24,2.16,.69,3.17,.53,1.19,1.39,1.95,2.72,2.09,.48,.05,.97,.06,1.45,.02,.77-.07,1.34-.48,1.7-1.17,.13-.26,.24-.53,.33-.8,.38-1.24,.47-2.53,.48-3.81,.02-4.3,.01-8.59,.01-12.89,0-.14,0-.27,0-.46,.19,0,.33,0,.48,0,2.55,0,5.1,0,7.65,0,.32,0,.48,.09,.62,.39,2.09,4.51,4.66,8.71,7.95,12.45,7.13,8.11,16.12,12.48,26.85,13.39,2.5,.21,5,.21,7.5,.02,2.41-.19,4.78-.56,7.09-1.26,2.88-.87,5.54-2.16,7.74-4.26,1.65-1.58,2.86-3.42,3.37-5.68,.31-1.38,.21-2.76,.07-4.15-.14-1.31-.5-2.56-1.18-3.71-1.09-1.84-2.75-3-4.64-3.88-2.06-.96-4.26-1.48-6.48-1.89-5.09-.93-10.18-1.83-15.26-2.79-5.04-.95-10.03-2.1-14.9-3.7-3.59-1.18-7.08-2.59-10.24-4.71-2.75-1.84-5.43-3.75-7.76-6.11-2.1-2.12-3.77-4.53-4.8-7.35-.81-2.19-1.2-4.46-1.35-6.78-.21-3.15,.02-6.25,.9-9.28,2.18-7.54,6.72-13.29,13.38-17.37,5.64-3.46,11.87-5.01,18.41-5.48,.71-.05,1.43-.1,2.14-.15Zm-68.65,46.22c-.08,0-.15,0-.22,.02-.98,.17-1.96,.34-2.94,.52-4.4,.83-8.76,1.85-12.97,3.4-3.27,1.21-6.39,2.7-9.15,4.87-4.36,3.42-6.64,7.89-6.72,13.45-.03,2.32,.28,4.59,.86,6.83,.65,2.56,1.98,4.7,4.21,6.17,3.68,2.43,7.71,2.85,11.84,1.57,6.34-1.97,10.6-6.22,12.93-12.42,1.48-3.91,2.02-7.99,2.07-12.15,.05-4.01,.07-8.01,.1-12.02,0-.08-.01-.16-.02-.25Z"/>
</svg>