<?xml version="1.0" encoding="UTF-8"?>
<svg id="Capa_8" data-name="Capa 8" xmlns="http://www.w3.org/2000/svg" viewBox="0 0 550 250">
  <defs>
    <style>
      .cls-1 {
        fill: #fff;
      }
    </style>
  </defs>
  <path class="cls-1" d="M362.92,88.97c-2.4-1.6-5-2.9-7.7-3.8-7.9-2.5-16.1-3.7-24.4-3.6-7.3,0-14.5,0-21.8,.5-1.1,.2-2.2,0-3.1-.6s-1.6-1.4-2-2.5c-3.7-7.1-9.9-12.6-17.3-15.3-7.5-2.8-15.7-2.6-23.1,.4s-13.4,8.6-16.8,15.8c-3.5,7.2-4.1,15.4-1.9,23.1,.2,.8,.3,1.6,.5,2.5-.7,.1-1.4,.1-2.1,0-6.8-.6-13.6-2-20.1-4.3-9.3-3.8-10.8-10.1-3.7-17.3,6.2-6,13.2-10.9,20.9-14.6,10.9-5.7,22.2-10.3,34-13.8,10.6-3.3,21.4-5.7,32.4-7l8.8-1.1c-10.2-1.5-20.5-1.7-30.8-.8-14.4,1.1-28.7,3.6-42.6,7.5-14,3.6-27.4,9.2-39.9,16.4-6.3,3.5-11.8,8.3-16.1,14.1-4.5,6.6-3.6,13.9,2.7,18.1,2.8,1.8,5.9,3.1,9.1,3.9,15.2,3.9,30.7,3.3,46.2,2.1,.8-.1,1.7,0,2.4,.4,.7,.4,1.4,1,1.7,1.8,3.1,5.2,7.7,9.4,13.2,12.1,5.5,2.6,11.6,3.6,17.6,2.7,4.2-.4,8.3-1.7,12-3.8,3.7-2.1,7-4.9,9.6-8.2,2.6-3.4,4.5-7.2,5.6-11.3,1.1-4.1,1.4-8.4,.8-12.7-.2-1.5-.3-2.9-.5-4.5,.4-.1,.7-.2,1.1-.2,5.6,.9,11.2,1.5,16.7,2.7,2.9,.9,5.6,2.3,7.9,4.2,1.2,.8,2.1,2.1,2.4,3.5s.1,3-.6,4.2c-1.5,2.9-3.5,5.6-5.9,7.9-7.2,6.3-15.6,11.1-24.5,14.4-10.1,4-20.4,7.7-30.8,10.8-9,2.7-18.3,4-27.5,5.8-4.3,.8-8.8,1.2-13.1,1.9v.7c7.4,.7,14.7,1.9,22,2.1,17.9,.5,35.8-1.4,53.3-5.4,14.5-2.9,28.6-7.9,41.7-14.9,6.7-3.3,12.4-8.4,16.5-14.6,4.4-7.3,3.4-15-2.8-19.3Z"/>
  <path class="cls-1" d="M340.02,178.37v-16.8c0-5.6-2.7-7.8-8.1-8.1h-4.3c-6.1,0-8.5,2.2-9.1,8.3v30.9c0,1.5,.1,3,.4,4.5,.1,1.2,.6,2.4,1.4,3.3s1.9,1.6,3.1,1.8c2.6,.5,5.2,.7,7.8,.6,6.3,0,8.7-2.7,8.8-8.9v-15.6Zm-6.7,14.6c0,2.9-1.1,4.1-3.9,4.1s-4-1.1-4-4.2v-29.4c0-3.1,.8-3.9,3.9-4,3,0,4.1,.8,4.1,4-.1,9.9-.1,19.7-.1,29.5Z"/>
  <path class="cls-1" d="M262.32,186.17c.2-1.4-.1-2.8-.9-4s-2-2.1-3.3-2.4c1.2-.6,2.1-1.4,2.9-2.5,.7-1.1,1.1-2.3,1.2-3.6,0-4.2,.2-8.3,0-12.5,.1-.9-.1-1.8-.3-2.6-.3-.8-.8-1.6-1.4-2.2s-1.3-1.2-2.1-1.5c-.8-.3-1.7-.5-2.6-.5-3.8-.4-7.7,0-11.5-.3-2.2,0-2.7,.7-2.7,2.7v43.7c0,1.6,.6,2.2,2.1,2.1,.6-.1,1.2-.1,1.8,0,2.1,.3,2.9-.6,2.8-2.7-.1-4.9,0-9.7,0-14.6,0-.8,.6-2.1,1.2-2.2,3.8-1.1,6,.6,6,4.6v10.8c0,4.7-.7,4.2,4.4,4.3,1.8,0,2.3-.7,2.3-2.4,0-4.9,0-9.5,.1-14.2Zm-7.1-12.5c0,1-.8,2.5-1.6,2.7-1.6,.3-3.2,.3-4.8,0-.2,0-.5-1.2-.5-1.8v-12.7c0-1.4,.4-2,1.9-2.1,4.4,0,5.1,.5,5.1,5,0,3.1,.1,6.1-.1,9v-.1Z"/>
  <path class="cls-1" d="M308.92,183.07c-1.5,0-2,.5-2,2v8.6c0,.4,0,.8-.1,1.2-.1,.4-.3,.8-.6,1.1s-.6,.6-1,.7c-.4,.2-.8,.3-1.2,.3-3.2,.5-4.8-.9-4.8-4.3v-24.3c0-2.1,0-4.1,.2-6.1s1.2-2.7,4-2.9c2.1,0,3.3,.8,3.5,3v5c0,4.9-1,4.4,4.7,4.4h.5c.5-.5,1.4-1,1.4-1.5,0-3.4,.2-6.8,0-10.2,0-1.5-.5-3-1.6-4.2-1-1.1-2.5-1.9-4-2-2.2-.3-4.3-.5-6.5-.4-6.1,0-8.9,2.7-8.9,8.9v32.3c0,4.4,1.7,7.2,5.4,7.8,3.4,.5,6.8,.5,10.1,0,1.6-.2,3-1,4-2.2s1.5-2.8,1.4-4.4v-8.4c.2-4.9,.9-4.3-4.5-4.4Z"/>
  <path class="cls-1" d="M207.02,183.07c-1.7,0-2.2,.7-2.2,2.3v7.5c0,3.1-1.2,4.3-4,4.2-2.8,0-3.8-1.1-3.8-4.2v-30.8c.3-2.2,1.8-2.7,3.8-2.7s3.5,.5,3.7,2.7c.2,1.8,.1,3.5,.2,5.2,0,5.1-1,4.4,4.6,4.5h.4c.6-.5,1.5-1,1.5-1.5,0-3.6,0-7.3-.3-10.8,0-1.4-.6-2.8-1.6-3.9s-2.3-1.7-3.8-1.8c-2.8-.4-5.6-.5-8.3-.2-4.8,.5-6.7,2.9-6.8,7.7v34.1c-.1,1,.1,1.9,.4,2.8s.8,1.7,1.5,2.4c.7,.7,1.4,1.2,2.3,1.6s1.8,.5,2.8,.5c2.2,.2,4.4,.2,6.6,0,1,0,2.1-.1,3-.5,1-.4,1.8-1,2.5-1.7s1.3-1.6,1.6-2.6c.3-1,.5-2,.4-3v-7.7c-.2-4.5,.8-4-4.5-4.1Z"/>
  <path class="cls-1" d="M235.02,184.07c-1.3-9.4-2.7-18.9-4.1-28.3,0-.6-.8-1.7-1.3-1.7-2.7-.2-5.5,0-8.4,0-1.4,10-2.7,19.6-4.2,29.3-.8,5.7-1.5,11.4-2.4,17.1-.3,1.9,.4,2.2,2,2.2,4.2,0,4.2,.2,4.5-3.8,0-.6,.3-1.2,.2-1.8,0-1.6,.7-2.1,2.2-2.2q6.3-.4,7.2,6.1c.1,.3,.3,.7,.5,.9,.2,.3,.5,.5,.9,.6,1.8,.1,3.6,.1,5.4,0,0-.9,0-1.4-.1-1.8l-2.4-16.6Zm-9,4.8c-1.1,0-2.2,0-3.6-.2l3-24h.7c.3,1.8,.7,3.7,.9,5.6,.7,5.2,1.3,10.4,1.9,15.6,.3,3,.1,3-2.9,3Z"/>
  <path class="cls-1" d="M282.72,155.97c-.2-1.5-.7-2.2-2.2-2.1-1.7,.1-3.5,.1-5.2,0-2.1-.2-2.7,.8-2.7,2.5-.7,5.4-1.4,10.7-2.2,16-1.3,9.4-2.7,18.7-4.1,28.1-.2,1.5,.3,2.1,1.8,2.1,.7-.1,1.5-.1,2.3,0,1.7,.2,2.2-.8,2.4-2.2q.8-5.6,6.5-5.4h.5c1.5,0,2.2,.6,2.3,2.1,.1,1.5,.4,3.6,.6,5.4h6.6c0-1.4,0-2.4-.2-3.5-2.3-14.4-4.4-28.7-6.4-43Zm-4.8,32.9h-3.9l3-24.3h.9l1.9,15,.8,6.1c.3,2.9,.1,3.2-2.7,3.2Z"/>
  <path class="cls-1" d="M358.32,196.37h-2c-2.2,.3-2.9-.5-2.9-2.7v-35.1c0-5.1,.9-4.5-4.5-4.6-1.9,0-2.5,.5-2.5,2.5v43.3c0,2.1,.5,3,2.7,2.9,3.3-.2,6.5-.2,9.8,0,2.3,0,2.9-.8,2.7-2.9,0-3.4,.1-3.4-3.3-3.4Z"/>
</svg>