<svg width="41" height="34" viewBox="0 0 41 34" fill="none" xmlns="http://www.w3.org/2000/svg">
<path d="M39.1278 9.18967C38.62 8.84246 38.0638 8.5721 37.477 8.38734C35.7862 7.85281 34.0205 7.59361 32.2474 7.61965C30.6889 7.61965 29.1304 7.61964 27.5719 7.72354C27.3422 7.76315 27.1058 7.71915 26.9057 7.59949C26.7055 7.47984 26.5549 7.29244 26.481 7.07128C25.6903 5.55554 24.3635 4.38851 22.7592 3.79755C21.155 3.20659 19.3882 3.23404 17.8031 3.87456C16.218 4.51509 14.9281 5.72281 14.1848 7.26239C13.4415 8.80197 13.298 10.5631 13.7823 12.2027C13.8285 12.3643 13.8516 12.5375 13.892 12.7396C13.7441 12.752 13.5954 12.752 13.4475 12.7396C11.9775 12.6117 10.5291 12.3014 9.13568 11.816C7.14428 11.0021 6.82681 9.663 8.33912 8.11606C9.66072 6.84176 11.1766 5.78573 12.8299 4.98754C15.1643 3.77844 17.607 2.79092 20.1259 2.03796C22.3938 1.33289 24.7193 0.828776 27.0756 0.531438L28.9688 0.306315C26.7778 -0.00687636 24.5576 -0.0611222 22.3539 0.144695C19.263 0.379081 16.2025 0.916547 13.2166 1.74935C10.217 2.52751 7.33584 3.706 4.65073 5.25306C3.292 5.99765 2.11052 7.02751 1.18744 8.2719C0.223488 9.69185 0.419741 11.2503 1.76465 12.1508C2.36517 12.5353 3.02405 12.8199 3.71565 12.9935C6.98269 13.8305 10.3132 13.7093 13.638 13.4495C13.8156 13.4179 13.9987 13.4454 14.1593 13.5278C14.3198 13.6101 14.4489 13.7428 14.5269 13.9055C15.1966 15.0242 16.1814 15.9205 17.358 16.4821C18.5347 17.0437 19.8509 17.2458 21.1418 17.0629C22.0494 16.9678 22.9285 16.6911 23.727 16.2493C24.5255 15.8075 25.227 15.2097 25.7897 14.4913C26.3525 13.7729 26.765 12.9487 27.0027 12.0677C27.2405 11.1867 27.2986 10.2668 27.1737 9.36283C27.1333 9.05114 27.1044 8.73368 27.0698 8.40467C27.1464 8.37955 27.226 8.36403 27.3065 8.35848C28.5013 8.54896 29.7192 8.67018 30.8967 8.9357C31.5145 9.11969 32.0907 9.42155 32.5937 9.82462C32.856 10.0005 33.0417 10.2692 33.1135 10.5767C33.1853 10.8842 33.1377 11.2074 32.9805 11.4812C32.6513 12.1081 32.2224 12.6774 31.7106 13.1667C30.1573 14.5065 28.371 15.5493 26.4406 16.2432C24.2703 17.0917 22.0711 17.8883 19.8315 18.5521C17.9036 19.1293 15.9064 19.4122 13.9323 19.7873C13.003 19.9663 12.0506 20.0529 11.1098 20.1856V20.3357C12.6913 20.4916 14.2613 20.734 15.8429 20.7802C19.6917 20.8785 23.5375 20.4906 27.2891 19.6257C30.4133 19.011 33.4299 17.9393 36.2417 16.4453C37.6739 15.7342 38.8941 14.6593 39.7801 13.3283C40.6805 11.7698 40.4612 10.1248 39.1278 9.18967Z" fill="white"/>
<path d="M34.2157 28.3128C34.2157 27.1122 34.2157 25.9116 34.2157 24.711C34.2157 23.5104 33.6385 23.0371 32.484 22.9794C32.1781 22.9794 31.8664 22.9794 31.5605 22.9794C30.2502 22.9794 29.7365 23.4527 29.6095 24.7514C29.6009 24.8956 29.6009 25.0402 29.6095 25.1843C29.6095 27.2431 29.6095 29.3037 29.6095 31.3663C29.6123 31.6894 29.6413 32.0118 29.6961 32.3303C29.7179 32.5932 29.8241 32.842 29.9989 33.0396C30.1736 33.2372 30.4076 33.3731 30.6658 33.427C31.2221 33.5253 31.7864 33.5717 32.3513 33.5655C33.6962 33.5655 34.2273 32.9883 34.2388 31.6549C34.2388 30.5351 34.2388 29.4153 34.2388 28.3013L34.2157 28.3128ZM32.7784 31.4356C32.7784 32.0647 32.536 32.3072 31.9415 32.3129C31.3469 32.3187 31.0756 32.0821 31.0756 31.424C31.0756 30.385 31.0756 29.346 31.0756 28.3071C31.0756 27.2681 31.0756 26.1945 31.0756 25.1381C31.0756 24.4686 31.2546 24.2954 31.9068 24.2896C32.5591 24.2838 32.7784 24.4686 32.7784 25.1497C32.7861 27.2469 32.7861 29.3422 32.7784 31.4356Z" fill="white"/>
<path d="M17.5342 29.9694C17.5801 29.669 17.5136 29.3622 17.3475 29.1076C17.1814 28.8531 16.9273 28.6688 16.6337 28.5899C16.883 28.4673 17.0954 28.281 17.2495 28.0499C17.4036 27.8188 17.4938 27.5511 17.5111 27.2739C17.5111 26.3849 17.5457 25.4902 17.5111 24.5956C17.5246 24.4066 17.4989 24.2169 17.4356 24.0383C17.3723 23.8597 17.2727 23.6962 17.1432 23.558C17.0136 23.4197 16.8569 23.3098 16.6828 23.235C16.5087 23.1603 16.321 23.1224 16.1315 23.1237C15.3119 23.0371 14.4807 23.1237 13.6553 23.0544C13.1877 23.0544 13.0781 23.2103 13.0781 23.6316C13.0781 25.9982 13.0781 28.3706 13.0781 30.7371C13.0781 31.4818 13.0781 32.2321 13.0781 32.9767C13.0781 33.3173 13.205 33.4558 13.534 33.427C13.6646 33.4154 13.796 33.4154 13.9266 33.427C14.3884 33.4847 14.55 33.3 14.5327 32.8497C14.5038 31.8108 14.5327 30.7718 14.5327 29.7328C14.5327 29.5654 14.6596 29.2883 14.7809 29.2537C15.6063 29.0113 16.068 29.3749 16.0796 30.235C16.0796 30.9969 16.0796 31.7588 16.0796 32.5438C16.0796 33.5482 15.9353 33.4501 17.032 33.4731C17.4245 33.4731 17.5342 33.3288 17.5284 32.9594C17.5226 31.9724 17.5226 30.9796 17.5342 29.9694ZM16.0161 27.3027C16.0161 27.5105 15.8429 27.828 15.6813 27.8799C15.3377 27.9408 14.986 27.9408 14.6423 27.8799C14.5961 27.8799 14.5384 27.6317 14.5327 27.4932C14.5327 27.043 14.5327 26.5869 14.5327 26.1367C14.5327 25.6865 14.5327 25.2305 14.5327 24.7745C14.5327 24.4859 14.6192 24.3416 14.9482 24.33C15.8949 24.33 16.045 24.434 16.045 25.3979C16.0392 26.0675 16.0623 26.7024 16.0161 27.3258V27.3027Z" fill="white"/>
<path d="M27.5489 29.3114C27.2314 29.3114 27.1217 29.4269 27.1275 29.7443C27.1275 30.3562 27.1275 30.9738 27.1275 31.5914C27.1355 31.6808 27.1249 31.7709 27.0964 31.8561C27.0679 31.9412 27.0222 32.0196 26.962 32.0862C26.9019 32.1528 26.8287 32.2064 26.7469 32.2434C26.6651 32.2804 26.5765 32.3001 26.4868 32.3014C25.7999 32.3995 25.4593 32.1167 25.4536 31.3779C25.4536 29.6462 25.4536 27.9146 25.4536 26.1829C25.4536 25.7442 25.4536 25.3055 25.4882 24.8726C25.5228 24.4397 25.7537 24.2954 26.354 24.255C26.81 24.255 27.0698 24.434 27.0986 24.89C27.0986 25.2421 27.0986 25.5999 27.0986 25.9578C27.0986 27.0025 26.8793 26.9044 28.1087 26.9044C28.1434 26.9044 28.1896 26.9044 28.2069 26.9044C28.3166 26.8005 28.507 26.6909 28.507 26.5754C28.507 25.8481 28.5474 25.1151 28.507 24.3878C28.51 24.0571 28.389 23.7374 28.1678 23.4916C27.9466 23.2459 27.6413 23.0919 27.3122 23.0602C26.8484 22.9881 26.3788 22.9591 25.9096 22.9736C24.5935 22.9736 24.0047 23.5508 23.999 24.8784C23.999 25.9982 23.999 27.118 23.999 28.2378C23.999 29.4211 23.999 30.6101 23.999 31.7934C23.999 32.7401 24.3684 33.3231 25.1534 33.4501C25.8729 33.5568 26.6042 33.5568 27.3237 33.4501C27.6595 33.4094 27.9668 33.241 28.1818 32.9799C28.3967 32.7187 28.5029 32.3848 28.4782 32.0474C28.4782 31.4702 28.4782 30.8468 28.4782 30.2465C28.559 29.2017 28.6975 29.3345 27.5489 29.3114Z" fill="white"/>
<path d="M5.65507 29.3114C5.27988 29.3114 5.17598 29.4557 5.18753 29.802C5.18753 30.3389 5.18753 30.8757 5.18753 31.4067C5.18753 32.0647 4.92778 32.3187 4.3217 32.3129C3.71563 32.3072 3.50206 32.0821 3.49629 31.424C3.49629 29.3287 3.49629 27.2392 3.49629 25.1439C3.48783 25.0479 3.48783 24.9513 3.49629 24.8553C3.56555 24.3878 3.87723 24.2781 4.30437 24.2781C4.73151 24.2781 5.06052 24.3762 5.10093 24.8553C5.13556 25.2305 5.12979 25.5999 5.13556 25.9751C5.13556 27.0603 4.92202 26.9217 6.13417 26.9333C6.16303 26.9333 6.20919 26.9333 6.22651 26.9333C6.34772 26.8351 6.55552 26.7255 6.55552 26.6216C6.55552 25.8481 6.55553 25.0689 6.48626 24.3127C6.47864 24.0029 6.35639 23.7068 6.14315 23.4818C5.92992 23.2569 5.64085 23.119 5.33183 23.0948C4.73916 23.0103 4.13868 22.9948 3.54244 23.0486C2.515 23.1641 2.09364 23.6662 2.07632 24.6994C2.07632 25.9001 2.07632 27.1007 2.07632 28.3013C2.07632 29.5307 2.07632 30.766 2.07632 31.9955C2.06006 32.1997 2.08693 32.405 2.15521 32.5982C2.22348 32.7913 2.33164 32.9679 2.47263 33.1165C2.61363 33.2651 2.78432 33.3824 2.97361 33.4608C3.16289 33.5391 3.36655 33.5768 3.57133 33.5713C4.04209 33.6059 4.51472 33.6059 4.98548 33.5713C5.20631 33.5801 5.42652 33.542 5.63157 33.4596C5.83663 33.3771 6.02189 33.2522 6.17514 33.0929C6.32839 32.9337 6.44616 32.7438 6.52068 32.5357C6.5952 32.3276 6.62476 32.1061 6.60745 31.8858C6.60745 31.3086 6.60745 30.7775 6.60745 30.2292C6.59014 29.2248 6.79796 29.3345 5.65507 29.3114Z" fill="white"/>
<path d="M11.6697 29.5192C11.3811 27.5047 11.0924 25.4787 10.7981 23.4642C10.7981 23.3257 10.6249 23.1063 10.5268 23.1006C9.94957 23.0659 9.33772 23.1006 8.72587 23.1006C8.41995 25.2305 8.14866 27.2969 7.8312 29.3634C7.65803 30.5813 7.50216 31.805 7.30591 33.0172C7.23664 33.4212 7.38671 33.4962 7.73304 33.4904C8.64505 33.4904 8.63352 33.5366 8.69124 32.6881C8.69124 32.5611 8.74894 32.4341 8.74317 32.3072C8.74317 31.9724 8.88747 31.8627 9.21072 31.8454C10.5729 31.7704 10.5672 31.7588 10.7576 33.1441C10.7781 33.2181 10.8161 33.2861 10.8683 33.3423C10.9206 33.3986 10.9855 33.4415 11.0578 33.4674C11.4424 33.4877 11.8277 33.4877 12.2122 33.4674C12.2122 33.2711 12.2123 33.1788 12.1834 33.0864L11.6697 29.5192ZM9.74178 30.5467C9.49935 30.5467 9.26267 30.5466 8.96252 30.5062L9.59748 25.3863H9.74178C9.80527 25.7789 9.88606 26.1771 9.93801 26.5754C10.0842 27.6837 10.2209 28.7919 10.3478 29.9002C10.4229 30.5467 10.3883 30.5467 9.74178 30.5467Z" fill="white"/>
<path d="M21.921 23.5219C21.8748 23.2045 21.7767 23.0544 21.4419 23.0717C21.0693 23.1035 20.6947 23.1035 20.3221 23.0717C19.8776 23.0197 19.7449 23.2391 19.7449 23.6143C19.6006 24.7687 19.439 25.8943 19.2773 27.0314C18.9887 29.0343 18.7001 31.0373 18.4 33.0344C18.348 33.3635 18.4577 33.4905 18.7809 33.4731C18.9422 33.4587 19.1045 33.4587 19.2658 33.4731C19.6295 33.5135 19.7391 33.3115 19.7853 32.994C19.9469 31.7934 19.9527 31.7934 21.1764 31.8396H21.2745C21.5978 31.8396 21.7478 31.9782 21.7767 32.2899C21.8056 32.6015 21.8575 33.0518 21.9037 33.4443H23.3178C23.3178 33.1499 23.3178 32.9248 23.2774 32.7054C22.7868 29.6404 22.3539 26.5812 21.921 23.5219ZM20.8935 30.5466H20.0566L20.6915 25.3517H20.8762L21.2745 28.5668L21.4477 29.8655C21.5285 30.4889 21.4881 30.5466 20.8935 30.5466Z" fill="white"/>
<path d="M38.1523 32.1513C38.0062 32.1427 37.8597 32.1427 37.7136 32.1513C37.2519 32.2148 37.1018 32.0532 37.1018 31.5741C37.1018 29.0748 37.1018 26.5754 37.1018 24.0703C37.1018 22.9736 37.2865 23.1121 36.1263 23.0833C35.7222 23.0833 35.5895 23.1987 35.5953 23.6085C35.5953 25.167 35.5953 26.7255 35.5953 28.284C35.5953 29.8425 35.5953 31.3317 35.5953 32.8555C35.5953 33.3115 35.7049 33.502 36.1725 33.4789C36.8704 33.4414 37.5698 33.4414 38.2678 33.4789C38.7526 33.4789 38.8796 33.3173 38.845 32.8613C38.8508 32.1513 38.8738 32.1513 38.1523 32.1513Z" fill="white"/>
</svg>
