<svg width="35" height="35" viewBox="0 0 35 35" fill="none" xmlns="http://www.w3.org/2000/svg">
<g id="Group">
<g id="Group_2">
<path id="Vector" fill-rule="evenodd" clip-rule="evenodd" d="M31.4213 7.45358C31.8314 7.86379 32.0617 8.42009 32.0617 9.00014C32.0617 9.58019 31.8314 10.1365 31.4213 10.5467L15.0252 26.9427C14.8085 27.1595 14.5513 27.3314 14.2682 27.4487C13.985 27.566 13.6816 27.6264 13.3751 27.6264C13.0687 27.6264 12.7652 27.566 12.4821 27.4487C12.1989 27.3314 11.9417 27.1595 11.725 26.9427L3.57877 18.798C3.36984 18.5962 3.20319 18.3548 3.08855 18.0879C2.9739 17.821 2.91356 17.534 2.91103 17.2435C2.90851 16.9531 2.96386 16.665 3.07385 16.3962C3.18383 16.1273 3.34626 15.8831 3.55165 15.6777C3.75704 15.4723 4.00128 15.3099 4.27012 15.1999C4.53895 15.0899 4.827 15.0346 5.11746 15.0371C5.40791 15.0396 5.69496 15.1 5.96184 15.2146C6.22872 15.3293 6.4701 15.4959 6.67189 15.7048L13.3744 22.4073L28.3267 7.45358C28.5298 7.2503 28.771 7.08905 29.0365 6.97903C29.302 6.86901 29.5866 6.81238 29.874 6.81238C30.1614 6.81238 30.4459 6.86901 30.7114 6.97903C30.9769 7.08905 31.2181 7.2503 31.4213 7.45358Z" fill="#E62057"/>
</g>
</g>
</svg>
