<?xml version="1.0" encoding="UTF-8"?>
<svg id="Capa_20" data-name="Capa 20" xmlns="http://www.w3.org/2000/svg" viewBox="0 0 550 250">
  <defs>
    <style>
      .cls-1 {
        fill: #fff;
      }
    </style>
  </defs>
  <path class="cls-1" d="M240.33,184.76c-.97-.19-1.95-.38-2.92-.57-2.76-.55-5.4-1.4-7.65-3.17-3.18-2.48-5.04-5.75-5.77-9.7-.79-4.32-.53-8.57,.77-12.76,1.2-3.89,3.71-6.76,7.11-8.9,2.44-1.54,5.16-2.44,7.94-3.06,3.01-.67,6.07-1.14,9.11-1.68,1.91-.34,3.82-.65,5.73-.98,.45-.08,.92-.08,1.35-.21,3-.91,4.59-3.12,3.97-6.66-.35-2.02-1.47-3.47-3.4-4.29-1.97-.83-4.03-1.08-6.13-1.08-1.39,0-2.79,.05-4.16,.38-2.26,.54-3.94,1.81-5.08,3.81-.7,1.22-1.12,2.55-1.43,3.91-.05,.2-.11,.4-.16,.59h-14.87c.18-1.23,.32-2.37,.51-3.49,.42-2.43,1.01-4.81,2.1-7.03,2.28-4.64,5.93-7.74,10.75-9.52,2.12-.78,4.33-1.12,6.55-1.47,2.84-.44,5.69-.45,8.54-.3,4.95,.26,9.69,1.42,14.14,3.69,3.91,1.99,6.24,5.18,7.36,9.34,.59,2.21,.89,4.46,.89,6.74,0,15.04,0,30.08,0,45.12,0,.42-.06,.84-.09,1.26h-13.12c-.59-.09-1.17-.19-1.81-.29-.12-2.07,.07-4.13-.11-6.29-.28,.18-.43,.27-.57,.38-1.29,1.07-2.68,1.99-4.17,2.75-3.17,1.62-6.55,2.51-10.07,2.91-1.11,.13-2.21,.36-3.31,.54h-2Zm19.54-32.18c-.64,.03-1.08,.38-1.55,.61-.7,.35-1.38,.81-2.12,1.01-2.6,.7-5.22,1.36-7.84,1.95-1.77,.4-3.56,.7-5.23,1.47-2.29,1.06-3.77,2.81-4.4,5.25-.54,2.08-.41,4.13,.28,6.17,.8,2.34,2.5,3.65,4.8,4.11,3.76,.75,7.27-.08,10.55-2.04,2.3-1.38,3.79-3.35,4.59-5.88,.07-.23,.14-.46,.21-.7,.68-2.32,.77-4.72,.8-7.11,.02-1.6-.05-3.2-.07-4.84Z"/>
  <path class="cls-1" d="M348.54,184.76c-.27-.12-.53-.29-.82-.34-6.59-1.28-11.97-4.67-16.5-9.5-4.43-4.72-7.29-10.24-8.43-16.63-2.46-13.81,3.01-27.54,15.37-35.28,3.17-1.99,6.61-3.34,10.33-3.82,7-.89,13.76-.22,19.96,3.44,7.96,4.7,13.21,11.5,15.47,20.47,2.05,8.16,1.49,16.19-2.28,23.75-4.22,8.47-10.85,14.31-20.05,17.04-.67,.2-1.36,.31-2.03,.49-.34,.09-.67,.25-1,.37h-10.02Zm-11.73-33.08c.1,.99,.16,1.99,.31,2.98,.47,3.09,1.81,5.79,3.65,8.31,5.07,6.9,15.11,8.59,22.05,3.56,6.11-4.43,9.32-12.47,6.59-20.62-1.78-5.31-5.29-9.05-10.64-10.91-2.36-.82-4.83-.73-7.29-.58-1.37,.08-2.69,.39-3.96,.92-6.29,2.63-10.64,9.3-10.71,16.35Z"/>
  <path class="cls-1" d="M286.6,184.76c-.23-.08-.45-.15-.74-.25-.19-20.92,0-41.83,0-62.86,4.8-.12,9.51,.09,14.35,.29v7.49c.07,.02,.13,.04,.2,.06,.2-.25,.41-.49,.61-.74,2.07-2.66,4.46-4.96,7.41-6.63,1.22-.69,2.48-1.26,3.85-1.6,1.67-.42,3.32-.93,5.01-1.32,1.02-.23,2.08-.39,3.12-.18,.24,.78,.47,14.71,.26,15.77-.56-.06-1.13-.08-1.69-.17-9.08-1.4-15.99,5.22-17.56,11.81-.34,1.41-.47,2.87-.62,4.31-.12,1.14-.18,2.3-.18,3.45-.01,9.89,0,19.77,0,29.66,0,.3,.01,.61,.02,.91h-14.03Z"/>
  <path class="cls-1" d="M199.7,184.76c0-.36,.03-.73,.03-1.09,0-26.6,0-53.2,0-79.81,0-.39,0-.78,0-1.24h14.79c.02,.37,.05,.72,.05,1.07,0,7.83,0,15.65,0,23.48,0,18.78,0,37.55-.01,56.33,0,.42-.07,.84-.11,1.26h-14.76Z"/>
  <path class="cls-1" d="M434.34,150.91c-1.61-.02-3.21-.05-4.82-.05-11.26,0-22.52,0-33.78,0-.36,0-.72,0-1.07,0-.2-.7-.25-12.48-.06-13.76,.36,0,.74,0,1.13,0,12.47,0,24.95,0,37.42,0,.39,0,.79-.02,1.18-.03v13.83Z"/>
  <path class="cls-1" d="M176.07,154.44h15.48c-.07,.35-.12,.64-.19,.93-1.33,5.15-3.7,9.82-6.96,13.99-4.46,5.7-9.97,10.06-16.85,12.55-5.01,1.81-10.17,2.57-15.47,2.24-7.29-.46-14-2.68-19.81-7.15-6.69-5.15-11.7-11.58-14.41-19.67-1.33-3.97-2.02-8.04-2.16-12.22-.17-5.01,.34-9.93,1.85-14.72,1.8-5.74,4.82-10.77,8.87-15.19,2.53-2.76,5.28-5.27,8.46-7.28,4-2.53,8.34-4.14,13.02-4.87,3.69-.58,7.38-.66,11.07-.28,5.9,.62,11.3,2.72,16.19,6.06,8.11,5.54,13.45,13.09,16.17,22.51,.08,.28,.14,.58,.22,.95-.34,.03-.6,.07-.87,.07-4.65,0-9.29,0-13.94,.02-.56,0-.85-.18-1.11-.69-1.81-3.52-4.16-6.62-7.34-9.03-3.07-2.33-6.5-3.96-10.32-4.47-7.29-.98-13.78,.85-19.24,5.91-3.05,2.82-5.48,6.07-6.92,10.01-.84,2.29-1.25,4.66-1.42,7.1-.17,2.5-.09,4.97,.34,7.43,1.05,6.01,4.19,10.78,8.75,14.7,2.85,2.45,6.08,4.23,9.81,4.93,9.21,1.73,16.97-.78,23.06-8.02,1.33-1.58,2.45-3.32,3.38-5.16,.11-.21,.24-.42,.35-.63Z"/>
  <path class="cls-1" d="M414.69,73.27c3.17,3.31,6.23,6.51,9.38,9.79-12.12,12.65-24.18,25.24-36.3,37.89-3.17-3.3-6.28-6.53-9.44-9.81,12.13-12.63,24.2-25.2,36.36-37.87Z"/>
  <path class="cls-1" d="M348.92,65.24h13.08c.01,13.51,0,26.97,0,40.41-.8,.21-12.11,.24-13.06,.07-.19-.66-.23-39.43-.02-40.48Z"/>
</svg>