<?xml version="1.0" encoding="UTF-8"?>
<svg id="Capa_24" data-name="Capa 24" xmlns="http://www.w3.org/2000/svg" viewBox="0 0 550 250">
  <defs>
    <style>
      .cls-1 {
        fill: #fff;
      }
    </style>
  </defs>
  <g>
    <path class="cls-1" d="M231.1,91.93v65.86h-11.5v-5.79c-.24,.01-.37-.01-.4,.03-3.79,4.94-9.18,5.9-14.89,5.83-9.34-.11-16.53-5.1-19.28-13.24-1.52-4.49-1.75-9.1-1.01-13.76,.62-3.9,2.01-7.49,4.6-10.52,5.01-5.88,11.58-7.66,18.99-6.99,4.6,.41,8.56,2.13,11.42,6.37v-27.78h12.06Zm-35.27,43.67c0,.63-.07,1.27,.01,1.89,.58,4.78,2.73,8.55,7.42,10.25,4.47,1.63,8.76,1.01,12.34-2.32,3.34-3.1,4.15-7.15,3.79-11.51-.77-9.31-10.76-14.46-18.29-9.39-3.91,2.63-5.28,6.56-5.28,11.08Z"/>
    <path class="cls-1" d="M321.81,137.84h-30.5c-.23,4.79,3.13,8.96,8.13,10.21,6.7,1.68,10.87-.42,14.09-7.18,3.32,1.31,6.65,2.62,10.09,3.97-1.45,4.2-3.9,7.49-7.58,9.8-7.79,4.91-23.13,4.77-31.03-3.61-4.38-4.64-6.06-10.27-5.86-16.49,.27-8.21,3.59-14.91,11.07-18.7,8.26-4.18,16.69-3.95,24.59,1.07,4.84,3.07,6.91,7.97,7.23,13.57,.14,2.4-.14,4.82-.23,7.34Zm-30.55-8.17h19.11c.25-2.93-1.23-5.47-3.93-6.7-3.11-1.41-6.31-1.49-9.45-.18-3.05,1.27-4.95,3.61-5.73,6.88Z"/>
    <path class="cls-1" d="M278.91,144.86c-1.95,5.36-5.26,9.29-10.48,11.2-7.96,2.93-15.92,2.71-23.41-1.45-7.95-4.42-10.89-11.73-10.58-20.47,.26-7.34,3.16-13.53,9.55-17.41,8.37-5.08,17.13-5.05,25.56-.17,5.34,3.09,7.5,8.35,7.8,14.37,.09,1.79-.17,3.6-.22,5.4-.04,1.11-.47,1.5-1.66,1.49-9.08-.06-18.15-.03-27.23-.03-.53,0-1.07,0-1.59,0-.34,5.35,3.64,9.14,7.99,10.25,6.71,1.72,11.5-.66,14.11-7.19,1.65,.64,3.32,1.28,4.97,1.94,1.67,.66,3.34,1.33,5.18,2.06Zm-13.18-15.15c.09-2.44-.65-4.44-2.54-5.79-3.64-2.6-7.58-2.66-11.53-.83-2.77,1.28-4.41,3.57-5.14,6.61h19.21Z"/>
    <path class="cls-1" d="M400.04,140.86c3.4,1.34,6.7,2.64,10.1,3.99-1.68,4.73-4.46,8.52-9,10.53-8.96,3.96-17.91,3.64-26.26-1.6-6.48-4.07-9.04-10.5-9.24-17.99-.33-12.82,8.6-22.27,21.41-22.63,4.16-.12,8.22,.42,11.96,2.34,6.92,3.55,9.61,9.55,9.6,17.02,0,1.3-.22,2.6-.28,3.91-.04,1.08-.5,1.42-1.6,1.4-3.52-.07-7.04-.03-10.56-.03-5.64,0-11.28,0-16.93,0h-1.45c.02,5.25,3.37,9.25,8.54,10.35,6.64,1.42,10.7-.72,13.69-7.29Zm-3.16-11.16c.24-2.92-1.13-5.42-3.81-6.67-3.37-1.57-6.82-1.6-10.17,.04-2.72,1.34-4.44,3.54-5.12,6.63h19.1Z"/>
    <path class="cls-1" d="M348.41,123.52h-23.26v-10.23h38.86c0,3.16,.04,6.26-.04,9.36-.01,.47-.54,1-.94,1.39-7.6,7.4-15.21,14.79-22.82,22.18-.19,.19-.46,.29-.69,.44,.06,.11,.12,.23,.17,.34h24.87v10.85h-40.3c0-3.33-.03-6.61,.04-9.9,0-.43,.5-.92,.87-1.28,7.38-7.24,14.77-14.46,22.17-21.68,.41-.4,.87-.75,1.31-1.12-.08-.12-.16-.23-.24-.35Z"/>
    <path class="cls-1" d="M425.29,119.35c3.82-6.59,10.78-7.02,15.81-5.29,5.73,1.97,8.69,8,7.72,15.83h-11.52c-.03-.59-.05-1.07-.07-1.54-.16-3.57-2.53-6.21-5.64-6.28-3.55-.08-6,2.26-6.22,6.08-.11,1.93-.05,3.88-.05,5.82,0,7.45,0,14.89,0,22.34v1.53h-12.06v-44.55h12.03v6.06Z"/>
  </g>
  <rect class="cls-1" x="154.92" y="149.25" width="14.36" height="8.4"/>
  <rect class="cls-1" x="154.92" y="137.33" width="14.36" height="8.4"/>
  <rect class="cls-1" x="155.19" y="125.4" width="14.36" height="8.4"/>
  <rect class="cls-1" x="155.19" y="113.21" width="14.36" height="8.4"/>
  <rect class="cls-1" x="137.04" y="149.25" width="14.36" height="8.4"/>
  <rect class="cls-1" x="137.04" y="137.33" width="14.36" height="8.4"/>
  <rect class="cls-1" x="119.15" y="149.25" width="14.36" height="8.4"/>
  <rect class="cls-1" x="119.15" y="137.33" width="14.36" height="8.4"/>
  <rect class="cls-1" x="119.42" y="125.4" width="14.36" height="8.4"/>
  <rect class="cls-1" x="101" y="149.25" width="14.36" height="8.4"/>
</svg>