<?xml version="1.0" encoding="UTF-8"?>
<svg id="Capa_4" data-name="Capa 4" xmlns="http://www.w3.org/2000/svg" viewBox="0 0 550 250">
  <defs>
    <style>
      .cls-1 {
        fill: #fff;
      }
    </style>
  </defs>
  <path class="cls-1" d="M348.22,53.67H203.42v13.4h144.8v-13.4Z"/>
  <path class="cls-1" d="M269.12,155.47v4.9c-.4,7.6-2.8,15-6.9,21.4-1.8,3.1-4.4,5.8-7.4,7.7-3,2-6.5,3.2-10.1,3.6h-10.2c-.7,0-1.5-.3-2-.8s-.8-1.2-.8-2v-53.9c6.3-1,11.5,0,15.2,5.3,2.7,3.8,4.1,8.4,4,13.1v2h2v-44.4h-2.1v3.3c-.3,1.9-.2,3.9-.6,5.7-2.1,9.7-9.4,14.6-18.1,12.4-.1-.1-.2-.3-.2-.5v-49.2c0-.6,1.2-1.7,1.9-1.7,3.1-.2,6.2,0,9.2,0,2.3,0,4.6,.6,6.8,1.6,2.1,1,4,2.4,5.5,4.2,5.7,6.8,8.9,15.3,9,24.1,.2,2.2,.3,4.5,.4,6.7v.3h2.3v-39h-63.2v1.8h6.6c1,.2,1.6,1,1.7,2.4,0,.9,.3,1.7,.3,2.6v101.4c.1,.9,.1,1.7,0,2.6-.1,.6-.4,1.1-.8,1.5s-1,.6-1.6,.6h-6.7v2.3h68.3v-40h-2.5Z"/>
  <path class="cls-1" d="M346.32,155.47v4.9c-.4,7.6-2.8,15-6.9,21.4-1.8,3.1-4.4,5.7-7.4,7.7s-6.5,3.2-10.1,3.6h-10.2c-.4,0-.7-.1-1.1-.2-.3-.1-.7-.4-.9-.6-.3-.3-.5-.6-.6-.9-.1-.3-.2-.7-.2-1.1v-53.9c6.3-1,11.5,0,15.2,5.3,2.7,3.8,4.1,8.4,4,13.1v2h2v-44.4h-2.1v3.3c-.3,1.9-.2,3.9-.6,5.7-2.1,9.7-9.4,14.6-18.1,12.4,0-.2-.2-.3-.2-.5v-49.2c0-.6,1.2-1.7,1.9-1.7,3.1-.2,6.1,0,9.2,0,2.3,0,4.6,.6,6.8,1.6,2.1,1,4,2.4,5.5,4.2,5.7,6.8,8.9,15.3,9,24.1,0,2.2,.3,4.5,.4,6.7v.3h2.3v-39h-63.3v1.8h6.6c1.1,.2,1.6,1,1.7,2.4,0,.9,.3,1.7,.3,2.6v104c-.1,.6-.4,1.1-.9,1.5-.4,.4-1,.6-1.6,.6h-6.7v2.3h68.3v-40h-2.3Z"/>
</svg>