<?xml version="1.0" encoding="UTF-8"?>
<svg id="Capa_9" data-name="Capa 9" xmlns="http://www.w3.org/2000/svg" viewBox="0 0 550 250">
  <defs>
    <style>
      .cls-1 {
        fill: #fff;
      }
    </style>
  </defs>
  <path class="cls-1" d="M236.22,200.89c-.45-.14-.92-.26-1.36-.43-1.76-.71-2.96-1.98-3.55-3.79-.65-1.99-.65-4-.04-5.99,.89-2.86,3.38-4.52,6.54-4.45,4.1,.1,6.67,2.59,6.83,6.8,.04,1.19-.11,2.43-.44,3.58-.59,2.07-2.03,3.41-4.1,4.05-.22,.07-.44,.15-.66,.23h-3.22Zm-2.44-7.46c.07,.62,.1,1.14,.18,1.65,.33,2.02,1.76,3.37,3.61,3.43,2.05,.06,3.46-1.05,3.95-3.15,.29-1.24,.28-2.48-.03-3.72-.46-1.84-1.79-2.91-3.63-2.93-1.93-.02-3.31,1.02-3.79,2.89-.16,.63-.21,1.29-.29,1.84Z"/>
  <path class="cls-1" d="M262.14,200.89c-.43-.14-.88-.24-1.3-.41-1.79-.72-3-1.99-3.6-3.82-.64-1.97-.64-3.96-.05-5.93,.87-2.88,3.38-4.57,6.57-4.5,4.07,.1,6.68,2.63,6.81,6.74,.04,1.21-.11,2.47-.44,3.64-.59,2.07-2.04,3.41-4.11,4.04-.22,.07-.44,.15-.66,.23h-3.22Zm5.63-7.26s-.06-.02-.09-.04c-.06-.53-.08-1.07-.17-1.6-.3-1.82-1.48-3.02-3.16-3.26-1.75-.25-3.36,.49-4.02,2.01-.82,1.89-.84,3.85,.04,5.72,.67,1.43,1.91,2.08,3.49,2.04,1.54-.04,2.69-.77,3.27-2.18,.35-.85,.45-1.79,.66-2.69Z"/>
  <path class="cls-1" d="M337.5,200.89c-.08-.04-.17-.1-.25-.12-2.71-.68-4.47-2.63-4.88-5.39-.21-1.43-.2-2.86,.16-4.27,.78-3.09,3.38-4.97,6.7-4.88,4.33,.12,6.95,3,6.84,7.53-.05,2.16-.58,4.13-2.27,5.64-.89,.79-1.96,1.17-3.08,1.49h-3.22Zm5.63-7.17c-.06-.64-.09-1.11-.16-1.58-.3-2.03-1.67-3.35-3.52-3.43-2.11-.09-3.56,.98-4.04,3.02-.31,1.31-.3,2.65,.07,3.95,.5,1.76,1.9,2.83,3.68,2.83,1.79,0,3.17-1.03,3.66-2.83,.19-.68,.24-1.41,.32-1.96Z"/>
  <path class="cls-1" d="M222.49,200.89c-.99-.34-1.97-.72-2.77-1.44-1.47-1.32-2.13-3.02-2.21-4.92-.05-1.12,.02-2.28,.27-3.37,.79-3.36,3.63-5.26,7.09-4.88,2.37,.25,4.06,1.39,4.84,3.71,.04,.11,.06,.23,.1,.42-.94,.23-1.85,.45-2.77,.67-.05-.11-.09-.18-.12-.25-.5-1.36-1.45-2.09-2.79-2.12-1.51-.04-2.73,.65-3.22,1.99-.73,1.97-.72,4,.06,5.94,.5,1.26,1.57,1.86,2.93,1.87,1.34,0,2.25-.66,2.8-1.86,.16-.36,.28-.73,.43-1.14,.9,.29,1.79,.57,2.67,.85-.16,1.82-1.75,3.7-3.6,4.29-.24,.08-.48,.16-.73,.24h-2.99Z"/>
  <path class="cls-1" d="M203.5,194.68c.07-.31,.15-.61,.22-.92,.59-2.31,2.48-3.72,4.83-3.58,2.36,.13,4.06,1.72,4.37,4.11,.07,.54,.08,1.1,.13,1.72h-7.68c-.1,1.61,.85,3.05,2.21,3.42,1.55,.43,2.62-.15,3.61-2,.56,.07,1.14,.15,1.76,.23-.43,1.47-1.25,2.5-2.64,3.02-.2,.07-.4,.15-.6,.23h-2.63c-.12-.05-.24-.12-.37-.16-1.55-.51-2.52-1.56-2.97-3.12-.1-.34-.17-.68-.25-1.02,0-.64,0-1.27,0-1.91Zm1.94-.14h5.68c-.02-1.71-1.15-2.9-2.75-2.93-1.62-.03-2.84,1.18-2.94,2.93Z"/>
  <path class="cls-1" d="M318.13,134.83c-.49,2.21-.82,4.46-1.5,6.61-4.05,12.68-12.11,21.73-24.54,26.73-5.72,2.3-11.67,3.65-17.79,4.32-4.88,.54-9.77,.59-14.66,.19-5.76-.48-11.24-2.03-16.61-4.12-11.16-4.35-20.32-11.29-27.33-21.01-5.55-7.7-9.24-16.21-10.98-25.54-2.31-12.38-.6-24.29,4.46-35.73,5.59-12.66,14.6-22.25,26.63-29.03,5.98-3.37,12.36-5.62,19.12-6.79,5.28-.91,10.6-1.09,15.94-.58,9.28,.89,17.93,3.79,26.08,8.24,1.73,.94,3.51,1.78,5.43,2.27,1.95,.49,3.84,.32,5.76-.24,2.66-.77,4.57-2.47,6.03-4.7,1.2-1.83,2.24-3.75,3.35-5.63,.11-.18,.2-.37,.36-.69v38.76h-.58c-2.17,0-4.34-.01-6.51,.01-.45,0-.65-.14-.82-.56-2.36-5.82-5.19-11.4-8.9-16.49-2.06-2.82-4.37-5.42-7.15-7.57-2.68-2.06-5.66-3.35-9.07-3.59-3.19-.23-6.33,0-9.38,.94-3.56,1.09-6.3,3.4-8.78,6.07-3.24,3.49-4.84,7.69-5.39,12.36-.74,6.26-.75,12.55-.77,18.84-.03,11.13,0,22.25,.09,33.38,.03,4.32,.24,8.63,.78,12.92,1,7.89,5.19,13.41,12.3,16.82,3.61,1.73,7.38,2.43,11.36,1.86,3.8-.54,7.3-1.89,10.54-3.91,5.42-3.37,9.63-7.85,12.3-13.69,1.13-2.47,1.74-5.07,2-7.76,.07-.67,.14-1.35,.26-2.01,.03-.15,.24-.38,.37-.39,2.42-.14,4.85-.25,7.27-.36,.05,0,.11,.03,.31,.08Z"/>
  <path class="cls-1" d="M346.5,177.76v1.24H203.82v-1.24h142.68Z"/>
  <path class="cls-1" d="M278.94,195.91c.77-2.94,1.56-5.87,2.3-8.82,.13-.5,.34-.66,.84-.64,1.19,.04,2.38,.01,3.61,.01v14.22h-2.61v-10.63s-.08-.01-.12-.02c-.05,.15-.12,.3-.16,.45-.81,3.2-1.62,6.39-2.4,9.6-.13,.52-.33,.71-.88,.67-.67-.06-1.35-.01-2.07-.01-.9-3.58-1.8-7.13-2.69-10.68-.04,0-.08,0-.12,.01v10.62h-2.65v-14.19c.16-.01,.35-.03,.54-.04,1.05,0,2.11,.02,3.16-.01,.45-.02,.61,.15,.72,.57,.72,2.77,1.46,5.53,2.19,8.3,.05,.2,.12,.4,.18,.6,.04,0,.09,0,.13-.01Z"/>
  <path class="cls-1" d="M287.74,186.47c1.98,0,3.93-.02,5.88,0,.79,.01,1.6,.05,2.38,.18,1.5,.25,2.59,1.33,2.89,2.74,.29,1.38-.31,2.72-1.6,3.58-.06,.04-.12,.09-.18,.13,.02,.05,.03,.1,.05,.11,1.82,.75,2.67,2.07,2.47,3.82-.22,1.9-1.47,3.39-3.39,3.53-2.81,.21-5.64,.16-8.5,.23v-14.32Zm2.87,11.75c1.59,0,3.16,.07,4.72-.03,.86-.06,1.33-.81,1.34-1.71,0-.92-.48-1.68-1.35-1.77-1.55-.16-3.11-.17-4.71-.25v3.76Zm0-6.16c1.42,0,2.79,.05,4.15-.02,.85-.05,1.36-.7,1.39-1.52,.03-.76-.41-1.49-1.13-1.53-1.46-.08-2.92-.02-4.41-.02v3.1Z"/>
  <path class="cls-1" d="M327.95,195.74v-9.22h2.67v14.21c-.9,0-1.79,.02-2.67-.02-.17,0-.36-.28-.47-.46-1.68-2.7-3.35-5.41-5.03-8.11-.1-.16-.21-.32-.42-.63v9.18h-2.64v-14.22c.85,0,1.69-.02,2.51,.02,.18,0,.39,.24,.5,.43,1.7,2.76,3.39,5.52,5.09,8.28,.11,.19,.23,.37,.35,.55,.04,0,.08,0,.12-.01Z"/>
  <path class="cls-1" d="M318.59,200.74c-.94,0-1.86,.02-2.77-.02-.15,0-.36-.21-.42-.37-.33-.79-.64-1.58-.93-2.39-.12-.32-.27-.47-.63-.46-1.59,.02-3.18,.02-4.77,0-.35,0-.53,.1-.65,.45-.27,.81-.56,1.61-.88,2.4-.07,.17-.31,.37-.48,.37-.85,.04-1.71,.02-2.66,.02,.08-.23,.12-.41,.19-.59,1.71-4.39,3.42-8.77,5.12-13.16,.15-.39,.33-.56,.77-.54,.69,.04,1.39-.01,2.09,.03,.18,.01,.45,.17,.52,.33,1.85,4.57,3.67,9.14,5.5,13.71,.01,.03,0,.08,.02,.21Zm-9.09-5.71h3.84c-.65-1.75-1.27-3.41-1.94-5.22-.66,1.82-1.27,3.49-1.9,5.22Z"/>
  <path class="cls-1" d="M249.01,198.33h7.12v2.37h-9.96v-14.07h2.83v11.7Z"/>
  <path class="cls-1" d="M301.09,200.69v-14.18h2.82v14.18h-2.82Z"/>
  <path class="cls-1" d="M216.01,200.71h-1.73v-14.24c.49,0,.97-.02,1.46,.02,.1,0,.25,.23,.26,.36,.03,.41,.01,.83,.01,1.25,0,3.95,0,7.91,0,11.86v.75Z"/>
</svg>