<svg width="33" height="32" viewBox="0 0 33 32" fill="none" xmlns="http://www.w3.org/2000/svg">
<path d="M32.5214 0H0.260847V2.98421H32.5214V0Z" fill="white"/>
<path d="M14.8933 22.6904V23.7871C14.8087 25.4852 14.2749 27.1305 13.3463 28.5549C12.9381 29.249 12.3742 29.8387 11.699 30.2774C11.0239 30.7162 10.2559 30.992 9.45589 31.0831H7.18166C7.0148 31.0831 6.85476 31.0168 6.73677 30.8988C6.61878 30.7808 6.5525 30.6208 6.5525 30.4539C6.5525 26.6789 6.5525 22.9039 6.5525 19.1289V18.4478C7.96091 18.2227 9.12111 18.4478 9.94075 19.6311C10.538 20.4864 10.8491 21.5088 10.8297 22.5518C10.8297 22.5518 10.8297 22.5807 10.8297 22.5922V22.9905H11.2799V22.2286C11.2799 21.813 11.2799 21.3974 11.2799 20.9818V13.097H10.8181V13.8301C10.7546 14.2515 10.7662 14.6901 10.6738 15.1057C10.2005 17.2645 8.57853 18.3555 6.63332 17.8706C6.61091 17.8395 6.59517 17.8042 6.58713 17.7667C6.58713 14.1072 6.58713 10.4534 6.58713 6.7996C6.58713 6.66684 6.85843 6.43019 7.0085 6.42442C7.69539 6.38401 8.38228 6.42442 9.06339 6.42442C9.58513 6.4331 10.099 6.5529 10.5708 6.77586C11.0426 6.99881 11.4614 7.31979 11.7994 7.71737C13.0659 9.22643 13.7715 11.1271 13.7965 13.097C13.8312 13.5934 13.86 14.0898 13.8889 14.5862V14.644H14.3969V5.9511H0.318575V6.36091H1.79047C2.02135 6.41286 2.14257 6.58604 2.16566 6.89196C2.16566 7.08244 2.23492 7.27869 2.23492 7.46918C2.23492 15.0038 2.23492 22.5345 2.23492 30.0614C2.24904 30.2535 2.24904 30.4465 2.23492 30.6386C2.21542 30.7681 2.14977 30.8862 2.05005 30.971C1.95033 31.0559 1.82327 31.1019 1.69233 31.1004H0.203125V31.6026H15.4185V22.6904H14.8933Z" fill="white"/>
<path d="M32.0885 22.6904V23.7871C32.006 25.4847 31.4741 27.1301 30.5474 28.5549C30.1368 29.2469 29.5722 29.835 28.8975 30.2735C28.2228 30.7119 27.4561 30.989 26.6569 31.0831H24.3769C24.2946 31.0831 24.213 31.0668 24.137 31.0351C24.061 31.0034 23.992 30.957 23.9341 30.8985C23.8761 30.84 23.8303 30.7705 23.7993 30.6942C23.7683 30.6179 23.7528 30.5363 23.7535 30.4539C23.7535 26.6789 23.7535 22.9039 23.7535 19.1289V18.4478C25.1619 18.2227 26.3221 18.4478 27.1418 19.6311C27.739 20.4864 28.0501 21.5088 28.0307 22.5518C28.0279 22.5651 28.0279 22.5789 28.0307 22.5922V22.9905H28.4867V22.2286C28.4867 21.813 28.4867 21.3974 28.4867 20.9818V13.097H28.0249V13.8301C27.9614 14.2515 27.973 14.6901 27.8806 15.1057C27.4015 17.2645 25.7853 18.3555 23.8401 17.8706C23.8401 17.836 23.7882 17.8013 23.7882 17.7667C23.7882 14.1072 23.7882 10.4534 23.7882 6.7996C23.7882 6.66684 24.0595 6.43019 24.2095 6.42442C24.8906 6.38401 25.5775 6.42442 26.2644 6.42442C26.7854 6.43243 27.2987 6.55197 27.7697 6.77499C28.2406 6.99802 28.6583 7.31936 28.9947 7.71737C30.2653 9.22441 30.9733 11.1259 30.9976 13.097C30.9976 13.5934 31.0611 14.0898 31.0899 14.5862V14.644H31.5921V5.9511H17.5196V6.36091H18.9857C19.2224 6.41286 19.3436 6.58604 19.3667 6.89196C19.3667 7.08244 19.436 7.27869 19.436 7.46918C19.436 15.0038 19.436 22.5345 19.436 30.0614C19.4467 30.2537 19.4467 30.4464 19.436 30.6386C19.4102 30.7652 19.3428 30.8795 19.2444 30.9632C19.146 31.0469 19.0224 31.0952 18.8934 31.1004H17.4099V31.6026H32.6253V22.6904H32.0885Z" fill="white"/>
</svg>
