<?xml version="1.0" encoding="UTF-8"?>
<svg id="Capa_17" data-name="Capa 17" xmlns="http://www.w3.org/2000/svg" viewBox="0 0 550 250">
  <defs>
    <style>
      .cls-1 {
        fill: #fff;
      }
    </style>
  </defs>
  <path class="cls-1" d="M351.57,110.32v-5.21h23.23v5.1c-.81,0-1.62,0-2.44,0-3.21,.04-3.68,.5-3.68,3.67,0,8.35,0,16.7,0,25.04,0,.28,0,.56,0,.96,1.48,0,2.9,.03,4.32,0,1.4-.04,2.8-.09,4.18-.26,3.01-.37,4.95-2.09,5.73-4.99,.4-1.48,.58-3.01,.86-4.52,.08-.41,.13-.83,.2-1.28h5.14v16.17h-59.58v-5.21c.92,0,1.83,.02,2.73,0,2.49-.08,2.9-.65,2.17-2.99-.42-1.33-.86-2.65-1.26-3.99-.13-.45-.33-.65-.83-.64-3.45,.02-6.91,0-10.36,.03-.24,0-.64,.21-.7,.41-.58,1.73-1.15,3.46-1.61,5.21-.32,1.23,.03,1.71,1.29,1.87,1.21,.15,2.44,.13,3.74,.19v5.12h-17.43v-5.21c.7,0,1.4,.02,2.11,0,1.5-.04,2.66-.62,3.18-2.12,1.12-3.19,2.27-6.38,3.35-9.58,2.49-7.39,4.95-14.78,7.39-22.18,.21-.64,.47-.89,1.19-.88,3.4,.04,6.79,.05,10.19,0,.73-.01,.95,.26,1.15,.89,3.11,9.91,6.24,19.8,9.39,29.7,.28,.89,.66,1.76,1.06,2.6,.48,1.03,1.36,1.54,2.47,1.56,2.05,.04,4.11,.07,6.16-.02,1.86-.07,2.43-.71,2.46-2.65,.04-3.3,.02-6.61,.02-9.91,0-4.5,0-9,0-13.5,0-2.88-.4-3.28-3.31-3.36-.82-.02-1.64,0-2.51,0Zm-20.18,16.63c-1.34-4.2-2.64-8.3-3.94-12.39l-.17,.03c-1.34,4.1-2.68,8.19-4.05,12.37h8.16Z"/>
  <path class="cls-1" d="M166.95,110.34v-5.2h21.85v5.2c-.73,0-1.47-.04-2.19,0-1.95,.11-2.53,.7-2.55,2.65-.03,2.84,0,5.69,0,8.59h13.05c0-.32,0-.62,0-.93,0-2.59,.01-5.19-.02-7.78-.02-1.86-.6-2.43-2.46-2.53-.74-.04-1.47,0-2.27,0v-5.22h21.8v5.19c-.78,0-1.52-.02-2.25,0-.62,.02-1.26,.05-1.87,.17-1.26,.25-1.58,.63-1.67,1.89-.05,.71-.09,1.42-.09,2.13,0,7.09,0,14.19,0,21.28,0,.65,.03,1.31,.08,1.96,.1,1.4,.52,1.86,1.94,2.01,.93,.1,1.88,.1,2.82,.14,.33,.01,.67,0,1.05,0v5.08h-21.8v-5.22c.78,0,1.57,.05,2.35-.01,1.64-.13,2.29-.62,2.31-2.05,.07-3.55,.02-7.11,.02-10.73h-12.95c-.02,.13-.06,.26-.06,.4,0,3.25-.02,6.5,.01,9.74,.02,1.9,.41,2.33,2.32,2.57,.78,.1,1.58,.08,2.42,.12v5.17h-21.8v-5.17c.32,0,.63,0,.93,0,.86-.02,1.72,.01,2.57-.07,1.7-.17,2.26-.71,2.26-2.37,.02-8.23,.02-16.47,0-24.7,0-1.66-.63-2.22-2.4-2.31-1.1-.05-2.21,0-3.4,0Z"/>
  <path class="cls-1" d="M260.16,110.15v-5.07c.26-.02,.48-.05,.7-.05,9.25,0,18.5,0,27.74,.05,2.54,.01,5.08,.31,7.39,1.52,3.39,1.78,5.01,4.67,4.97,8.42-.05,3.76-1.98,6.32-5.46,7.71-1.13,.45-2.3,.79-3.56,1.22,.69,.19,1.26,.33,1.84,.5,3.39,.99,4.89,2.9,5.01,6.44,.08,2.28,.1,4.56,.17,6.83,.01,.42,.11,.85,.23,1.26,.17,.6,.46,1.11,1.21,1.13,.73,.02,1.37-.23,1.57-.93,.28-.97,.45-1.99,.57-3,.09-.75,.02-1.52,.02-2.34h3.95c.04,3.4,.13,6.79-2.18,9.65-.95,1.17-2.24,1.85-3.68,2.2-2.29,.55-4.59,.54-6.86-.05-3.84-1-5.92-3.58-6.08-7.57-.1-2.5-.1-5.01-.17-7.52-.01-.45-.11-.9-.19-1.35-.23-1.3-1.01-2.17-2.32-2.27-2.47-.18-4.95-.22-7.43-.27-.16,0-.47,.33-.47,.5,.01,3.59,.05,7.18,.1,10.76,.01,.81,.47,1.35,1.28,1.48,.87,.14,1.75,.21,2.63,.27,.59,.04,1.19,0,1.85,0v5.27h-22.81v-5.18c.73,0,1.44,0,2.14,0,.43,0,.86,0,1.28-.05,1.8-.17,2.33-.66,2.35-2.47,.04-6.18,.04-12.36,.04-18.55,0-2.08,0-4.16-.05-6.24-.04-1.53-.52-2.02-2.06-2.16-1.22-.11-2.44-.13-3.72-.19Zm17.08,11.38c1.95,0,3.8,.06,5.64-.02,1.18-.06,2.37-.27,3.53-.53,1.44-.32,2.28-1.33,2.67-2.72,.42-1.49,.42-2.99-.02-4.46-.52-1.72-1.69-3-3.44-3.2-2.76-.31-5.55-.28-8.38-.4v11.33Z"/>
  <path class="cls-1" d="M391.14,145.07v-5.28c.83,0,1.65,.02,2.46,0,2.92-.07,3.35-.49,3.35-3.42,0-7.58,.01-15.15,0-22.73,0-2.87-.38-3.24-3.25-3.32-.82-.02-1.65,0-2.54,0v-5.2c.24-.02,.46-.04,.68-.04,7.19,0,14.38-.03,21.57,.02,3.6,.03,7.2,.24,10.64,1.43,6.05,2.1,9.86,6.28,11.25,12.56,.96,4.35,.97,8.73-.28,13.02-2.04,6.99-6.92,10.95-13.97,12.21-2.87,.51-5.84,.68-8.76,.73-6.79,.1-13.58,.03-20.37,.03-.23,0-.45,0-.78,0Zm17.04-5.34c2.02,0,3.99,.13,5.94-.03,3.95-.32,6.59-2.36,7.73-6.26,.81-2.8,1.04-5.65,1.04-8.52,0-3.08-.19-6.14-1.27-9.08-.81-2.21-2.18-3.93-4.41-4.84-2.92-1.19-5.98-.75-9.03-.85v29.58Z"/>
  <path class="cls-1" d="M461.03,146.29c-3.94-.15-7.76-.69-11.34-2.36-6.1-2.84-9.6-7.7-10.75-14.26-.68-3.86-.68-7.73,.41-11.52,1.82-6.32,5.82-10.75,12.08-12.84,6.4-2.13,12.94-2.18,19.32,.11,7.37,2.65,11.41,8.15,12.48,15.82,.6,4.28,.36,8.55-1.3,12.6-2.69,6.59-7.76,10.31-14.63,11.68-2.06,.41-4.18,.51-6.27,.76Zm9.63-21.47c-.25-2.49-.36-5-.78-7.46-.85-4.89-3.49-7.53-7.91-7.96-3.12-.3-5.9,.49-7.85,3.17-1.06,1.47-1.74,3.12-2.05,4.92-.66,3.84-.68,7.71-.44,11.58,.15,2.42,.49,4.81,1.62,7.02,1.08,2.1,2.64,3.65,4.96,4.27,3.96,1.06,8.95,.35,11.01-5.42,.13-.37,.27-.75,.38-1.13,.82-2.94,.84-5.96,1.06-8.99Z"/>
  <path class="cls-1" d="M66.48,144.97v-5.17c.9,0,1.77,.02,2.65,0,2.67-.08,3.18-.51,3.2-3.15,.04-7.75,.04-15.5,0-23.25-.01-2.66-.37-2.97-3.01-3.14-.91-.06-1.82,0-2.8,0v-5.15h39.55v15.12h-5.14c-.26-1.25-.48-2.48-.76-3.69-.97-4.11-2.94-5.88-7.17-6.14-3.02-.19-6.05-.12-9.07-.17-.11,0-.22,.04-.37,.07v11.36c1.6,.05,3.18,.11,4.67-.59,.81-.38,1.28-1.06,1.45-1.9,.24-1.23,.4-2.47,.61-3.77h4.82v18.14h-4.88c-.12-1.11-.22-2.21-.37-3.31-.28-2.12-1.17-3.02-3.3-3.23-.95-.09-1.93-.02-2.95-.02v12.68c.07,.05,.11,.11,.16,.1,3.22-.07,6.45-.03,9.66-.23,3.56-.23,5.59-2.44,6.52-5.72,.4-1.42,.6-2.89,.88-4.34,.06-.3,.11-.61,.16-.93h5.09v16.43h-39.6Z"/>
  <path class="cls-1" d="M216.5,110.26v-5.18h39.59v15.12h-5.14c-.31-1.45-.57-2.93-.95-4.38-.76-2.85-2.48-4.78-5.51-5.27-1.12-.18-2.27-.25-3.41-.27-2.48-.04-4.95-.01-7.49-.01v11.56c1.41-.19,2.76-.29,4.08-.57,1.01-.22,1.7-.94,1.91-1.98,.26-1.27,.44-2.56,.66-3.9h4.78v18.15h-4.84c-.15-1.21-.25-2.43-.45-3.63-.3-1.84-1.11-2.62-2.97-2.86-1.04-.13-2.09-.11-3.19-.17v12.8c.06,.04,.1,.1,.15,.1,3.39-.1,6.78-.11,10.16-.35,2.82-.2,4.69-1.92,5.59-4.51,.7-2.03,1.09-4.17,1.64-6.35h4.97v16.42h-39.58v-5.18c.81,0,1.62,.02,2.44,0,2.95-.07,3.37-.42,3.39-3.3,.03-7.78,.03-15.55-.02-23.33-.01-2.41-.37-2.73-2.79-2.89-.99-.07-1.98-.01-3.02-.01Z"/>
  <path class="cls-1" d="M108.95,144.98v-5.19c.9,0,1.77,.02,2.65,0,2.69-.07,3.17-.48,3.19-3.15,.05-7.75,.05-15.5,0-23.24-.02-2.65-.46-3-3.15-3.07-.88-.02-1.76,0-2.68,0v-5.21h23.16v5.1c-.52,0-1.05-.03-1.57,0-1.02,.07-2.05,.12-3.06,.26-.82,.11-1.32,.62-1.4,1.48-.03,.37-.1,.74-.1,1.1,0,8.72,0,17.43,0,26.15,0,.19,.03,.39,.06,.68,.93,0,1.84,.03,2.74,0,1.85-.07,3.72-.05,5.55-.27,3.36-.42,5.33-2.3,6.04-5.61,.36-1.69,.61-3.41,.91-5.18h5.08v16.15h-37.42Z"/>
</svg>