<?xml version="1.0" encoding="UTF-8"?>
<svg id="Capa_16" data-name="Capa 16" xmlns="http://www.w3.org/2000/svg" viewBox="0 0 550 250">
  <defs>
    <style>
      .cls-1 {
        fill: #fff;
      }
    </style>
  </defs>
  <path class="cls-1" d="M433.68,168c-1.36-.22-2.73-.38-4.07-.68-5.21-1.16-9.8-3.58-13.94-6.91-.24-.2-.49-.39-.83-.67-.15,.42-.28,.77-.4,1.12-.53,1.51-1.05,3.02-1.6,4.51-.08,.2-.32,.49-.49,.49-2.08,.03-4.16,.02-6.3,.02v-28.22h7.09c.4,1.93,.69,3.87,1.2,5.75,1.54,5.66,4.61,10.21,9.93,13,3.6,1.89,7.49,2.58,11.51,2.7,2.79,.08,5.53-.16,8.12-1.3,3.04-1.33,5.12-3.48,5.56-6.9,.42-3.28-.7-5.95-3.38-7.93-2.08-1.54-4.47-2.44-6.94-3.07-4.46-1.12-8.96-2.11-13.42-3.22-3.65-.9-7.22-2.05-10.52-3.91-5.74-3.23-8.88-8.12-9.46-14.67-.37-4.21,.08-8.28,2.04-12.08,2.21-4.31,5.72-7.24,10.13-9.07,6.13-2.54,12.45-3.23,18.92-1.4,4.11,1.16,7.74,3.29,11.19,5.76,.23,.17,.47,.33,.77,.54,.97-1.55,1.93-3.05,2.85-4.58,.27-.45,.57-.62,1.1-.61,1.64,.03,3.28,.01,4.96,.01v26.23c-.24,.02-.48,.05-.71,.05-1.87,0-3.74-.02-5.6,.02-.59,.01-.78-.2-.9-.74-.82-3.79-2.12-7.4-4.31-10.63-3.57-5.29-8.62-7.99-14.96-8.14-2.33-.05-4.71,.14-7.01,.56-4.43,.82-6.5,3.42-6.78,7.9-.2,3.12,1.03,5.44,3.67,7.07,2.53,1.56,5.36,2.35,8.21,3.05,4.63,1.14,9.3,2.15,13.91,3.37,3.98,1.05,7.76,2.6,11.08,5.13,4.26,3.25,6.47,7.61,6.96,12.9,.02,.24,.09,.47,.14,.7v3.78c-.15,1.02-.27,2.05-.45,3.07-1.01,5.67-3.82,10.14-8.82,13.12-3.22,1.92-6.74,2.92-10.42,3.43-1.29,.18-2.6,.3-3.89,.45h-4.08Z"/>
  <path class="cls-1" d="M333.15,165.4v-7.55c.29,0,.54,0,.8,0,2.52,0,5.05,.01,7.57-.02,2.33-.03,2.98-.79,2.37-3.04-.8-2.96-1.78-5.88-2.71-8.81-.26-.82-.36-1.92-.93-2.36-.55-.41-1.63-.14-2.47-.14-6.38,0-12.76,0-19.14-.02-.63,0-.93,.15-1.13,.78-.98,3.22-2.03,6.41-3.02,9.63-.2,.66-.31,1.37-.35,2.06-.06,.86,.32,1.37,1.15,1.63,.5,.16,1.04,.25,1.57,.26,2.45,.03,4.9,.02,7.35,.03,.26,0,.52,0,.82,0v7.57h-30.93v-7.51c1.05-.07,2.11-.13,3.16-.21,3.74-.28,6.12-2.18,7.35-5.78,6.15-18,12.38-35.97,18.56-53.96,.23-.67,.53-.88,1.22-.87,4.08,.03,8.15,.03,12.23,0,.62,0,.88,.21,1.08,.77,6.46,17.97,12.93,35.93,19.42,53.88,.36,.99,.82,1.97,1.4,2.86,1.25,1.93,3.21,2.86,5.41,3,2.87,.18,5.77,.22,8.64,.05,2.44-.15,3.35-1.36,3.35-3.78,0-14.76,0-29.52,0-44.28,0-.44,0-.88-.07-1.3-.37-2.25-1.9-3.49-4.44-3.55-1.75-.04-3.49-.02-5.24-.02-.26,0-.53,0-.84,0v-7.55h35.11v7.55c-.79,0-1.58-.02-2.37,0-1.26,.03-2.53,0-3.77,.15-3.02,.39-4.45,2.05-4.45,5.08,0,13.69,0,27.39,0,41.08,0,1.06-.04,2.14,.13,3.19,.36,2.31,1.79,3.54,4.13,3.6,2.08,.05,4.17,.01,6.31,.01v7.57h-67.27Zm4.36-29.55c-2.9-8.32-5.78-16.58-8.66-24.83-.07,0-.14,.01-.21,.02-2.65,8.25-5.29,16.51-7.96,24.81h16.83Z"/>
  <path class="cls-1" d="M154.5,97.15v27.1h-7.34c-.15-1.2-.24-2.45-.46-3.68-.44-2.52-.82-5.07-1.45-7.55-1.24-4.87-4.58-7.41-9.49-7.99-1.56-.18-3.14-.29-4.71-.3-5.63-.04-11.26-.01-16.89-.01-.19,0-.38,0-.63,0,0,7.15,0,14.26,0,21.37,.04,.03,.08,.08,.12,.08,2.33-.02,4.67,.11,6.98-.11,3.59-.35,5.72-2.52,6.39-6.39,.31-1.8,.32-3.66,.46-5.49,.02-.21,0-.43,0-.7h7.33v34.29h-7.33c0-.28,.02-.59,0-.89-.18-2.31-.16-4.66-.6-6.93-.78-4.05-3.38-6.05-7.5-6.11-1.94-.03-3.87,0-5.86,0v24.04h.77c6.31,0,12.62,.02,18.93-.02,1.3,0,2.63-.11,3.9-.38,3.71-.79,6-3.26,7.43-6.64,1.24-2.95,1.8-6.07,2.17-9.23,.19-1.63,.31-3.27,.47-4.93h7.32v28.74H88.65v-7.54c.26,0,.51,0,.76,0,1.6,0,3.2,.01,4.8,0,3.42-.04,4.83-1.33,5.16-4.76,.09-.94,.14-1.89,.14-2.83,0-13.14,.01-26.27,0-39.41,0-.96-.09-1.94-.24-2.89-.26-1.65-1.3-2.64-2.91-2.93-1.09-.2-2.21-.26-3.32-.3-1.43-.05-2.86-.01-4.35-.01v-7.57h65.81Z"/>
  <path class="cls-1" d="M268.22,134.56v.94c0,6.03,0,12.07,0,18.1,0,2.77,1.3,4.14,4.11,4.22,2.21,.06,4.42,.03,6.62,.04,.14,0,.28,.01,.48,.03v7.53h-36.1v-7.55c.29,0,.55,0,.8,0,2.09,0,4.17,.01,6.26-.03,1.86-.04,3.17-.92,3.54-2.36,.13-.49,.16-1.01,.16-1.51,0-15.12,0-30.25,0-45.37,0-2.48-1.23-3.77-3.74-3.83-2.06-.06-4.12-.02-6.19-.03-.26,0-.53,0-.84,0v-7.56c.24-.02,.45-.05,.67-.05,13.2,0,26.4,0,39.6,.02,4.35,0,8.6,.66,12.61,2.46,6.89,3.08,10.63,9.03,10.45,16.56-.09,3.88-.9,7.54-3.26,10.73-2.65,3.59-6.35,5.52-10.57,6.61-2.95,.77-5.97,1.02-9.01,1.02-5,0-10,0-14.99,0-.17,0-.33,.02-.61,.03Zm.04-29.83v22.14c.23,.02,.42,.05,.6,.04,3.42-.01,6.84,0,10.26-.05,2.14-.03,4.25-.33,6.29-1.02,3.37-1.14,5.62-3.35,6.23-6.9,.28-1.6,.29-3.28,.19-4.91-.25-4.28-2.49-7.09-6.6-8.32-1.4-.42-2.89-.74-4.34-.79-3.78-.15-7.56-.13-11.35-.18-.41,0-.82,0-1.29,0Z"/>
  <path class="cls-1" d="M196.71,104.72c-1.88,0-3.65-.04-5.41,.01-1.13,.03-2.28,.09-3.39,.31-1.73,.34-2.6,1.41-2.77,3.18-.06,.58-.09,1.16-.09,1.74,0,15.66,0,31.32,0,46.98v1.03h.85c5.17,0,10.34,0,15.51,0,1.92,0,3.83-.16,5.67-.78,2.8-.95,4.63-2.92,5.79-5.57,1.13-2.58,1.66-5.31,2-8.08,.27-2.26,.42-4.53,.62-6.8,.03-.37,.06-.65,.56-.65,2.23,.02,4.46,.01,6.7,.02,.07,0,.13,.04,.24,.07v29.24h-63.28v-7.56c.27,0,.53,0,.78,0,1.7,0,3.4,0,5.1,0,.44,0,.87,0,1.31-.02,2.46-.13,3.83-1.47,4-3.92,.03-.36,.02-.73,.02-1.09,0-14.4,0-28.8,0-43.19,0-.34,0-.68-.01-1.02-.12-2.22-1.21-3.48-3.42-3.71-1.54-.16-3.1-.13-4.65-.16-1.02-.02-2.03,0-3.1,0v-7.57c.26-.02,.51-.04,.77-.04,11.79,0,23.59,0,35.38-.02,.72,0,.89,.22,.88,.9-.04,2.2-.02,4.41-.02,6.72Z"/>
  <path class="cls-1" d="M400.41,82v7.37h-34.43c11.5-2.46,22.92-4.91,34.43-7.37Z"/>
</svg>