<?xml version="1.0" encoding="UTF-8"?>
<svg id="Capa_3" data-name="Capa 3" xmlns="http://www.w3.org/2000/svg" viewBox="0 0 550 250">
  <defs>
    <style>
      .cls-1, .cls-2 {
        fill: #fff;
      }

      .cls-2 {
        fill-rule: evenodd;
      }
    </style>
  </defs>
  <path class="cls-2" d="M440.92,124.57c0-16.9,4.2-30.7,9.3-30.7s9.3,13.7,9.3,30.7-4.2,30.7-9.3,30.7-9.3-13.8-9.3-30.7Zm-21.7,0c0-20.4,13.9-37,31-37s31,16.6,31,37-13.8,37-31,37-31-16.6-31-37h0Z"/>
  <path class="cls-2" d="M111.92,90.67v9h-22.8v10.9h15.4v11.1h-15.4v30.3h21.8v9.5h-40.2V90.67h41.2Z"/>
  <path class="cls-2" d="M116.82,91.37v70.1h41.2v-9.9h-24.9v-60.1h-16.3v-.1Z"/>
  <path class="cls-2" d="M177.42,90.87h48.8v9.9h-15.5v60.7h-17.8v-61.2h-15.5v-9.4Z"/>
  <path class="cls-1" d="M249.02,90.87h-16.4v70.6h16.4V90.87Z"/>
  <path class="cls-2" d="M255.82,90.87v70.6h39.8v-9h-21.4v-31.4h16.5v-9.4h-16.5v-11.5h22.4v-9.4h-40.8v.1Z"/>
  <path class="cls-2" d="M302.52,90.87v70.6h10v-33.3l15.3,33.3h4.6l11.5-31.8v31.8h17.8l.1-71.2h-18l-12,32.9-16.4-32.3h-12.9Z"/>
  <path class="cls-2" d="M366.52,161.47h17.5v-26h15.9c4.6,0,7-2.7,10.1-6.1,4.9-5.3,5.6-10.6,5.4-17.8-.1-5.9-.7-9.9-4.4-14.4-5.1-6.2-11.4-6.9-19.5-6.9h-25v71.2Zm17.8-60.5v24.5h10c2.4-.9,4.3-2.7,5.5-5,1-1.8,1.5-3.9,1.5-5.9,.5-3.4-.2-6.8-2.1-9.6-1.2-1.8-1.7-3.6-3.9-4-.7-.2-1.4-.2-2.1,0h-8.9Z"/>
</svg>