<svg width="99" height="19" viewBox="0 0 99 19" fill="none" xmlns="http://www.w3.org/2000/svg">
<path fill-rule="evenodd" clip-rule="evenodd" d="M89.1258 9.79856C89.1258 5.75805 90.1244 2.43906 91.3481 2.43906C92.5718 2.43906 93.5762 5.73496 93.5762 9.79856C93.5762 13.8622 92.5776 17.1581 91.3481 17.1581C90.1186 17.1581 89.1258 13.8622 89.1258 9.79856ZM83.9309 9.79856C83.9309 4.898 87.2557 0.926758 91.3539 0.926758C95.4521 0.926758 98.7769 4.898 98.7769 9.79856C98.7769 14.6991 95.4579 18.6704 91.3539 18.6704C87.2499 18.6704 83.9251 14.6991 83.9251 9.79856H83.9309Z" fill="white"/>
<path fill-rule="evenodd" clip-rule="evenodd" d="M10.2551 1.68291V3.83592H4.78306V6.45648H8.4657V9.1059H4.78306V16.3615H10.0242V18.6473H0.378906V1.68291H10.2551Z" fill="white"/>
<path fill-rule="evenodd" clip-rule="evenodd" d="M11.4441 1.8503V18.6473H21.3203V16.2634H15.3577V1.8503H11.4441Z" fill="white"/>
<path fill-rule="evenodd" clip-rule="evenodd" d="M25.9611 1.71754H37.6555V4.10144H33.944V18.6473H29.6726V3.96868H25.9611V1.71754Z" fill="white"/>
<path d="M43.1275 1.71754H39.1851V18.653H43.1275V1.71754Z" fill="white"/>
<path fill-rule="evenodd" clip-rule="evenodd" d="M44.7495 1.71754V18.6473H54.2909V16.4943H49.1536V8.97314H53.1018V6.722H49.1536V3.96868H54.5275V1.71754H44.7495Z" fill="white"/>
<path fill-rule="evenodd" clip-rule="evenodd" d="M55.9475 1.71754V18.6473H58.3372V10.6644L62.014 18.6473H63.105L65.8583 11.028V18.6473H70.1297L70.1643 1.58478H65.8583L62.9722 9.46955L59.0298 1.71754H55.9475Z" fill="white"/>
<path fill-rule="evenodd" clip-rule="evenodd" d="M71.2956 18.6473H75.4978V12.4191H79.3074C80.4099 12.4191 80.9813 11.7726 81.7259 10.9645C82.9092 9.68311 83.0708 8.43057 83.0189 6.68738C82.9843 5.2732 82.8573 4.30348 81.9626 3.22408C80.7331 1.73487 79.2208 1.56746 77.2871 1.56746H71.2956V18.6473ZM75.567 4.13608V10.0006H77.9567C78.5289 9.77776 78.9992 9.35256 79.2785 8.80575C79.5217 8.36996 79.6489 7.87905 79.648 7.38003C79.7684 6.5749 79.5897 5.75355 79.1458 5.07116C78.8629 4.63248 78.7302 4.21688 78.2222 4.11298C78.0576 4.06969 77.8847 4.06969 77.7201 4.11298L75.567 4.13608Z" fill="white"/>
</svg>
