<?xml version="1.0" encoding="UTF-8"?>
<svg id="Capa_31" data-name="Capa 31" xmlns="http://www.w3.org/2000/svg" viewBox="0 0 550 250">
  <defs>
    <style>
      .cls-1 {
        fill: #fff;
      }
    </style>
  </defs>
  <path class="cls-1" d="M412.79,105.11c-.04,.29-.08,.58-.12,.87-.2,1.44-.39,2.87-.59,4.31,0,.07-.05,.14-.09,.23h-66.9c.91-6.51,1.8-12.98,2.71-19.51,.29,0,.54,0,.79,0,16.16,0,32.31,0,48.47,0,1.38,0,2.76,.01,4.13,.11,1.8,.13,3.57,.48,5.21,1.3,3.09,1.54,5.05,4.02,5.92,7.35,.18,.69,.25,1.41,.37,2.11,.02,.12,.07,.24,.1,.36v2.87Z"/>
  <path class="cls-1" d="M342,110.35H206.11c.04-.53,.07-1.03,.13-1.53,.21-1.9,.49-3.79,.96-5.64,1.19-4.68,3.96-8.13,8.17-10.44,1.04-.57,2.18-.88,3.31-1.19,.53-.15,1.06-.29,1.6-.39,.45-.08,.91-.15,1.36-.15,35.23,0,70.47,0,105.7,0,1.8,0,3.61,.06,5.37,.46,3.07,.71,5.73,2.15,7.39,4.94,1.27,2.13,2.02,4.44,2.01,6.96-.01,2.1-.04,4.19-.06,6.28,0,.22-.04,.43-.07,.7Z"/>
  <path class="cls-1" d="M200.6,158.85c.94-6.05,1.86-11.98,2.79-17.98,1.84-.03,3.67,0,5.5-.01,1.84,0,3.68,0,5.51,0h27.63c1.84,0,3.67,0,5.56,0,.3-2.56,.59-5.07,.9-7.65-.28,0-.51-.02-.74-.02-8.99,0-17.98,0-26.97,0-1.14,0-2.28,.01-3.42,.03-3.14,.04-5.89-1.01-8.39-2.87-2.08-1.56-3.15-3.68-3.63-6.16-.4-2.07-.42-4.16-.22-6.26,0-.05,.03-.1,.06-.23,.2,0,.41,0,.62,0h16.43c12.44,0,24.89,0,37.33,0,1.66,0,3.3,.18,4.93,.5,2.48,.49,4.2,1.94,5.34,4.12,.86,1.63,1.28,3.38,1.25,5.25-.05,2.63-.25,5.25-.55,7.86-.25,2.17-.51,4.34-.82,6.5-.31,2.14-.62,4.29-1.33,6.35-.78,2.25-1.85,4.33-3.63,5.96-2.34,2.14-5.05,3.59-8.18,4.2-2.33,.46-4.69,.63-7.07,.51-1.05-.06-2.09-.1-3.14-.1-14.98,0-29.96,0-44.94,0h-.83Z"/>
  <path class="cls-1" d="M142.36,117.58h59.24c.11,.46-1.62,14.88-1.77,15.7h-37.06c-.32,2.54-.64,5.01-.95,7.44,.04,.05,.05,.07,.07,.08,.01,.01,.03,.03,.04,.03,.02,0,.04,0,.05,.01,.04,0,.07,0,.11,0,.04,0,.07,0,.11,0,12.17,0,24.33,0,36.5,0,.04,0,.07,0,.11,.01,.02,0,.03,.02,.05,.03,.1,.48-1.63,14.54-2.19,17.84-.01,.01-.02,.03-.04,.04-.01,.01-.03,.03-.04,.03-.11,.02-.22,.04-.33,.04-19.61,0-39.22,0-58.83,0-.05,0-.1-.03-.22-.06,1.72-13.72,3.43-27.45,5.15-41.2Z"/>
  <path class="cls-1" d="M340.65,117.74c-.04,.44-.07,.85-.12,1.26-.26,2.17-.59,4.33-1.21,6.43-.63,2.16-1.87,3.94-3.51,5.44-1.36,1.24-3.04,1.73-4.81,2-2.2,.34-4.42,.47-6.64,.47-9.01,0-18.01,0-27.02,0h-.77c-.98,8.5-1.95,16.96-2.92,25.4-.42,.13-21.6,.17-22.46,.04,.53-4.55,1.11-9.09,1.67-13.63,.56-4.58,1.12-9.15,1.69-13.72,.56-4.55,1.12-9.11,1.69-13.69h64.43Z"/>
  <path class="cls-1" d="M205.11,91.03c-.84,6.46-1.67,12.87-2.51,19.32h-59.16c.8-6.46,1.6-12.88,2.4-19.32h59.27Z"/>
  <path class="cls-1" d="M361.31,158.83h-21.99c1.63-13.72,3.25-27.39,4.88-41.09h22.16c-1.69,13.7-3.37,27.38-5.05,41.09Z"/>
  <path class="cls-1" d="M388.8,117.93h21.95c-1.69,13.65-3.37,27.25-5.05,40.89h-21.72s-.05-.04-.06-.05c0-.01-.02-.03-.02-.05,0-.18,0-.37,.02-.55,1.62-13.4,3.25-26.79,4.88-40.24Z"/>
</svg>