<?xml version="1.0" encoding="UTF-8"?>
<svg id="Capa_29" data-name="Capa 29" xmlns="http://www.w3.org/2000/svg" viewBox="0 0 550 250">
  <defs>
    <style>
      .cls-1 {
        fill: #fff;
      }
    </style>
  </defs>
  <path class="cls-1" d="M428.4,145.71c-.05,.23-.13,.46-.13,.7-.17,5.18-2.4,9.39-6.18,12.82-2.51,2.28-5.51,3.59-8.82,4.29-2.53,.54-5.06,.81-7.66,.66-1.97-.11-3.96,.09-5.93-.07-3.92-.33-7.74-1.26-11.48-2.45-.28-.09-.59-.19-.87-.17-.56,.05-.66-.21-.66-.7,.01-5.07,0-10.14,0-15.21,0-.06,0-.12,0-.18-.03-.33,.08-.5,.45-.54,.69-.08,1.37-.22,2.05-.33,.38-.06,.58,.1,.71,.46,.46,1.31,.89,2.64,1.43,3.92,1.94,4.57,5.24,7.81,9.81,9.73,1.41,.59,2.93,.56,4.43,.48,2.08-.11,4.02-.64,5.59-2.12,2.31-2.18,3.02-4.85,2.33-7.91-.41-1.82-1.68-3.04-3.15-4.07-2.17-1.52-4.6-2.56-7.03-3.56-1.95-.81-3.95-1.51-5.85-2.41-2.23-1.06-4.19-2.56-5.87-4.38-2.66-2.89-3.76-6.35-3.68-10.25,.12-5.87,2.82-10.31,7.5-13.64,3.38-2.41,7.16-3.75,11.32-3.86,2.43-.06,4.87-.12,7.3,.04,3.83,.25,7.56,1.11,11.19,2.38,.52,.18,.73,.47,.73,1.05-.03,4.39-.02,8.78,0,13.17,0,.52-.14,.82-.66,.95-.4,.1-.79,.27-1.18,.44-.56,.24-.95,.02-1.17-.49-.31-.73-.61-1.47-.83-2.23-1.57-5.37-4.99-8.96-10.36-10.57-4.23-1.27-8.65,1.71-9.13,6.11-.12,1.06-.12,2.15,.02,3.2,.17,1.23,.87,2.26,1.83,3.07,3.18,2.72,6.81,4.63,10.8,5.88,4.66,1.45,8.37,4.23,11.17,8.21,1.16,1.65,1.58,3.54,1.83,5.49,.03,.25,.1,.5,.15,.75v1.32Z"/>
  <path class="cls-1" d="M295.94,110.63c.78-.32,1.41-.56,2.03-.83,2.71-1.2,5.54-1.87,8.51-1.93,.82-.02,1.63-.14,2.45-.19,3.52-.2,6.7,.92,9.66,2.66,6.2,3.64,9.9,9.07,11.11,16.15,.6,3.51,.81,7.06,.6,10.61-.41,6.86-2.29,13.22-6.91,18.52-4.23,4.86-9.54,7.86-15.92,8.86-3.86,.61-7.75,.54-11.65,.4-5.06-.19-9.99-1.27-14.94-2.2-.58-.11-.76-.34-.76-.94,.02-16.84,.01-33.68,.01-50.53,0-2.19,.13-4.4,0-6.58-.16-2.64-.47-5.27-.82-7.89-.17-1.25-.87-2.31-1.73-3.22-.72-.77-1.72-.96-2.68-1.22-.56-.15-1.13-.26-1.68-.4-.48-.13-.75-.44-.71-.96,0-.04,0-.08,0-.12-.08-1.47-.09-1.5,1.38-1.78,6.61-1.26,13.22-2.51,19.83-3.76,.55-.1,1.1-.18,1.64-.31,.42-.1,.67,0,.67,.46,.02,3.35,.05,6.7,.06,10.05,0,.94-.13,1.87-.13,2.81-.02,3.81,0,7.62,0,11.43v.92Zm.21,26.64s.07,0,.11,0c0,.58,0,1.16,0,1.73,.05,4.03,.1,8.06,.17,12.09,.05,2.71,.13,5.42,.2,8.13,.02,.95,.32,1.34,1.28,1.41,1.13,.08,2.28,.17,3.39,.04,1.94-.23,3.63-1.06,4.91-2.59,1.99-2.37,3.5-5.03,4.65-7.9,1.62-4.05,1.96-8.31,2.13-12.59,.12-3.13,0-6.25-.31-9.37-.44-4.32-2.16-8-5.22-11.05-1.17-1.17-2.38-2.39-4.1-2.66-2.27-.36-4.56-.47-6.82,.17-.36,.1-.38,.33-.38,.63,0,7.32,0,14.64,0,21.96Z"/>
  <path class="cls-1" d="M150.2,122.53c2.01,0,3.94-.01,5.88,0,.84,0,1.67,.07,2.51,.11,1.93,.1,3.52-.61,4.9-1.95,1.85-1.79,2.91-3.96,3.29-6.48,.09-.61,.22-1.21,.38-1.81,.04-.16,.25-.4,.39-.41,.93-.04,1.87-.02,2.84-.02v25.91c-1.09,0-2.17,.01-3.24-.02-.12,0-.29-.25-.33-.41-.23-.84-.42-1.7-.64-2.54-.68-2.59-2.08-4.72-4.32-6.18-.78-.51-1.81-.68-2.75-.87-2.8-.56-5.63-.53-8.47-.5-.36,0-.5,.12-.49,.49,.08,4.47,.1,8.94,.25,13.4,.08,2.48,.43,4.96,.58,7.44,.08,1.39-.02,2.78,.37,4.15,.63,2.19,1.81,4.02,3.58,5.47,.78,.65,1.77,.66,2.7,.85,1.11,.23,2.23,.41,3.35,.6,.41,.07,.61,.28,.72,.68,.21,.77,.23,1.54-.06,2.29-.07,.19-.38,.38-.6,.41-.39,.07-.8,.02-1.2,.02-12.46,0-24.93,0-37.39,0-.86,0-.87,0-.85-.84,.01-.52,0-1.05,.14-1.54,.09-.3,.42-.66,.72-.75,.93-.27,1.89-.51,2.86-.6,2.76-.26,4.62-1.7,5.73-4.17,.75-1.67,1.02-3.47,1.21-5.27,.78-7.61,.71-15.25,.73-22.89,0-4.13,.03-8.26-.02-12.39-.04-3.43-.1-6.86-.26-10.29-.14-3.02-.35-6.04-1.29-8.96-.92-2.87-2.79-4.71-5.78-5.26-1.07-.19-2.19-.16-3.28-.15-.53,0-.69-.16-.67-.68,.04-1.01,.01-2.02,.01-3.08h63.07v22.09c-.07,.02-.14,.07-.21,.07-1.02-.08-1.96,.16-2.91,.53-.69,.27-1.05,.09-1.34-.59-.31-.71-.59-1.44-.81-2.18-1.51-5.07-4.47-9.08-8.89-12-1.56-1.03-3.37-1.42-5.16-1.79-2.3-.47-4.62-.44-6.97-.29-2.21,.15-4.43,.09-6.65,.07-.62,0-.93,.17-.98,.8-.1,1.23-.25,2.46-.31,3.69-.1,2.33-.19,4.66-.22,7-.07,6.1-.11,12.21-.17,18.31,0,.15,.02,.31,.04,.54Z"/>
  <path class="cls-1" d="M202.73,164.89c-3.87,.07-7.65-.32-11.23-1.91-7.05-3.13-11.53-8.49-13.68-15.84-1.09-3.73-1.64-7.55-1.55-11.44,.11-4.81,.78-9.55,2.93-13.92,3.77-7.68,9.79-12.58,18.25-14.36,2.91-.61,5.85-.81,8.8-.58,13.04,1.02,21.19,9.18,23.7,20.57,.8,3.62,.77,7.32,.56,11.01-.16,2.81-.43,5.61-1.36,8.28-3.28,9.44-9.8,15.35-19.53,17.6-2.23,.52-4.58,.53-6.88,.77v-.19Zm-9.11-29.82c.14,2.89,.26,5.5,.39,8.11,.18,3.42,.83,6.75,1.93,9.99,.75,2.21,1.74,4.29,3.43,5.96,1.48,1.47,3.23,2.17,5.36,1.97,.81-.08,1.34-.58,2.01-.87,1.84-.82,3.44-2,4.22-3.88,2.19-5.31,3.16-10.88,3.1-16.62-.03-2.69-.19-5.38-.3-8.07-.11-2.85-.47-5.67-1.1-8.46-.82-3.66-2.14-7.06-4.76-9.89-2.33-2.53-6.51-2.63-8.87-.5-1.17,1.05-1.98,2.34-2.61,3.75-1.29,2.9-1.95,5.99-2.25,9.12-.31,3.21-.39,6.45-.55,9.39Z"/>
  <path class="cls-1" d="M383.53,133.59h-1.01c-10.31,0-20.61,0-30.92,0-.88,0-.87,0-.88,.89-.07,4.6,.71,9.03,2.86,13.11,2.59,4.93,6.63,8.15,12.19,8.98,4.89,.73,9.64,.11,13.83-2.86,.19-.14,.4-.28,.63-.35,.34-.1,.85-.33,1.01-.18,.44,.39,.76,.93,1.08,1.45,.06,.1-.1,.36-.21,.52-1.34,1.97-3.02,3.6-5.03,4.89-3.36,2.15-6.95,3.79-10.92,4.32-2.34,.31-4.73,.34-7.1,.31-3.27-.03-6.4-.79-9.36-2.2-8.09-3.85-13.18-10.15-14.85-18.96-1.33-6.99-.97-13.95,1.77-20.61,3.62-8.79,10.16-14.15,19.51-15.97,5.06-.99,10.01-.45,14.79,1.45,1.96,.78,3.57,2.11,5.08,3.54,4.06,3.86,6.55,8.57,7.18,14.15,.28,2.45,.24,4.93,.35,7.52Zm-24.86-4.62s0-.08,0-.12c2.39,0,4.79-.01,7.18,.01,.5,0,.63-.14,.64-.64,.07-3.06-.32-6.08-.89-9.07-.35-1.86-.83-3.69-1.79-5.35-1.68-2.92-4.74-3.54-7.32-1.38-.94,.79-1.8,1.79-2.39,2.87-2.26,4.08-3.4,8.46-3.26,13.15,.01,.44,.2,.53,.59,.53,2.41-.01,4.83,0,7.24,0Z"/>
  <path class="cls-1" d="M263.58,163.16c-.35,0-.58,0-.82,0-10.45,0-20.89,0-31.34,0-.81,0-.92-.11-.87-.93,.04-.61,.1-1.23,.12-1.84,.01-.3,.12-.39,.42-.44,.94-.15,1.89-.31,2.81-.54,2.14-.53,3.54-2.27,3.72-4.45,.19-2.38,.55-4.75,.63-7.14,.13-3.73,.1-7.46,.13-11.18,0-.9-.03-1.79-.04-2.69-.05-3.37-.02-6.74-.16-10.11-.09-1.96-.34-3.93-.73-5.85-.37-1.82-1.54-3.09-3.43-3.53-.93-.22-1.88-.36-2.82-.51-.48-.07-.73-.28-.67-.78,.01-.12,0-.24,0-.36-.01-1.43-.02-1.46,1.41-1.75,4.97-1.02,9.95-2.03,14.92-3.03,2.19-.44,4.38-.84,6.57-1.26,.89-.17,.94-.14,.94,.79,0,3.31,0,6.62,0,9.94,0,.25,.03,.49,.05,.74,.05,.01,.1,.02,.15,.03,.31-.57,.61-1.15,.92-1.72,2.27-4.24,5.55-7.38,10.07-9.11,1.11-.43,2.35-.59,3.55-.72,1.26-.13,2.54-.26,3.8,.1,1.16,.33,2.16,.9,3.05,1.7,.35,.31,.42,.6,.24,1.04-1.33,3.33-2.64,6.66-3.97,9.99-.52,1.29-1.06,2.58-1.59,3.87-.04,.11-.11,.2-.21,.39-.64-.26-1.28-.46-1.87-.77-2.29-1.19-4.72-1.83-7.29-1.86-2.43-.03-4.65,.66-6.58,2.16-.31,.24-.5,.71-.59,1.11-.12,.58-.13,1.19-.13,1.79,0,6.04-.06,12.09,.01,18.13,.03,2.85,.29,5.69,.46,8.54,.05,.81,.07,1.63,.23,2.43,.22,1.15,.89,2.06,1.7,2.89,.94,.97,2.17,1.11,3.39,1.28,1.12,.16,2.26,.26,3.39,.36,.33,.03,.41,.17,.41,.45,0,.92,0,1.83,0,2.85Z"/>
</svg>