<?xml version="1.0" encoding="UTF-8"?>
<svg id="Capa_30" data-name="Capa 30" xmlns="http://www.w3.org/2000/svg" viewBox="0 0 550 250">
  <defs>
    <style>
      .cls-1 {
        fill: #fff;
      }
    </style>
  </defs>
  <path class="cls-1" d="M276.9,124.15c0-11.83,.02-23.66-.03-35.5,0-1.46,.36-1.94,1.87-1.89,3.46,.11,6.94,.11,10.4,0,1.48-.05,1.8,.5,1.8,1.85-.05,7.55-.02,15.09-.02,22.64,0,.49-.03,.98,.03,1.46,.14,1.16,.74,1.4,1.66,.68,1.49-1.17,2.83-2.61,4.48-3.48,2.19-1.15,4.56-2.08,6.96-2.7,1.94-.5,4.07-.72,6.05-.51,7.62,.82,13.77,4.15,17.72,10.96,1.78,3.06,3.01,6.3,3.24,9.83,.25,3.87,.73,7.78,.41,11.61-.67,7.92-3.67,14.87-10.29,19.77-2.54,1.88-5.39,3.26-8.66,3.57-1.34,.13-2.68,.71-4,.64-4.74-.26-9.18-1.54-12.96-4.55-1.4-1.11-2.64-2.43-3.99-3.61-.3-.26-.73-.38-1.1-.57-.16,.38-.44,.75-.46,1.14-.07,1.51-.14,3.02-.06,4.53,.07,1.25-.29,1.71-1.62,1.68-3.27-.08-6.54-.05-9.81,.05-1.33,.04-1.65-.43-1.64-1.68,.04-11.98,.02-23.96,.02-35.93Zm27.09-6.04c-1.21,.08-2.52-.1-3.63,.28-5.47,1.88-8.15,5.84-9.09,11.09-.54,3.01-.67,6-.15,9.11,.53,3.21,1.25,6.23,3.22,8.86,2.58,3.43,6.17,5.12,10.32,5.15,2.97,.02,5.75-1.14,8.04-3.27,2.89-2.69,3.76-6.26,4.36-9.89,.64-3.92,.26-7.86-.69-11.7-1.26-5.11-5.69-10.12-12.37-9.63Z"/>
  <path class="cls-1" d="M337.93,123.48c1.03-4.03,2.41-7.72,5.17-10.75,2.11-2.32,4.61-3.92,7.67-4.79,5.19-1.47,10.49-1.6,15.77-1.2,5.07,.39,10.14,1.14,14.34,4.52,2.31,1.86,3.62,4.22,4.11,7.12,1.24,7.25,.36,14.56,.56,21.84,.11,3.99,.05,7.99,0,11.98-.03,2.81,.57,5.38,2.33,7.64,.3,.38,.34,.95,.49,1.44-.48,.14-.96,.39-1.45,.39-3.91,.03-7.81-.02-11.72,.04-1.25,.02-1.73-.55-1.94-1.67-.17-.89-.54-1.75-.77-2.64-.26-1.03-.74-.91-1.48-.44-2,1.28-3.96,2.68-6.09,3.7-1.76,.84-3.74,1.27-5.65,1.74-1.45,.36-2.97,.78-4.43,.69-4.53-.27-9.02-.88-12.75-3.84-3.57-2.83-5.63-6.39-5.78-11.08-.15-4.52,1.03-8.45,4.35-11.6,2.28-2.17,5.12-3.38,8.1-4.13,4.31-1.08,8.71-1.81,13.04-2.83,3.01-.71,5.98-1.59,8.92-2.53,.49-.16,1.04-1.02,1.08-1.58,.19-3.11-.36-6.08-3.54-7.49-3.65-1.62-7.49-1.64-11.39-.64-3.07,.78-4.62,3.02-6.08,5.48-.23,.39-.74,.86-1.12,.87-3.71,.06-7.42,.02-11.13,0-.17,0-.35-.12-.62-.23Zm33.93,17.22c0-1.55,0-2.62,0-3.69,0-1.1-.36-1.68-1.6-1.26-.96,.32-1.95,.58-2.94,.81-3.81,.9-7.65,1.66-11.42,2.69-4.34,1.18-6.28,4.57-5.16,8.82,.71,2.71,3.77,5.21,6.43,5.47,2.4,.24,4.84,.34,7.16-.77,2.59-1.23,4.97-2.6,6.3-5.33,1.13-2.31,1.31-4.73,1.23-6.74Z"/>
  <path class="cls-1" d="M213.26,134.63c-.03-8.72,3.07-16.09,9.81-21.76,2.93-2.46,6.38-3.99,10.11-4.98,3.71-.99,7.44-1.51,11.24-1.2,10.1,.82,18.11,5.18,23.3,14.08,3.22,5.53,3.78,11.62,3.09,17.79-1.14,10.19-6.63,17.45-15.89,21.75-2.37,1.1-5.07,1.54-7.65,2.14-1.65,.38-3.37,.75-5.04,.66-6.64-.35-13.06-1.75-18.55-5.69-4.48-3.23-7.62-7.53-9.07-13.01-.85-3.22-1.53-6.41-1.35-9.77Zm43.1,.22c.24-3.16-.12-6.14-1.43-9.02-3.53-7.75-11.98-10.27-18.99-6.93-4.84,2.31-7.48,6.56-7.97,11.78-.32,3.38-.06,6.9,.51,10.26,1.04,6.16,5.57,10.06,11.16,11.08,6.08,1.11,11.27-1.37,14.6-6.88,1.91-3.16,2.47-6.69,2.12-10.29Z"/>
  <path class="cls-1" d="M444.21,148.07c-2.68,6.81-7.5,11.35-14.33,13.45-3.87,1.19-7.97,2.08-12.08,1.57-5.49-.68-11.01-1.47-15.64-4.97-4-3.02-6.68-6.93-8.37-11.64-2.08-5.81-1.94-11.83-1.23-17.7,.88-7.28,4.38-13.44,10.63-17.67,3.16-2.14,6.62-3.66,10.5-3.97,2.32-.18,4.66-.6,6.96-.42,8.23,.63,15.3,3.63,20.04,10.73,1.97,2.96,3.33,6.27,3.78,9.82,.41,3.26,.53,6.56,.84,9.84,.12,1.27-.42,1.55-1.59,1.54-11.53-.03-23.05-.02-34.58-.02-2.34,0-2.71,.42-2.23,2.65,.69,3.15,1.64,6.15,4.12,8.48,2.67,2.5,5.84,3.25,9.38,3.24,3.63,0,6.37-1.43,8.36-4.44,.25-.38,.88-.72,1.34-.72,4.54-.04,9.08-.01,13.62,0,.13,0,.26,.11,.49,.23Zm-25.04-17.57h0c3.46-.01,6.92,0,10.38-.02,1.02,0,1.96-.24,1.74-1.55-.44-2.57-1-5.11-2.55-7.32-2.86-4.06-8.45-6.03-13.57-4.13-3.49,1.29-5.88,3.49-7.09,6.95-.39,1.12-.43,2.36-.75,3.52-.57,2.07-.27,2.54,1.9,2.55,3.31,.02,6.63,0,9.94,0Z"/>
  <path class="cls-1" d="M126.02,134.9c0-8.38,.03-16.76-.03-25.13-.01-1.45,.47-1.83,1.84-1.79,3.22,.08,6.45,.05,9.67,.01,1.05-.01,1.52,.32,1.48,1.42-.06,1.51-.04,3.02,.02,4.53,.02,.44,.28,.87,.43,1.31,.45-.21,1.03-.31,1.34-.66,2.4-2.62,5.13-4.77,8.45-6.1,4.13-1.66,8.32-2.28,12.8-1.46,3.23,.59,6.14,1.63,8.85,3.46,2.61,1.77,4.27,4.25,4.87,7.19,.73,3.59,1.21,7.29,1.27,10.95,.16,10.47,.03,20.94,.08,31.42,0,1.3-.41,1.67-1.68,1.65-3.61-.05-7.23-.05-10.84,.06-1.38,.04-1.74-.43-1.74-1.74,.03-10.57,.06-21.14-.04-31.71-.03-3.01-.55-6.03-2.58-8.47-2.39-2.88-7.4-3.85-11-2.54-2.5,.91-4.65,2.11-6.32,4.21-1.71,2.15-2.5,4.67-2.58,7.29-.29,10.31-.41,20.63-.59,30.95-.03,1.93-.01,1.92-1.95,1.93-3.37,.02-6.74-.02-10.11,.08-1.35,.04-1.77-.37-1.76-1.72,.05-8.38,.03-16.76,.03-25.13h.09Z"/>
  <path class="cls-1" d="M188.09,139.85c0-6.72,0-13.44,0-20.17,0-1.91-.16-2.05-2.11-2.07-1.66-.02-3.32-.07-4.98-.05-.81,0-1.15-.31-1.14-1.12,.02-2.39,.03-4.77,0-7.16-.01-.95,.4-1.29,1.32-1.28,1.9,.03,3.81-.04,5.72,.02,1.3,.04,1.87-.44,1.84-1.78-.06-2.14,.09-4.29,0-6.43-.09-2.2,.51-4.21,1.34-6.18,1.23-2.93,3.66-4.53,6.54-5.39,4.53-1.35,9.21-.45,13.83-.61,.3-.01,.9,.61,.9,.95,.07,2.82,.03,5.65,.05,8.47,0,.9-.56,.99-1.26,1.03-1.51,.09-3.02,.11-4.51,.34-2.21,.34-3.7,2.11-3.79,4.34-.05,1.17,.02,2.34-.02,3.51-.04,1.26,.58,1.75,1.79,1.73,2.34-.02,4.69,.03,7.03-.01,1.06-.02,1.5,.37,1.47,1.45-.05,2.24-.05,4.48,0,6.72,.03,1.1-.42,1.42-1.48,1.4-2.25-.04-4.49,.02-6.74,.05-1.91,.02-2.08,.17-2.08,2.11,0,12.91,0,25.82,0,38.73q0,3.3-3.36,3.3c-2.93,0-5.86-.05-8.79,.02-1.24,.03-1.58-.43-1.57-1.61,.04-6.77,.02-13.54,.02-20.31Z"/>
  <path class="cls-1" d="M106.11,110.48c4.32,2.28,8.48,2.11,12.83,.11,.1,.68,.24,1.17,.24,1.67,.01,15.91,0,31.83,.03,47.74,0,1.22-.29,1.73-1.63,1.71-3.37-.07-6.74-.04-10.1,.04-1.16,.03-1.53-.38-1.53-1.51,.02-16.16,.02-32.32,.02-48.47,0-.33,.07-.66,.14-1.28Z"/>
  <path class="cls-1" d="M112.56,107.39c-3.96,0-7.93-3.48-7.87-6.91,.07-4,3.74-7.45,7.83-7.55,3.45-.08,7.53,2.82,7.52,7.28-.01,4.06-3.33,7.37-7.48,7.18Z"/>
</svg>