<svg width="31" height="30" viewBox="0 0 31 30" fill="none" xmlns="http://www.w3.org/2000/svg">
<path fill-rule="evenodd" clip-rule="evenodd" d="M9.79443 0.09C11.394 0.0163636 11.904 0 15.9785 0C20.0531 0 20.5631 0.0177273 22.1612 0.09C23.7594 0.162273 24.8503 0.417273 25.8049 0.786818C26.8044 1.16455 27.7112 1.755 28.4612 2.51864C29.2249 3.26727 29.814 4.17273 30.1903 5.17364C30.5612 6.12818 30.8149 7.21909 30.8885 8.81455C30.9622 10.4168 30.9785 10.9268 30.9785 15C30.9785 19.0745 30.9608 19.5845 30.8885 21.1841C30.8162 22.7795 30.5612 23.8705 30.1903 24.825C29.814 25.826 29.2239 26.733 28.4612 27.4827C27.7112 28.2464 26.8044 28.8355 25.8049 29.2118C24.8503 29.5827 23.7594 29.8364 22.164 29.91C20.5631 29.9836 20.0531 30 15.9785 30C11.904 30 11.394 29.9823 9.79443 29.91C8.19897 29.8377 7.10806 29.5827 6.15352 29.2118C5.1525 28.8354 4.24554 28.2453 3.49579 27.4827C2.73267 26.7336 2.14213 25.8271 1.76533 24.8264C1.39579 23.8718 1.14215 22.7809 1.06852 21.1855C0.994879 19.5832 0.978516 19.0732 0.978516 15C0.978516 10.9255 0.996243 10.4155 1.06852 8.81727C1.14079 7.21909 1.39579 6.12818 1.76533 5.17364C2.14268 4.17284 2.73368 3.26634 3.49715 2.51727C4.24584 1.75432 5.15189 1.16379 6.15215 0.786818C7.1067 0.417273 8.19761 0.163636 9.79306 0.09H9.79443ZM22.0399 2.79C20.4581 2.71773 19.9835 2.70273 15.9785 2.70273C11.9735 2.70273 11.499 2.71773 9.91715 2.79C8.45397 2.85682 7.66033 3.10091 7.13124 3.30682C6.4317 3.57955 5.93124 3.90273 5.40624 4.42773C4.90858 4.91189 4.52558 5.50129 4.28533 6.15273C4.07942 6.68182 3.83533 7.47545 3.76852 8.93864C3.69624 10.5205 3.68124 10.995 3.68124 15C3.68124 19.005 3.69624 19.4795 3.76852 21.0614C3.83533 22.5245 4.07942 23.3182 4.28533 23.8473C4.52533 24.4977 4.90852 25.0882 5.40624 25.5723C5.89033 26.07 6.48079 26.4532 7.13124 26.6932C7.66033 26.8991 8.45397 27.1432 9.91715 27.21C11.499 27.2823 11.9722 27.2973 15.9785 27.2973C19.9849 27.2973 20.4581 27.2823 22.0399 27.21C23.5031 27.1432 24.2967 26.8991 24.8258 26.6932C25.5253 26.4205 26.0258 26.0973 26.5508 25.5723C27.0485 25.0882 27.4317 24.4977 27.6717 23.8473C27.8776 23.3182 28.1217 22.5245 28.1885 21.0614C28.2608 19.4795 28.2758 19.005 28.2758 15C28.2758 10.995 28.2608 10.5205 28.1885 8.93864C28.1217 7.47545 27.8776 6.68182 27.6717 6.15273C27.399 5.45318 27.0758 4.95273 26.5508 4.42773C26.0666 3.9301 25.4772 3.54711 24.8258 3.30682C24.2967 3.10091 23.5031 2.85682 22.0399 2.79ZM14.0626 19.6241C15.1326 20.0695 16.324 20.1296 17.4334 19.7942C18.5428 19.4587 19.5013 18.7485 20.1453 17.7849C20.7892 16.8212 21.0786 15.6639 20.964 14.5106C20.8495 13.3573 20.3381 12.2795 19.5172 11.4614C18.9938 10.9384 18.3611 10.5379 17.6644 10.2888C16.9678 10.0397 16.2246 9.94822 15.4883 10.0208C14.752 10.0935 14.041 10.3284 13.4064 10.7088C12.7719 11.0892 12.2295 11.6056 11.8185 12.2207C11.4074 12.8359 11.1379 13.5345 11.0292 14.2663C10.9206 14.9981 10.9755 15.7449 11.1902 16.453C11.4048 17.161 11.7737 17.8127 12.2704 18.361C12.7671 18.9093 13.3792 19.3407 14.0626 19.6241ZM10.5267 9.54818C11.2426 8.83224 12.0926 8.26432 13.028 7.87686C13.9634 7.48939 14.966 7.28996 15.9785 7.28996C16.991 7.28996 17.9936 7.48939 18.929 7.87686C19.8644 8.26432 20.7144 8.83224 21.4303 9.54818C22.1463 10.2641 22.7142 11.1141 23.1017 12.0495C23.4891 12.9849 23.6886 13.9875 23.6886 15C23.6886 16.0125 23.4891 17.0151 23.1017 17.9505C22.7142 18.8859 22.1463 19.7359 21.4303 20.4518C19.9844 21.8977 18.0233 22.71 15.9785 22.71C13.9337 22.71 11.9726 21.8977 10.5267 20.4518C9.08079 19.0059 8.26848 17.0448 8.26848 15C8.26848 12.9552 9.08079 10.9941 10.5267 9.54818ZM25.3985 8.43818C25.5759 8.27082 25.718 8.06957 25.8162 7.84633C25.9144 7.62309 25.9669 7.38241 25.9704 7.13854C25.974 6.89467 25.9286 6.65257 25.8369 6.42656C25.7452 6.20055 25.6091 5.99524 25.4366 5.82278C25.2642 5.65032 25.0589 5.51421 24.8329 5.42252C24.6069 5.33083 24.3648 5.28542 24.1209 5.28898C23.877 5.29253 23.6363 5.34498 23.4131 5.44322C23.1899 5.54146 22.9886 5.68349 22.8212 5.86091C22.4958 6.20595 22.3176 6.66426 22.3245 7.13854C22.3314 7.61283 22.5229 8.06574 22.8583 8.40115C23.1937 8.73656 23.6466 8.92804 24.1209 8.93495C24.5952 8.94187 25.0535 8.76367 25.3985 8.43818Z" fill="white"/>
</svg>
