<?xml version="1.0" encoding="UTF-8"?>
<svg id="Capa_14" data-name="Capa 14" xmlns="http://www.w3.org/2000/svg" viewBox="0 0 550 250">
  <defs>
    <style>
      .cls-1 {
        fill: #fff;
      }
    </style>
  </defs>
  <path class="cls-1" d="M199.7,120.81c.82,1.85,1.49,3.64,2.39,5.31,2.19,4.06,4.49,8.06,6.73,12.09,.66,1.18,1.66,1.86,2.92,2.24,.96,.29,1.42,1.27,.93,2.12-.12,.2-.56,.29-.86,.29-4.53,.02-9.06,.02-13.59,0-2.9-.01-2.2,.34-3.68-2.14-2.98-5.02-5.35-10.32-7.42-15.76-.33-.86-2.16-1.46-2.93-.93-.16,.11-.24,.42-.24,.64,.03,4.16,.02,8.32,.16,12.47,.08,2.23,.49,2.56,2.65,3.16,.06,.02,.12,.02,.18,.04,1.72,.47,1.81,.62,1.43,2.48-.23,.02-.47,.05-.7,.05-7.18,.02-14.36,.03-21.54,.04-1.33,0-1.5-.2-1.4-1.5,.05-.58,.32-.89,.87-1.02,.69-.16,1.38-.32,2.05-.53,.87-.28,1.41-.87,1.51-1.8,.1-1.01,.22-2.02,.22-3.03,.02-9.55,.02-19.11,0-28.66,0-1.23-.12-2.46-.22-3.68-.08-1.04-.66-1.7-1.65-1.99-.59-.17-1.18-.36-1.79-.45-.81-.11-1.12-.52-1.01-1.31,.04-.33,0-.66,0-1.11,.41,0,.74,0,1.07,0,7.61,0,15.22-.04,22.83,.01,4.16,.03,8.29,.36,12.24,1.92,4.93,1.96,7.13,5.81,6.77,11.45-.05,.73-.17,1.47-.31,2.19-.69,3.52-2.95,5.63-6.19,6.86-.43,.16-.86,.32-1.48,.55Zm-15.89-9.51v7.39q0,2.12,2.1,2.35c3.35,.38,5.62-.84,6.41-3.63,1.21-4.26,1.1-8.58,.11-12.86-.48-2.07-1.88-3.05-4.03-3.11-1.11-.03-2.22-.01-3.32,.03-1.09,.04-1.26,.23-1.26,1.34,0,2.83,0,5.66,0,8.49Z"/>
  <path class="cls-1" d="M404.48,142.8h-40.26c-.46-1.43-.23-1.9,1.15-2.32,2.86-.87,2.93-.96,2.93-3.99,0-11.25,0-22.49,0-33.74,0-.58-.06-1.17-.08-1.75-.03-1.16-.61-1.98-1.6-2.52-.7-.38-1.41-.77-2.14-1.09-.62-.27-.79-.68-.72-1.31,.08-.69,.55-.83,1.1-.87,3.53-.31,7.05-.62,10.58-.93,1.23-.11,2.45-.2,3.68-.32,1.45-.14,1.77,.14,1.77,1.58,0,12.91,0,25.82,0,38.73,0,1.05,.02,2.1,.02,3.14,0,2.13,.91,3.16,3.06,3.08,1.15-.04,2.32-.52,3.42-.96,.32-.13,.55-.79,.59-1.23,.09-.95,.03-1.91,.03-2.86,0-6.26-.02-12.51,.02-18.77,0-1.63-.57-2.85-1.91-3.75-.64-.43-1.29-.87-1.8-1.44-.31-.34-.46-.92-.46-1.39,0-.17,.66-.43,1.04-.48,4.83-.54,9.67-1.04,14.51-1.55,.94-.1,1.34,.23,1.33,1.17-.05,5.94-.12,11.89-.17,17.83-.03,3.57-.06,7.15-.03,10.72,.01,1.61,.39,2.01,1.95,2.48,.18,.05,.36,.09,.53,.14q1.71,.48,1.47,2.4Z"/>
  <path class="cls-1" d="M260.64,113.22c.64-.52,1.06-.87,1.48-1.21,2.33-1.89,4.84-3.38,7.9-3.72,6.19-.69,11.06,2.3,13.22,8.16,1.37,3.7,1.45,7.52,1.02,11.39-.37,3.36-1.36,6.5-3.35,9.27-2.83,3.93-6.84,5.79-11.48,6.5-2.64,.4-5.27,.41-7.89-.12-.11-.02-.24,0-.44,0-.01,.33-.04,.63-.04,.93,.02,2.43,.04,4.87,.06,7.3,.02,1.45,.29,1.82,1.69,2.24,.35,.11,.71,.18,1.07,.27,1.55,.35,1.57,.38,1.33,2.11h-20.64c-.27-1.57-.18-1.72,1.31-2.2,2.52-.82,2.59-.91,2.59-3.57,0-11.25,0-22.49,.01-33.74,0-1.76-.63-3.09-2.16-4-.58-.35-1.17-.73-1.6-1.23-.3-.35-.41-.92-.42-1.4,0-.14,.6-.39,.95-.43,4.65-.54,9.3-1.05,13.95-1.55,.95-.1,1.43,.34,1.45,1.34,.02,1.14,0,2.27,0,3.69Zm.41,13.69c0,3.39,.04,6.78-.02,10.17-.02,1.35,.53,2.29,1.67,2.84,3.29,1.61,6.65,1.4,8.01-3.08,.07-.24,.13-.47,.19-.71,.98-4.25,1.08-8.55,.65-12.85-.17-1.7-.59-3.39-1.08-5.03-.68-2.24-2.38-3.4-4.74-3.34-1.16,.03-2.32,.28-3.49,.33-1,.04-1.21,.52-1.2,1.42,.04,3.42,.02,6.84,.02,10.26Z"/>
  <path class="cls-1" d="M340.6,112.78c.55-.45,.95-.77,1.34-1.09,3.52-2.97,7.56-4.21,12.12-3.39,4.58,.82,7.43,3.86,8.88,8.03,2.21,6.38,1.84,12.75-1.22,18.82-2.29,4.55-6.28,6.82-11.12,7.89-7.23,1.59-14.12,.71-20.74-2.55-1.16-.57-1.66-1.37-1.66-2.69,.02-8.75-.01-17.5-.02-26.25,0-3.11,.03-6.22,.04-9.34,0-2.11-.74-3.69-2.86-4.47-.73-.27-1.5-.6-1.41-1.68,.05-.58,.25-.8,.82-.85,3.62-.3,7.24-.62,10.86-.94,1.23-.11,2.45-.22,3.68-.32,1.23-.1,1.65,.25,1.63,1.49-.1,5.3-.22,10.59-.33,15.89,0,.4,0,.8,0,1.45Zm10.97,14.68c-.08,0-.16-.02-.24-.03,0-.65,.02-1.29,0-1.94-.1-2.52-.22-5.04-1.27-7.41-1-2.25-2.65-3.32-5.1-3.18-1.01,.06-2.02,.22-3.03,.3-.84,.06-1.16,.47-1.16,1.32,.02,7.06,0,14.11,.05,21.17,0,.58,.38,1.34,.83,1.72,3.3,2.74,7.28,1.57,8.62-2.48,.13-.41,.29-.82,.34-1.24,.34-2.74,.65-5.49,.97-8.23Z"/>
  <path class="cls-1" d="M309.72,138.64c-1.17,.77-2.1,1.42-3.06,2.02-3.23,2.01-6.65,3.3-10.55,2.97-4.73-.4-7.48-3.24-7.64-7.97-.04-1.14-.05-2.28-.06-3.42-.03-5.42-.07-10.84-.07-16.26,0-1.28-.45-2.26-1.53-2.96-.57-.37-1.08-.84-1.67-1.16-.88-.48-1.14-1.15-.85-2.16,1.59-.17,3.2-.36,4.82-.53,3.37-.36,6.73-.73,10.1-1.05,1.56-.15,1.79,.11,1.79,1.65,0,7.18-.01,14.36,.02,21.54,0,1.07,.16,2.15,.35,3.2,.22,1.21,1.02,1.93,2.23,2.16,1.81,.34,3.56,0,5.25-.61,.22-.08,.44-.5,.44-.77,.02-6.41,.03-12.82,0-19.23,0-1.48-.69-2.65-2-3.43-.58-.34-1.21-.66-1.68-1.13-.31-.32-.48-.89-.49-1.35,0-.18,.6-.5,.95-.54,4.62-.52,9.24-1.01,13.86-1.48,1.71-.17,1.94,.08,1.94,1.79,0,8.66,.04,17.32,0,25.98,0,1.61,.54,2.66,2.11,3.12,.35,.1,.68,.29,1.02,.43,.52,.21,.77,.54,.68,1.14-.09,.6-.32,.92-.96,1.01-3.99,.59-7.97,1.21-11.95,1.82-.55,.08-1.1,.18-1.65,.22-1.08,.09-1.41-.21-1.43-1.29-.02-1.16,0-2.32,0-3.71Z"/>
  <path class="cls-1" d="M118.32,126c-.09,1.86-.17,3.68-.28,5.49-.2,3.5-.43,7.01-.63,10.51-.03,.57-.14,.89-.84,.89-12.3-.02-24.59-.02-36.89-.02-.09,0-.18-.03-.26-.04-.49-1.52-.26-1.96,1.2-2.31,.42-.1,.83-.22,1.25-.33,1.2-.32,1.79-1.15,1.86-2.35,.08-1.26,.17-2.52,.17-3.78,.01-9.03,.02-18.06,0-27.09,0-1.35-.18-2.7-.29-4.05-.09-1.05-.72-1.66-1.69-1.97-.32-.1-.65-.18-.98-.27q-1.85-.47-1.62-2.47h23.94v1.87c-.85,.19-1.72,.37-2.58,.59-1.56,.39-2.06,.96-2.21,2.54-.09,.95-.16,1.9-.16,2.86,0,9.77,0,19.54,.02,29.31,0,3.51,.71,4.26,4.2,4.33,1.4,.03,2.82-.15,4.22-.31,1.47-.18,2.63-.98,3.35-2.23,1.8-3.15,3.57-6.32,5.22-9.55,.94-1.84,.42-1.8,3.01-1.62Z"/>
  <path class="cls-1" d="M153.36,139.1c.34,1.73,.25,1.94-1.16,2.73-3.62,2.05-7.44,2.4-11.42,1.32-1.5-.41-2.62-1.33-3.28-2.77-.1-.22-.23-.43-.38-.7-.2,.15-.38,.25-.51,.4-3.39,3.79-7.63,4.33-12.24,3.03-3.69-1.04-5.62-3.42-5.86-6.86-.31-4.51,1.22-7.45,5.12-9.09,2.65-1.11,5.46-1.86,8.21-2.73,1.26-.4,2.54-.75,3.81-1.09,.6-.16,.86-.5,.84-1.13-.1-2.65-.11-5.3-.28-7.94-.15-2.35-1.36-3.34-3.7-3.26-1.27,.04-1.77,.46-1.97,1.73-.12,.76-.14,1.53-.27,2.29-.6,3.64-2.57,5.08-6.73,4.64-3.33-.36-4.96-4.16-3.14-7.12,.98-1.6,2.49-2.52,4.23-3.11,3.76-1.26,7.64-1.56,11.57-1.41,2.31,.08,4.6,.23,6.82,.99,4.19,1.43,6.08,4.01,6.09,8.41,.01,5.91,0,11.83,.05,17.74,.03,2.81,.72,3.5,3.5,3.84,.24,.03,.48,.07,.69,.1Zm-16.79-12.3c-.83,.06-1.53,.1-2.22,.18-2.19,.23-2.88,.83-3.41,2.97-.53,2.17-.51,4.33,.27,6.44,.55,1.49,1.96,2.21,3.57,1.9,1.38-.27,1.79-.89,1.79-2.74,0-2.46,0-4.93,0-7.39v-1.35Z"/>
  <path class="cls-1" d="M454.28,139.33c-.56,.71-.93,1.32-1.43,1.8-3.79,3.62-10.47,3.11-13.94,.71-2.5-1.73-3.22-4.31-3.14-7.2,.1-3.56,2.04-5.88,5.08-7.44,3.01-1.55,6.3-2.26,9.53-3.14,.86-.24,1.71-.5,2.58-.72,.59-.15,.88-.46,.85-1.1-.13-2.8-.16-5.6-.38-8.39-.21-2.77-2.7-3.34-4.61-2.63-.77,.29-.85,.99-.94,1.67-.13,.94-.2,1.9-.38,2.83-.47,2.37-1.68,3.59-4.04,3.9-1.11,.15-2.3,.12-3.38-.12-2.73-.6-3.96-4.23-2.4-6.86,.96-1.61,2.43-2.65,4.18-3.16,5.99-1.78,12.06-2.13,18.13-.55,3.28,.85,5.67,2.81,6.29,6.38,.11,.63,.13,1.29,.13,1.93,.01,4.22,0,8.44,.01,12.66,0,2.03,.06,4.06,.12,6.09,.05,1.74,.74,2.51,2.44,2.82,.21,.04,.44,.04,.63,.12,.41,.17,1.08,.31,1.14,.57,.16,.76,.17,1.53-.72,2.06-3.76,2.26-7.73,2.7-11.91,1.55-1.43-.39-2.49-1.31-3.19-2.63-.14-.27-.28-.53-.63-1.18Zm-.47-12.56c-1.1,.13-2.05,.22-2.99,.36-1.21,.18-2.02,.9-2.38,2.05-.69,2.19-.78,4.42-.14,6.64,.52,1.84,1.77,2.67,3.67,2.48,1.22-.13,1.83-.77,1.84-1.99,.02-1.11,0-2.22,0-3.33,0-2.03,0-4.05,0-6.22Z"/>
  <path class="cls-1" d="M245.11,124.25h-21.29c.14,3.41,.42,6.67,2.38,9.52,1.56,2.26,3.9,2.98,6.47,3.2,3.57,.31,6.99-.27,10.25-1.76,.22-.1,.45-.17,.68-.26,.51,1.13,.23,2.47-.74,3.35-3.94,3.6-8.52,5.63-13.92,5.32-2.16-.12-4.37-.39-6.45-.96-5.11-1.4-8.42-4.72-9.92-9.86-1.92-6.59-1.39-12.8,2.75-18.44,2.68-3.65,6.51-5.42,10.86-6.22,2.74-.5,5.45-.39,8.15,.24,5.81,1.35,8.96,5.17,10.04,10.86,.3,1.6,.47,3.22,.72,5.01Zm-12.42-3.12c.22-2.94-.14-5.67-.89-8.36-.25-.88-.94-1.43-1.81-1.71-1.96-.63-3.56,.06-4.58,2.05-1.36,2.65-1.4,5.55-1.64,8.56,3.02-.18,5.92-.36,8.92-.54Z"/>
  <path class="cls-1" d="M435.24,135.12c.35,1.43-.03,2.53-.99,3.45-3.04,2.93-6.68,4.55-10.86,5.02-3.01,.34-5.96,.09-8.84-.88-4.3-1.44-7.29-4.26-8.94-8.47-1.86-4.75-2.04-9.6-.57-14.48,1.56-5.22,5.35-8.25,10.23-10.15,5.15-1.99,10.39-2.12,15.69-.74,3.14,.82,4.96,3.11,4.85,5.92-.15,3.92-4.57,6.27-7.84,4.09-.74-.49-1.34-1.38-1.67-2.22-.49-1.25-.71-2.6-.96-3.93-.22-1.15-.62-1.58-1.81-1.71-2.3-.24-4.14,.63-5.15,2.66-.73,1.49-1.23,3.16-1.47,4.81-.59,4.02-.51,8.05,.58,12,1.19,4.31,3.84,6.43,8.29,6.71,2.48,.15,4.84-.33,7.14-1.19,.75-.28,1.49-.56,2.33-.88Z"/>
  <path class="cls-1" d="M394,105.87c-3.16,.02-5.62-1.57-6.41-4.14-1.15-3.72,1.22-7.51,5.08-7.98,1.08-.13,2.22-.07,3.28,.15,3.08,.63,5.09,3.3,4.86,6.26-.24,3.09-2.74,5.51-5.89,5.71-.31,.02-.62,0-.92,0Z"/>
  <path class="cls-1" d="M314.54,99.41c0,1.96-1.13,3.46-3.04,3.86-3.61,.76-7.23,1.46-10.85,2.18-.55,.11-1.14,.07-1.28-.56-.08-.35,.09-.89,.34-1.16,2.33-2.42,4.7-4.79,7.05-7.18,1.11-1.13,2.44-1.79,4.05-1.64,2.27,.21,3.72,2.02,3.72,4.5Z"/>
</svg>