<?xml version="1.0" encoding="UTF-8"?>
<svg id="Capa_21" data-name="Capa 21" xmlns="http://www.w3.org/2000/svg" viewBox="0 0 550 250">
  <defs>
    <style>
      .cls-1 {
        fill: #fff;
      }
    </style>
  </defs>
  <path class="cls-1" d="M434.15,145.36c-5.65,.01-11.3,.09-16.95-.03-.84-.02-1.67-.93-2.5-1.43,.74-.64,1.44-1.36,2.25-1.91,.47-.32,1.13-.37,1.63-.51,.06-.24,.11-.33,.09-.41-1.22-6.88-1.35-6.98-8.3-6.98-2.38,0-4.78,.15-7.15-.04-3.3-.27-3.04,2.37-3.53,4.21-.48,1.81,.34,3.18,2.21,3.96,.77,.32,1.3,1.19,1.94,1.81-.8,.45-1.59,1.26-2.41,1.3-2.99,.16-6,.13-9,0-.71-.03-1.39-.68-2.08-1.04,.43-.7,.79-1.47,1.31-2.1,1.31-1.6,3.2-2.92,3.97-4.73,4.02-9.37,7.8-18.83,11.54-28.31,.54-1.36,.39-2.99,.62-5.02,3.2,0,6.77-.08,10.32,.09,.53,.03,1.23,1.18,1.47,1.93,3.44,10.61,6.81,21.24,10.19,31.86,.7,2.21,1.24,4.54,4.39,4.16v3.18Zm-24.13-31.98c-.29-.06-.57-.12-.86-.18-2.24,5.53-4.49,11.06-6.84,16.86h13.08c-1.86-5.76-3.62-11.22-5.38-16.68Z"/>
  <path class="cls-1" d="M115.85,104.08c5.92,0,11.84,.02,17.75-.04,1.97-.02,2.84,.67,2.34,2.68q-4.13,1.49-4.13,6.13c0,8.55,.09,17.1-.05,25.64-.04,2.52,1.03,3.45,3.29,3.75,3.03,.4,5.68-.53,7.77-2.57,2.07-2.02,3.75-4.43,5.74-6.52,.54-.57,1.68-.96,2.45-.85,1.38,.21,1.25,1.21,.92,2.43-.88,3.22-1.45,6.52-2.32,9.73-.18,.68-1.16,1.64-1.76,1.63-10.67-.17-21.33-.46-32-.73v-3.18c4.33,.24,4.48,.1,4.48-4.14,0-8.86,0-17.71,0-26.57,0-4.2-.1-4.29-4.48-4.22v-3.18Z"/>
  <path class="cls-1" d="M340.15,142.58c.59,2.01-.13,2.84-2.16,2.83-4.95-.04-9.9,.05-14.85-.07-.8-.02-1.58-.86-2.37-1.32,.64-.62,1.19-1.63,1.92-1.78,1.57-.33,1.93-1.11,1.92-2.56-.04-10.05-.05-20.1,0-30.16,0-1.67-.54-2.37-2.24-2.49-.57-.04-1.07-.96-1.6-1.47,.48-.49,.97-1.42,1.44-1.41,9.77,.31,19.63-1.25,29.3,1.07,4.62,1.11,7.41,4.48,7.66,8.67,.28,4.61-2.65,8.58-7.18,9.76-.67,.18-1.33,.43-2.45,.79,1.28,2.46,2.46,4.75,3.67,7.03,1.37,2.56,2.85,5.07,4.16,7.66,.87,1.72,1.69,3.27,4,3.28,.37,0,1.1,1.01,1.01,1.41-.13,.59-.84,1.48-1.32,1.49-4.42,.11-8.84,.14-13.25-.03-.65-.03-1.51-1.13-1.83-1.91-1.98-4.79-3.83-9.64-5.73-14.47-.26-.66-.41-1.43-.86-1.91-.47-.5-1.29-1.05-1.87-.97-.45,.06-1.08,1.06-1.09,1.66-.1,4.14,.01,8.29-.08,12.43-.06,2.81,2.26,1.8,3.8,2.5Zm-3.78-27.67s0,0,0,0c0,2.02-.09,4.05,.05,6.07,.04,.59,.63,1.49,1.15,1.65,2.95,.89,7.26-.87,8.48-3.28,1.72-3.42,.89-9.12-1.63-11.02-2.25-1.7-4.94-1.67-7.3-.86-.69,.24-.58,2.95-.74,4.54-.1,.96-.02,1.93-.02,2.9Z"/>
  <path class="cls-1" d="M227.03,126.65c0,4.91-.07,9.48,.09,14.03,.02,.54,1.29,1.01,1.94,1.56,.62,.52,1.2,1.11,1.79,1.66-.67,.5-1.32,1.4-2,1.42-5.12,.12-10.25,.12-15.37,0-.72-.02-1.42-.87-2.13-1.34,.57-.6,1.08-1.61,1.73-1.72,1.82-.31,2.2-1.25,2.18-2.92-.06-9.17-.03-18.34-.02-27.51q0-4.21-4.02-5.04c-.6-1.78-.27-2.79,1.94-2.77,7.42,.06,14.85-.14,22.27,.13,2.92,.11,5.98,.8,8.68,1.93,4.16,1.73,6.03,5.27,5.76,9.78-.26,4.32-3.13,8.14-7.43,9.3-3.04,.82-6.23,1.11-9.37,1.45-1.83,.2-3.69,.04-6.04,.04Zm2.64-3.28c5.53-.09,8.3-2.96,8.23-8.17-.08-5.78-3.46-8.96-8.56-8.1-1.63,.28-2.44,.95-2.37,2.77,.13,3.52,.16,7.06,0,10.58-.12,2.36,.7,3.3,2.71,2.92Z"/>
  <path class="cls-1" d="M269.94,141.43c-.7-2.23-1.23-4.35-2.07-6.33-.23-.54-1.4-.95-2.15-.97-3.97-.09-7.95,.04-11.92-.08-2.29-.07-2.63,1.44-2.78,3.05-.18,1.94-.89,4.24,1.9,5.04,1.09,.32,2.64,.25,2.07,1.87-.24,.68-1.67,1.27-2.59,1.32-2.99,.16-6,.11-9-.01-.61-.03-1.44-.62-1.69-1.17-.2-.42,.19-1.55,.6-1.73,2.98-1.32,4.1-4.05,5.2-6.72,3.68-8.94,7.31-17.89,10.83-26.89,.5-1.28,.3-2.84,.45-4.7,3.17,0,6.66-.08,10.14,.08,.54,.03,1.26,1.09,1.49,1.81,3.65,11.09,7.19,22.22,10.88,33.3,.35,1.06,1.58,1.81,2.32,2.77,.47,.61,1.09,1.33,1.08,2,0,.43-1,1.23-1.56,1.24-5.3,.1-10.6,.09-15.89,0-.55,0-1.54-.81-1.52-1.21,.03-.65,.58-1.49,1.17-1.84,.79-.46,1.81-.53,3.04-.85Zm-3.53-11.31c-1.92-5.95-3.7-11.48-5.48-17.01-.26,.02-.53,.04-.79,.05-2.22,5.55-4.44,11.09-6.78,16.95h13.05Z"/>
  <path class="cls-1" d="M181.03,141.51c-.71-2.29-1.21-4.42-2.08-6.39-.26-.58-1.57-.96-2.41-.99-3.71-.1-7.43,.12-11.12-.1-3.01-.18-3.27,1.77-3.52,3.82-.27,2.18,0,4.14,2.81,4.44,.34,.04,.68,.12,1.1,.2,.72,1.99,.23,2.98-2.06,2.91-3-.08-6.01,.04-9.01-.07-.72-.03-1.41-.66-2.12-1.02,.41-.73,.76-1.51,1.25-2.19,1.51-2.09,3.54-3.95,4.54-6.25,3.56-8.22,6.83-16.57,10.1-24.92,.79-2.01,1.15-4.19,1.87-6.87,2.6,0,6.01-.12,9.39,.1,.66,.04,1.52,1.31,1.8,2.17,3.57,10.75,7.06,21.53,10.53,32.31,.49,1.52,.75,3.04,2.7,3.52,.46,.11,.99,1.23,.91,1.8-.08,.52-.94,1.3-1.47,1.31-5.39,.1-10.77,.1-16.16,0-.52,0-1.48-.92-1.43-1.31,.08-.64,.72-1.39,1.32-1.73,.74-.41,1.68-.45,3.06-.77Zm-3.64-11.4c-1.92-5.94-3.69-11.41-5.46-16.89-.28,.02-.56,.03-.84,.05-2.22,5.52-4.44,11.03-6.79,16.85h13.09Z"/>
  <path class="cls-1" d="M317.04,117.62c-3.31-5.23-5.07-10.59-11.84-10.53-.06,1.12-.14,1.97-.14,2.83,0,9.7,.03,19.4-.03,29.1-.01,1.88,.08,3.32,2.52,3.34,.46,0,1.28,.98,1.25,1.47-.03,.51-.87,1.39-1.37,1.4-5.65,.1-11.31,.1-16.97,0-.5,0-.99-.88-1.48-1.35,.52-.53,1.03-1.53,1.55-1.52,2.48,.01,2.81-1.3,2.79-3.39-.09-9.61-.03-19.22-.04-28.83,0-3.17-1.34-4.21-3.95-2.41-2.46,1.69-4.34,4.23-6.39,6.48-.68,.75-1.08,1.77-1.56,2.6-2.18-.1-2.8-1.06-2.38-2.96,.57-2.57,1.06-5.17,1.41-7.78,.21-1.62,1.07-2.01,2.51-2.01,10.69,.02,21.39-.03,32.08,.1,.78,0,2.03,1.05,2.23,1.82,.73,2.8,1.25,5.67,1.53,8.55,.08,.81-.91,1.73-1.71,3.12Z"/>
  <path class="cls-1" d="M370.66,107.87c-1.09-.27-1.95-.31-2.6-.7-.62-.37-1.03-1.09-1.53-1.66,.59-.48,1.18-1.37,1.78-1.38,4.32-.13,8.65-.08,12.98-.08,1.15,0,2.32-.13,3.43,.09,.6,.12,1.55,.9,1.5,1.28-.08,.65-.79,1.69-1.29,1.72-2.62,.16-2.78,1.74-2.76,3.81,.07,9.25,.06,18.5,0,27.75-.01,2.07,.17,3.7,2.86,3.67,.42,0,1.23,1.02,1.19,1.51-.04,.53-.87,1.41-1.36,1.42-5.65,.1-11.3,.1-16.95,0-.47,0-1.27-.97-1.28-1.5,0-.49,.83-1.43,1.31-1.43,2.44-.03,2.79-1.31,2.77-3.41-.1-9.51-.04-19.03-.04-28.55,0-.78,0-1.56,0-2.54Z"/>
</svg>