<svg width="31" height="30" viewBox="0 0 31 30" fill="none" xmlns="http://www.w3.org/2000/svg">
<path fill-rule="evenodd" clip-rule="evenodd" d="M0.978516 2.50637C0.978516 1.84164 1.24258 1.20413 1.71261 0.7341C2.18265 0.264066 2.82015 3.34134e-06 3.48488 3.34134e-06H28.4694C28.7988 -0.000534683 29.1251 0.0639073 29.4296 0.18964C29.7341 0.315372 30.0108 0.499926 30.2439 0.732734C30.4769 0.965543 30.6618 1.24204 30.7878 1.54638C30.9139 1.85073 30.9787 2.17695 30.9785 2.50637V27.4909C30.9789 27.8204 30.9143 28.1467 30.7884 28.4512C30.6625 28.7557 30.4778 29.0324 30.2449 29.2654C30.012 29.4985 29.7354 29.6833 29.431 29.8093C29.1266 29.9354 28.8003 30.0002 28.4708 30H3.48488C3.15562 30 2.8296 29.9351 2.52542 29.8091C2.22125 29.683 1.94489 29.4983 1.71213 29.2654C1.47938 29.0325 1.29479 28.7561 1.16891 28.4518C1.04303 28.1476 0.978337 27.8215 0.978516 27.4923V2.50637ZM12.8531 11.4382H16.9153V13.4782C17.5017 12.3055 19.0017 11.25 21.2558 11.25C25.5772 11.25 26.6012 13.5859 26.6012 17.8718V25.8109H22.2281V18.8482C22.2281 16.4073 21.6417 15.03 20.1526 15.03C18.0867 15.03 17.2276 16.515 17.2276 18.8482V25.8109H12.8531V11.4382ZM5.35306 25.6241H9.72761V11.25H5.35306V25.6241ZM10.3535 6.56182C10.3618 6.93637 10.2951 7.3088 10.1575 7.65725C10.0198 8.0057 9.814 8.32314 9.55201 8.59095C9.29003 8.85877 8.9772 9.07156 8.63186 9.21683C8.28653 9.3621 7.91566 9.43693 7.54102 9.43693C7.16637 9.43693 6.7955 9.3621 6.45017 9.21683C6.10484 9.07156 5.792 8.85877 5.53002 8.59095C5.26804 8.32314 5.06219 8.0057 4.92455 7.65725C4.78692 7.3088 4.72027 6.93637 4.72852 6.56182C4.74471 5.82662 5.04813 5.12699 5.57381 4.61276C6.0995 4.09852 6.80564 3.81057 7.54102 3.81057C8.27639 3.81057 8.98254 4.09852 9.50822 4.61276C10.0339 5.12699 10.3373 5.82662 10.3535 6.56182Z" fill="white"/>
</svg>
