<svg width="248" height="36" viewBox="0 0 248 36" fill="none" xmlns="http://www.w3.org/2000/svg">
<path d="M47.9462 17.8168L44.6108 16.4272C42.1344 15.3765 41.2102 14.7326 41.2102 13.23C41.2102 11.5015 42.7565 10.5356 44.83 10.5356C47.0398 10.5356 48.8941 11.5863 50.393 13.7328L54.4571 10.7446C52.6442 7.54742 49.291 5.47999 44.83 5.47999C39.3085 5.47999 35.1614 8.59808 35.1614 13.3543C35.1614 17.0599 37.7622 19.4606 42.2233 21.3529L45.3632 22.7029C48.1417 23.923 49.0718 24.5105 49.0718 26.1543C49.0718 28.0466 47.5256 29.2272 44.9248 29.2272C41.7434 29.2272 39.6699 27.6681 37.7682 25.1884L33.6626 28.1313C34.7858 30.0266 36.424 31.5982 38.4049 32.6807C40.3857 33.7633 42.636 34.3167 44.9189 34.2828C50.7484 34.2828 55.1206 31.0404 55.1206 25.9453C55.1443 22.2171 52.8457 19.8786 47.9462 17.8168Z" fill="white"/>
<path d="M71.0808 12.4731C69.9727 12.4536 68.8715 12.6431 67.8405 13.0309C66.8096 13.4187 65.8692 13.997 65.0735 14.7326V2.22633H59.1136V33.8027H65.0735V21.6523C65.0419 21.1209 65.1268 20.5891 65.3228 20.0908C65.5187 19.5925 65.8214 19.1386 66.2116 18.7581C66.6018 18.3775 67.0709 18.0787 67.589 17.8806C68.107 17.6826 68.6627 17.5897 69.2206 17.6078C71.6496 17.6078 73.2847 19.2516 73.2847 21.6523V33.7744H79.2091V20.8501C79.2091 15.7945 76.0099 12.4731 71.0808 12.4731Z" fill="white"/>
<path d="M93.0246 12.4731C91.1959 12.443 89.3844 12.8145 87.7304 13.559C86.0764 14.3034 84.6243 15.4008 83.4864 16.7661L86.579 20.2627C88.5222 18.28 90.1336 17.3988 92.3611 17.3988C95.0152 17.3988 96.4253 18.7432 96.4253 21.0591V21.9855H90.9511C85.8739 21.9855 82.6926 24.3015 82.6926 28.0466C82.6926 31.7917 85.6074 34.2602 90.2461 34.2602C91.479 34.291 92.7055 34.0826 93.8512 33.6475C94.9969 33.2125 96.0379 32.56 96.9111 31.7296V33.7518H102.385V21.3981C102.385 15.6307 98.7239 12.4731 93.0246 12.4731ZM96.4253 25.9848C96.4253 28.3855 94.4406 30.114 91.8339 30.114C89.9322 30.114 88.6999 29.2272 88.6999 27.8546C88.6999 26.4819 89.8018 25.7532 91.745 25.7532H96.4253V25.9848Z" fill="white"/>
<path d="M112.741 15.4387V12.9589H107.267V33.797H113.227V23.3751C113.227 19.7995 115.525 17.9467 119.098 17.9467H120.691V12.9363C120.061 12.7575 119.406 12.6718 118.748 12.6821C117.593 12.6753 116.451 12.92 115.41 13.3978C114.369 13.8755 113.456 14.5735 112.741 15.4387Z" fill="white"/>
<path d="M133.251 12.4731C131.742 12.4494 130.244 12.7152 128.845 13.2547C127.447 13.7941 126.176 14.5962 125.109 15.6132C124.041 16.6302 123.2 17.8414 122.633 19.1748C122.067 20.5082 121.787 21.9366 121.811 23.3751C121.681 29.3967 127.025 34.4071 133.778 34.2828C136.991 34.2779 140.095 33.1711 142.523 31.1647L140.046 27.301C138.324 28.6382 136.177 29.3808 133.956 29.4079C130.775 29.4079 128.523 27.9336 127.818 25.2844H143.139C143.399 24.2635 143.532 23.2169 143.536 22.1663C143.548 16.7209 139.3 12.4731 133.251 12.4731ZM127.818 21.2681C128.482 18.7036 130.514 17.0599 133.026 17.0599C135.633 17.0599 137.706 18.7036 137.765 21.2681H127.818Z" fill="white"/>
<path d="M169.016 2.19808H163.057V33.7744H169.016V2.19808Z" fill="white"/>
<path d="M148.287 9.52447V12.9137H145.195V17.7095H148.287V33.7518H154.247V17.7095H159.063V12.9137H154.247V10.0046C154.247 7.6491 155.527 6.76225 158.222 6.76225C158.817 6.76775 159.411 6.81115 160 6.89217V2.13595C158.94 1.82646 157.838 1.67032 156.729 1.67275C151.486 1.69535 148.287 4.30506 148.287 9.52447Z" fill="white"/>
<path d="M184.509 12.4731C178.11 12.3432 172.66 17.3988 172.808 23.3356C172.678 29.2724 178.063 34.3619 184.467 34.2376C190.871 34.3619 196.387 29.2724 196.257 23.3356C196.387 17.3988 190.942 12.3884 184.509 12.4731ZM184.509 29.0182C181.197 29.0182 178.857 26.6175 178.857 23.3695C178.857 20.1215 181.227 17.6417 184.509 17.6417C187.791 17.6417 190.16 20.1271 190.16 23.3695C190.16 26.6118 187.737 28.9956 184.509 28.9956V29.0182Z" fill="white"/>
<path d="M222.134 24.5557L216.085 12.4731H214.095L208.135 24.8099L202.969 12.9363H196.701L206.855 34.2828H208.799L215.114 22.155L221.382 34.2828H223.325L233.479 12.9363H227.211L222.134 24.5557Z" fill="white"/>
<path d="M236.53 14.0717H238.397V18.6189H239.599V14.0717H241.477V13.038H236.53V14.0717Z" fill="white"/>
<path d="M247.609 12.9363L245.133 15.9584L242.656 12.9363H242.265V18.6189H243.468V15.642L244.937 17.4044H245.328L246.803 15.642V18.6189H248V12.9363H247.609Z" fill="white"/>
<path d="M24.7346 9.89728C24.7611 9.58943 24.7173 9.27977 24.6065 8.98954C24.4956 8.69931 24.3202 8.4354 24.0922 8.21591C23.8643 7.99643 23.5892 7.82657 23.2859 7.718C22.9826 7.60944 22.6583 7.56473 22.3352 7.58696H22.2463C20.8719 7.62085 20.001 8.55854 19.9832 10.0216C19.9832 11.7162 19.9832 22.5052 19.9832 24.0812C19.9965 25.0351 19.8113 25.9821 19.4382 26.8672C19.0651 27.7524 18.5115 28.5582 17.8095 29.238C17.1076 29.9178 16.2712 30.4581 15.3487 30.8276C14.4263 31.1971 13.4361 31.3885 12.4356 31.3906H12.3882C8.34186 31.3624 5.24933 28.3403 4.86425 24.0473C4.79316 23.2734 4.81688 17.4892 4.7754 17.009C4.68061 15.8171 3.82158 15.1336 2.40566 15.1336H2.23976C1.96035 15.1244 1.68188 15.1695 1.4214 15.2664C1.16092 15.3632 0.923903 15.5097 0.724826 15.6969C0.525749 15.884 0.368824 16.108 0.263612 16.3549C0.158401 16.6019 0.107127 16.8668 0.112936 17.1333C0.0773899 19.1329 0.0773899 21.2173 0.112936 23.3469C0.112936 23.4486 0.166258 24.7026 0.189956 25.1884C0.402207 28.0488 1.7142 30.7339 3.87446 32.729C6.03471 34.7241 8.89124 35.8889 11.8965 36H12.2105C18.7273 36 24.1243 31.481 24.5331 25.6798C24.8293 21.5675 24.7879 17.3592 24.7523 13.2922C24.7464 12.1455 24.7346 11.0214 24.7346 9.89728Z" fill="white"/>
<path d="M2.47083 12.3149C2.78861 12.3151 3.10321 12.2543 3.39586 12.1362C3.6885 12.0181 3.95324 11.845 4.17433 11.6274C4.39542 11.4097 4.56831 11.1519 4.68277 10.8693C4.79723 10.5866 4.8509 10.2849 4.84057 9.98201C4.85272 9.68007 4.80009 9.37895 4.68592 9.09708C4.57174 8.81522 4.39843 8.55854 4.17657 8.34278C3.95472 8.12702 3.68901 7.95671 3.39571 7.84229C3.10241 7.72786 2.78768 7.67173 2.47083 7.67734C2.13914 7.67642 1.8107 7.73951 1.50526 7.86279C1.19982 7.98608 0.923697 8.16702 0.693518 8.39472C0.468443 8.61168 0.291176 8.86938 0.172135 9.15265C0.0530947 9.43592 -0.00530256 9.73903 0.000377989 10.0441C0.0319745 10.6513 0.305053 11.2241 0.764029 11.646C1.223 12.0678 1.83336 12.3071 2.47083 12.3149Z" fill="white"/>
<path d="M22.424 0.000732167H22.3707C21.7302 0.0210409 21.1237 0.280746 20.6823 0.723767C20.2386 1.16158 19.992 1.74743 19.9951 2.35625C20.0295 2.9604 20.303 3.5296 20.7605 3.94896C21.2179 4.36832 21.8251 4.60661 22.4596 4.61573C22.7764 4.61746 23.0903 4.55719 23.3817 4.43866C23.6732 4.32012 23.936 4.14584 24.1539 3.92659C24.3877 3.69782 24.5702 3.42612 24.6904 3.12801C24.8105 2.82989 24.8659 2.51158 24.8531 2.19244C24.8345 1.59511 24.5684 1.02912 24.1132 0.618367C23.658 0.207609 23.0506 -0.0144709 22.424 0.000732167Z" fill="white"/>
<path d="M12.1394 8.35518H12.2697C12.865 8.35585 13.4378 8.13795 13.8691 7.74668C14.3004 7.35542 14.5572 6.82083 14.5861 6.25386C14.6065 5.95784 14.5645 5.66093 14.4628 5.38058C14.361 5.10024 14.2016 4.84211 13.9937 4.62138C13.7882 4.41123 13.541 4.24209 13.2664 4.12379C12.9918 4.00549 12.6953 3.94038 12.3941 3.93224H12.2638C11.9687 3.92167 11.6743 3.96686 11.3976 4.06521C11.1209 4.16355 10.8673 4.3131 10.6515 4.50525C10.4356 4.69741 10.2617 4.92837 10.1399 5.18484C10.018 5.44132 9.95057 5.71824 9.9414 5.99967C9.91358 6.58797 10.1277 7.16338 10.5383 7.60335C10.9488 8.04332 11.5233 8.31309 12.1394 8.35518Z" fill="white"/>
<path d="M9.9296 16.9695V24.1942C9.89543 24.4732 9.92029 24.756 10.0027 25.0257C10.0851 25.2954 10.2235 25.5467 10.4095 25.7645C10.6775 26.021 10.9974 26.2229 11.3498 26.3578C11.7022 26.4928 12.0796 26.5581 12.4593 26.5497C12.7353 26.5654 13.0118 26.5263 13.2711 26.4349C13.5304 26.3434 13.767 26.2016 13.9658 26.0183C14.1647 25.8351 14.3214 25.6145 14.4262 25.3705C14.5309 25.1265 14.5813 24.8645 14.5743 24.6009C14.5743 22.9402 14.6276 14.1564 14.5743 13.6028C14.4617 12.716 13.739 11.767 12.0446 11.767C11.7653 11.7493 11.4852 11.7879 11.2227 11.8804C10.9601 11.9728 10.7209 12.1171 10.5208 12.3036C10.3206 12.4902 10.164 12.7149 10.0611 12.9631C9.95823 13.2113 9.91139 13.4774 9.92367 13.7441V16.9977L9.9296 16.9695Z" fill="white"/>
</svg>
