<?xml version="1.0" encoding="UTF-8"?>
<svg id="Capa_6" data-name="Capa 6" xmlns="http://www.w3.org/2000/svg" viewBox="0 0 550 250">
  <defs>
    <style>
      .cls-1 {
        fill: #fff;
      }
    </style>
  </defs>
  <path class="cls-1" d="M448.92,152.57h11.4c.3-8.5,.6-16.9,1-25.3,.3,.6,.4,1.2,.5,1.9,1.3,7.4,2.7,14.6,3.9,21.9,.2,1.1,.6,1.6,1.7,1.5,1.3-.1,2.7-.1,4,0,1.1,0,1.6-.4,1.8-1.5,.7-3.9,1.6-7.9,2.5-11.8s1.6-7.8,2.5-11.7h.2v23.3c0,1.2,.3,1.7,1.6,1.7h9.9c1.2,0,1.6-.4,1.5-1.6,0-3.3-.2-6.6-.2-9.9-.2-12.6-.4-25.2-.5-37.7v-8.4h-11.5c-1.3,0-1.7,.4-2,1.6-2,7.6-4.2,15.2-6.3,22.8-.2,.6-.4,1.2-.7,2.2l-.6-2.2c-1.8-7.6-3.5-15.2-5.4-22.8,0-.6-.6-1.5-1-1.5h-11.8c-.3,5.6-.6,11-.9,16.4-.4,7.6-.8,15.2-1.2,22.7-.3,5.6-.6,11.3-.8,16.9-.5,.7,0,1.5,.4,1.5Z"/>
  <path class="cls-1" d="M62.82,152.87h9.6c.9,0,1.3-.4,1.3-1.3,0-3.1,.2-6.1,.3-9.2,.2-4.7,.4-9.3,.6-14,.1,.1,.2,.2,.3,.3,.1,.1,.1,.3,.1,.4,1.3,7.4,2.7,14.8,3.9,22.2,.2,1.1,.6,1.6,1.7,1.6h4.6c.2-.1,.4-.2,.5-.3,.2-.1,.3-.3,.4-.5s.1-.4,.2-.6c.3-1.9,.7-3.7,1.1-5.6l3.4-17.2h.3v22.1c0,1.7,.6,2.2,2.2,2.2,2.9-.1,5.8,0,8.7,0,1.4,0,1.8-.4,1.8-1.8-.2-9.9-.4-19.5-.5-29.3,0-8.3-.3-16.5-.4-24.8,0-1.4-.4-1.8-1.8-1.8h-9.9c-.2,.1-.4,.2-.6,.3-.2,.1-.3,.3-.5,.5-.1,.2-.2,.4-.2,.7-.7,2.8-1.5,5.5-2.2,8.3-1.5,5.5-3,11-4.5,16.4h-.3c-.1-.6-.3-1.2-.4-1.8-1.8-7.6-3.5-15.2-5.2-22.8-.2-1.2-.7-1.6-1.9-1.6h-9.1c-1.2,0-1.7,.4-1.7,1.6-.2,5.5-.6,11.1-.9,16.6-.4,7.6-.8,15.3-1.2,22.9-.3,4.9-.5,10.1-.8,15.1-.3,.9-.1,1.5,1.1,1.4Z"/>
  <path class="cls-1" d="M443.72,113.37c0-2.5,0-4.7-.3-7-.2-2.6-1.1-5-2.8-6.9s-3.9-3.3-6.4-3.9c-3.7-1-7.6-1.2-11.4-.6-2.4,.3-4.7,1.3-6.6,3-1.8,1.7-3.1,3.8-3.6,6.2-.4,1.6-.7,3.3-.7,4.9v30.7c-.1,2.9,.8,5.7,2.6,7.9,1.8,2.2,4.4,3.8,7.2,4.2,3.9,1,7.9,1.1,11.8,.4,2.5-.3,4.8-1.5,6.6-3.3s2.9-4.1,3.3-6.6c.4-2.3,.6-4.5,.6-6.8-.3-7.3-.3-14.8-.3-22.2Zm-13.5,25c0,1.2-.3,2.4-.7,3.6-.3,.7-1.3,1.5-1.9,1.5-.4-.1-.8-.3-1.2-.6-.3-.3-.6-.6-.8-1-.5-2-.7-4.1-.8-6.1v-25.1c.1-1.7,.4-3.3,1-4.9,.2-.4,.5-.7,.8-.9,.3-.2,.7-.4,1.2-.4,.4,.1,.7,.3,1,.5,.3,.3,.5,.6,.7,.9,.5,2,.8,4,.9,6.1,.2,8.7,0,17.5-.2,26.4Z"/>
  <path class="cls-1" d="M127.72,152.97h7.4c1.4,0,2-.4,1.9-1.9v-17c.3,.3,.5,.6,.6,1.1,1.6,5.3,3.2,10.7,4.7,16.1,.3,1.2,.9,1.8,2.2,1.7h5.9c1.5,0,2-.5,2-2v-53.7c0-1.6-.5-2.1-2.1-2s-3.9,0-5.9,0c-3.9,0-3.4-.5-3.4,3.3v14.5h-.2l-.4-1.1c-1.5-5.1-3-10.1-4.5-15.2-.3-1.2-.9-1.7-2.1-1.6h-6.4c-1.4,0-1.9,.4-1.8,1.8v53.8c0,1.7,.5,2.2,2.1,2.2Z"/>
  <path class="cls-1" d="M165.52,152.07c3.3,1,6.8,1.1,10.1,.5,2.6-.3,5-1.4,6.8-3.3s3-4.3,3.2-6.9c.3-1.6,.5-3.3,.5-4.9v-40.7c0-1.2-.5-1.5-1.6-1.5h-8.7c-2.9,0-2.7,0-2.7,2.5v38.7c0,1.8-.2,3.6-.4,5.3,0,.6-.8,1.1-1.2,1.6-.5-.5-1.3-.9-1.4-1.5-.4-1.9-.6-3.8-.7-5.8v-39.2c0-1.4-.3-1.8-1.8-1.8h-9.2c-1.3,0-1.7,.4-1.7,1.6,0,14.8,0,29.6,.1,44.3,0,2.5,.8,5,2.3,7,1.8,2,4,3.5,6.4,4.1Z"/>
  <path class="cls-1" d="M251.32,111.07c0-1,0-2-.1-3,0-2.6-.8-5.1-2.3-7.2s-3.6-3.6-6-4.4c-3.8-1.1-7.7-1.4-11.6-.8-2.4,.2-4.8,1.3-6.6,2.9-1.8,1.7-3,3.9-3.5,6.3-.4,1.3-.6,2.7-.6,4.1,0,10.5-.2,21,0,31.5-.1,3,.9,5.9,2.8,8.1,2,2.2,4.7,3.6,7.6,3.9,3.3,.4,6.6,.4,9.9,0,2.1-.2,4.1-.9,5.8-2.3,1.6-1.3,2.9-3.1,3.5-5.1,.6-1.6,.9-3.2,1-4.9,.1-5.3,0-10.5,0-15.8h.1v-13.3Zm-12.7,25.8c-.1,1.7-.3,3.3-.6,4.9-.2,1.2-.8,2.3-2.3,2.2-1.5-.1-2-1.2-2.2-2.5-.3-1.1-.4-2.3-.5-3.5v-27.3c0-1.4,.3-2.8,.8-4.2,.2-.4,.5-.8,.9-1.1,.4-.3,.8-.5,1.3-.6,.4,.1,.9,.4,1.2,.7,.3,.3,.6,.7,.7,1.2,.4,1.8,.7,3.6,.7,5.4v12c0,4.1,.1,8.6,0,12.8Z"/>
  <path class="cls-1" d="M267.82,161.27H62.32c-1.9,0-1.8,0-1.9,3.6,0,1.4,0,2.5,1.9,2.2,1.4-.1,2.8-.1,4.2,0h208.6c-1.1-1.1-2.1-2.3-3-3.6-.4-.8-1.1-1.4-1.8-1.8-.8-.4-1.6-.6-2.5-.4Z"/>
  <path class="cls-1" d="M378.12,138.07c1.2-.2,2.4-.2,3.5,.1,1.2,.3,2.2,.9,3.1,1.6,.9,.8,1.6,1.7,2.1,2.8,.5,1.1,.7,2.3,.7,3.5-.3,1.9-.7,3.8-1.4,5.7,.1,.1,.3,.1,.5,.2,4,1,8.1,1,12.1-.1,2.3-.6,4.4-1.9,5.9-3.8,1.5-1.8,2.5-4.1,2.7-6.5,.2-2.5,.2-4.9,.3-7.2,0-1.4-.5-1.7-1.7-1.7h-9.4c-1.3,0-1.7,.4-1.7,1.7-.1,2.5-.4,4.9-.9,7.4-.1,.4-.4,.7-.7,1-.3,.3-.7,.5-1.1,.6-.4,0-1.3-.9-1.5-1.6-.4-1.2-.6-2.4-.6-3.6v-28.2c0-1.5,.2-2.9,.5-4.3,.2-1,.5-2,1.8-2s1.7,1.1,1.8,2c.3,2,.5,4.1,.6,6.2,0,.9,.2,1.4,1.2,1.4h10.6c.3-.1,.5-.2,.7-.4,.2-.2,.3-.4,.4-.7,.1-2.2,.1-4.5,0-6.7-.2-2.6-1.3-5.1-3-7-1.8-1.9-4.2-3.2-6.8-3.5-3.9-.7-7.8-.6-11.7,.2-1.6,.3-3.2,1-4.5,2s-2.3,2.3-3,3.8c-1,2-1.6,4.2-1.8,6.4-.3,9.9-.2,19.7-.3,29.6,.1,.9,.4,1.4,1.6,1.1Z"/>
  <path class="cls-1" d="M191.12,105.57h4.2c1.4,0,2,.4,2,2v43.8c0,1.4,.4,1.8,1.8,1.8h8.5c1.5,0,1.9-.4,1.9-1.9v-43.4q0-2.2,2.2-2.2h3.7c1.2,0,1.5-.3,1.5-1.4v-6.9c0-1.1-.3-1.5-1.5-1.5h-24.4c-.9,0-1.3,.3-1.3,1.2v7.2c.1,.9,.5,1.3,1.4,1.3Z"/>
  <path class="cls-1" d="M489.52,161.27h-128.9c-.5,0-.9,.2-1.3,.6-1.5,1.6-2.9,3.3-4.6,5.1h132.4c4,0,3.9,0,4-4,.2-1.2-.2-1.8-1.6-1.7Z"/>
  <path class="cls-1" d="M108.32,151.17c0,1.3,.4,1.8,1.7,1.8h8.9c1.5,0,2-.4,2-2v-53.9c0-1.5-.4-2-1.9-1.9h-8.9c-1.4,0-1.8,.4-1.8,1.8,0,18,0,36.1,0,54.2Z"/>
  <path class="cls-1" d="M369.32,119.27c-.5-7.3-2.5-14.4-5.8-20.8-3.3-6.5-7.9-12.2-13.5-16.9-5.6-4.7-12.1-8.1-19.1-10.2s-14.3-2.8-21.6-2c-12.7,1.2-24.5,7.1-33.2,16.5-9.9,10.5-15.6,22.8-14.6,37.7,0,4.1,.3,8.2,.9,12.3,3,13.4,11,25.2,22.4,32.9,11.4,7.7,25.2,10.9,38.8,8.7,13.6-2.1,25.9-9.3,34.3-20.1,8.6-10.8,12.6-24.4,11.4-38.1h0Zm-1.9,7.5c-.7,10.3-4.5,20.1-10.8,28.3-6.3,8.2-14.9,14.3-24.6,17.6-9.8,3.3-20.3,3.7-30.3,1s-18.9-8.2-25.8-15.9c-6.8-7.7-11.2-17.3-12.6-27.5-1.4-10.2,.2-20.6,4.7-29.9s11.6-17,20.5-22.3c8.9-5.2,19.1-7.8,29.4-7.2,6.9,.4,13.7,2.1,20,5.1s11.8,7.3,16.4,12.5,8.1,11.3,10.4,17.8c2.3,6.6,3.2,13.6,2.7,20.5Z"/>
  <path class="cls-1" d="M379.02,152.37c.9,.1,1.7,0,2.6-.3,.8-.3,1.6-.7,2.2-1.3,.6-.6,1.1-1.3,1.5-2.1,.3-.8,.5-1.7,.4-2.5,0-.9-.2-1.7-.5-2.5s-.8-1.5-1.4-2.1-1.4-1.1-2.2-1.4c-.8-.3-1.7-.5-2.5-.5-.9,0-1.7,.2-2.5,.5s-1.5,.8-2.1,1.4-1.1,1.3-1.4,2.1c-.3,.8-.5,1.6-.5,2.5s.1,1.7,.4,2.5,.8,1.5,1.4,2.1,1.3,1.1,2.1,1.4c.8,.1,1.7,.2,2.5,.2Z"/>
  <path class="cls-1" d="M357.12,124.37h-.2l-.3-.3c-.1-.1-.1-.3-.1-.4s0-.3,.1-.4l.3-.3h.2c1.2-.1,2.5-.1,3.7,0,1.4,0,1.7-.5,1.6-1.8-.2-1.7-.3-3.4-.6-5.2-1.7-10.7-6.9-20.5-14.9-27.7-8-7.3-18.2-11.6-29-12.3-1.3,0-1.9,.2-1.8,1.6,.1,1.3,.1,2.6,0,3.8,0,.2-.1,.3-.2,.5-.1,.1-.3,.2-.4,.2-.2,0-.3,0-.5-.1s-.3-.2-.3-.4l-.1-.3c-.1-.4-.1-.8,0-1.2,0-5.4,.8-4.7-4.6-4-11.1,1.4-21.3,6.6-28.9,14.8-7.6,8.2-12.1,18.7-12.8,29.9,0,1.3,.3,2,1.7,1.8,1.1-.1,2.1-.1,3.2,0,.2,0,.3,.1,.4,.2s.2,.3,.2,.4c0,.2,0,.3-.1,.5s-.2,.3-.4,.4h-.3c-.8,.1-1.6,.1-2.5,0-.3,0-.6,.1-.9,.2s-.6,.3-.8,.5c-.2,.2-.4,.5-.5,.8s-.1,.6-.1,.9c.5,8,3,15.7,7.4,22.4,4.3,6.7,10.3,12.2,17.3,16,6,3.4,12.8,5.4,19.7,5.8,1.4,0,2.1-.3,1.9-1.8-.1-1.2-.1-2.4,0-3.7,0-.2,.1-.4,.3-.5,.1-.1,.3-.2,.5-.2s.4,.1,.5,.2,.2,.3,.3,.5v.2c.1,1.3,.1,2.6,0,3.8,0,1.3,.5,1.7,1.7,1.6,1.7-.2,3.4-.2,4.9-.5,18.9-3.7,31.3-14.8,37.5-33,1.4-4.2,2.1-8.6,2-13.1-1.8,.3-3.4,.3-5.1,.2Zm-47.8,22.2c-1.8,2.5-4.3,4.4-7.1,5.3-2.9,1-6,1.1-8.9,.2s-5.5-2.6-7.4-5-3-5.3-3.1-8.4v-5.8h8.4v2.1c0,5.3,2.5,9.7,5.5,9.7,.5,0,1-.2,1.5-.4,.5-.2,.9-.6,1.3-1,1.8-2.4,2.8-5.4,2.8-8.4s-1-6-2.8-8.4c-.4-.4-.8-.7-1.2-.9-.5-.2-1-.3-1.5-.4h-4.4v-7.4h4.4c2.8,0,5-3.4,5-7.7s-2.3-7.7-5-7.7-5,3.4-5,7.7v1.5h-8.6c-.1-.7-.1-1.4-.1-2-.1-1.9,.2-3.8,.9-5.6,.7-1.8,1.7-3.4,3-4.8s2.9-2.5,4.7-3.2c1.8-.8,3.7-1.1,5.6-1.1s3.8,.4,5.6,1.1c1.8,.8,3.4,1.9,4.7,3.2s2.4,3,3,4.8c.7,1.8,1,3.7,.9,5.6,0,2.3-.5,4.5-1.4,6.5s-2.4,3.8-4.2,5.3c3.8,.5,6.8,6.4,6.8,13.6,0,4.3-1.2,8.2-3.4,11.6h0Zm38.5-8.8c.2,3.8-1,7.5-3.5,10.3s-6,4.6-9.8,4.8c-3.8,.2-7.5-1-10.3-3.5s-4.6-6-4.8-9.8v-29.4c-.1-1.9,.2-3.9,.9-5.7,.7-1.8,1.7-3.5,3.1-4.8,1.3-1.4,2.9-2.5,4.7-3.3,1.8-.8,3.7-1.1,5.6-1.1s3.8,.4,5.6,1.1c1.8,.8,3.4,1.9,4.7,3.3,1.3,1.4,2.4,3,3.1,4.8s1,3.7,.9,5.7l-.2,27.6Zm-14.3-34.5c-1.2,0-2.4,.5-3.3,1.4s-1.4,2.1-1.4,3.3v33.5c.1,1.2,.6,2.3,1.5,3.1,.9,.8,2,1.3,3.2,1.3s2.3-.4,3.2-1.3c.9-.8,1.4-1.9,1.5-3.1v-33.6c0-1.2-.5-2.4-1.4-3.3-.9-.8-2.1-1.3-3.3-1.3h0Z"/>
</svg>