<svg width="101" height="26" viewBox="0 0 101 26" fill="none" xmlns="http://www.w3.org/2000/svg">
<path d="M91.0154 19.9647C91.887 19.9647 92.747 19.9647 93.6879 19.9647C93.7629 17.9617 93.838 15.9992 93.913 14.0424C93.972 14.1853 94.0146 14.3344 94.04 14.4869C94.3517 16.2186 94.6634 17.9098 94.9578 19.6241C95.004 19.8839 95.1021 19.9878 95.3618 19.9705C95.6771 19.9532 95.9931 19.9532 96.3085 19.9705C96.5682 19.9705 96.6779 19.8839 96.7298 19.6299C96.8972 18.7063 97.0935 17.7828 97.307 16.8593C97.5206 15.9357 97.6765 15.0295 97.8843 14.1117H97.9362V14.5446C97.9362 16.2243 97.9362 17.8983 97.9362 19.5722C97.9362 19.855 97.9997 19.9762 98.3056 19.9647C99.0618 19.9647 99.8237 19.9647 100.614 19.9647C100.892 19.9647 100.978 19.8665 100.972 19.601C100.972 18.8276 100.932 18.0541 100.92 17.2922C100.874 14.3407 100.834 11.3949 100.799 8.45499C100.799 7.81428 100.799 7.17936 100.799 6.4867C99.8352 6.4867 98.9752 6.4867 98.1151 6.4867C97.8208 6.4867 97.7111 6.58481 97.6361 6.86187C97.157 8.64547 96.6548 10.4175 96.1584 12.1953C96.118 12.3396 96.0718 12.484 95.9968 12.7206L95.864 12.2011C95.4426 10.4175 95.0328 8.63392 94.5999 6.85609C94.5999 6.72334 94.4498 6.51556 94.369 6.51556C93.457 6.51556 92.545 6.51556 91.5926 6.51556C91.5176 7.82584 91.4483 9.0957 91.3733 10.3598C91.2771 12.1376 91.1809 13.9135 91.0847 15.6875C91.0096 17.0093 90.9404 18.3312 90.8884 19.653C90.8076 19.7569 90.9404 19.9647 91.0154 19.9647Z" fill="white"/>
<path d="M0.548355 20.034H2.78795C3.00152 20.034 3.08233 19.9358 3.0881 19.7223C3.0881 19.0008 3.13428 18.285 3.16314 17.5635C3.20355 16.4668 3.24972 15.3758 3.2959 14.2791C3.32332 14.2997 3.3462 14.3256 3.36308 14.3554C3.37997 14.3852 3.39051 14.4182 3.39403 14.4523C3.70573 16.1839 4.01742 17.9156 4.31757 19.6472C4.35798 19.907 4.45033 20.0224 4.71585 20.0109C4.98137 19.9993 5.34502 20.0109 5.65671 20.0109C5.70493 20.0182 5.75415 20.0153 5.80115 20.0023C5.84816 19.9893 5.89189 19.9665 5.92949 19.9355C5.96709 19.9044 5.99771 19.8658 6.01933 19.8221C6.04096 19.7784 6.05311 19.7306 6.05499 19.6819C6.13003 19.2432 6.21661 18.8045 6.3032 18.3716L7.09975 14.3311H7.17479V14.7005C7.17479 16.2994 7.17479 17.8983 7.17479 19.4971C7.17479 19.907 7.30755 20.0166 7.69429 20.0051C8.3754 19.9762 9.05651 20.0051 9.73763 20.0051C10.0609 20.0051 10.1648 19.9128 10.159 19.578C10.107 17.2691 10.0724 15.0006 10.032 12.7091C10.032 10.7696 9.96274 8.83596 9.94543 6.89652C9.94543 6.5675 9.84153 6.46362 9.51829 6.47516C8.79869 6.47516 8.07717 6.47516 7.35373 6.47516C7.3004 6.46531 7.2456 6.46661 7.1928 6.479C7.14 6.49139 7.09034 6.5146 7.04695 6.54714C7.00356 6.57968 6.96739 6.62086 6.94071 6.66808C6.91404 6.7153 6.89743 6.76752 6.89196 6.82148C6.73034 7.47373 6.54563 8.11446 6.37246 8.75517C6.02036 10.0424 5.67403 11.3238 5.32193 12.6052H5.24112C5.20649 12.4667 5.16608 12.3281 5.13722 12.1896C4.72163 10.406 4.30603 8.62241 3.90775 6.83881C3.85003 6.56752 3.73459 6.46939 3.46329 6.47516C2.75332 6.47516 2.04912 6.47516 1.33914 6.47516C1.0563 6.47516 0.946634 6.56175 0.929318 6.84459C0.871596 8.14332 0.796558 9.43627 0.72152 10.7292C0.625317 12.5186 0.529114 14.308 0.432912 16.0973C0.369418 17.2518 0.311697 18.4524 0.248203 19.6299C0.225114 19.9012 0.271292 20.0397 0.548355 20.034Z" fill="white"/>
<path d="M89.8032 10.7696C89.8032 10.1924 89.8032 9.66716 89.7282 9.11881C89.6924 8.51928 89.4624 7.94767 89.0729 7.49049C88.6834 7.03331 88.1556 6.71541 87.5694 6.58482C86.6971 6.34655 85.784 6.29736 84.8911 6.44052C84.3178 6.50732 83.7796 6.75114 83.3513 7.13805C82.923 7.52495 82.626 8.03572 82.5014 8.5993C82.4003 8.97615 82.3441 9.36366 82.3341 9.75373C82.3341 10.9486 82.3341 12.1376 82.3341 13.3325C82.3341 14.5331 82.3341 15.7395 82.3341 16.9459C82.3085 17.6207 82.5284 18.282 82.9529 18.8073C83.3773 19.3326 83.9777 19.6863 84.6429 19.803C85.5471 20.0336 86.4909 20.0632 87.4078 19.8896C87.9915 19.8085 88.5328 19.5392 88.9495 19.1225C89.3662 18.7058 89.6356 18.1645 89.7166 17.5808C89.8093 17.0529 89.8557 16.5179 89.8552 15.9819C89.8148 14.2502 89.8148 12.5128 89.8032 10.7696ZM86.6516 16.6168C86.6465 16.9042 86.5878 17.188 86.4785 17.4538C86.4092 17.6097 86.1783 17.8117 86.0398 17.8001C85.9382 17.7796 85.8431 17.7347 85.7627 17.6694C85.6823 17.604 85.6189 17.5201 85.578 17.4249C85.4695 16.9551 85.4096 16.4755 85.3991 15.9934C85.3991 15.0814 85.3991 14.1637 85.3991 13.2459C85.3991 12.2011 85.3991 11.1564 85.3991 10.1116C85.4147 9.71756 85.4906 9.32823 85.6242 8.95717C85.6692 8.86992 85.7348 8.79491 85.8152 8.7386C85.8956 8.68229 85.9886 8.64638 86.086 8.63393C86.1751 8.65583 86.2577 8.69866 86.327 8.75889C86.3963 8.81913 86.4502 8.89501 86.4842 8.98025C86.6003 9.44926 86.668 9.92895 86.6863 10.4118C86.7267 12.484 86.6805 14.5504 86.6516 16.6168Z" fill="white"/>
<path d="M15.7638 20.0397C16.341 20.0397 16.9182 20.0397 17.4954 20.0397C17.8302 20.0397 17.963 19.9531 17.9514 19.5953C17.9514 18.7467 17.9514 17.8925 17.9514 17.044V15.624C18.0268 15.6885 18.0794 15.7755 18.1015 15.8722C18.4709 17.1248 18.8461 18.3773 19.1982 19.6414C19.279 19.9243 19.406 20.057 19.7119 20.0397C20.1737 20.0397 20.6297 20.0397 21.0915 20.0397C21.4493 20.0397 21.559 19.93 21.559 19.5664C21.559 17.3441 21.559 15.1161 21.559 12.888C21.559 10.9197 21.559 8.95718 21.559 6.98888C21.559 6.60792 21.4378 6.48669 21.0626 6.50978C20.6874 6.53287 20.1448 6.50978 19.6888 6.50978C18.7826 6.50978 18.8923 6.38856 18.8865 7.29478V10.6946H18.8288L18.7422 10.4464C18.3901 9.25733 18.038 8.06826 17.6974 6.87343C17.6166 6.60214 17.4954 6.48091 17.201 6.49822C16.7046 6.49822 16.2082 6.49822 15.7118 6.49822C15.3828 6.49822 15.2731 6.60212 15.2789 6.92536C15.2789 7.97589 15.2789 9.02066 15.2789 10.0712C15.2789 13.2286 15.2789 16.386 15.2789 19.5433C15.2674 19.9358 15.3886 20.057 15.7638 20.0397Z" fill="white"/>
<path d="M24.624 19.8377C25.3946 20.0631 26.2076 20.1027 26.9964 19.9531C27.6025 19.8868 28.1671 19.6134 28.5951 19.1791C29.0231 18.7448 29.2882 18.1762 29.3456 17.5692C29.4214 17.1888 29.4639 16.8026 29.4726 16.4148C29.4726 13.2343 29.4726 10.0654 29.4726 6.86765C29.4726 6.58482 29.3572 6.51557 29.0974 6.52134C28.4163 6.52134 27.7352 6.52134 27.0541 6.52134C26.373 6.52134 26.4307 6.52134 26.4307 7.09855C26.4307 8.69167 26.4307 10.2906 26.4307 11.8894C26.4307 13.3152 26.4307 14.7466 26.4307 16.1724C26.425 16.5899 26.3903 17.0065 26.3268 17.4192C26.3268 17.5577 26.1479 17.6731 26.0555 17.8001C25.9401 17.6847 25.7554 17.5865 25.7323 17.4595C25.6383 17.0131 25.5842 16.5592 25.5707 16.1031C25.5707 13.0246 25.5707 9.95961 25.5707 6.90806C25.5707 6.58482 25.4898 6.47516 25.1551 6.48093C24.4335 6.48093 23.7178 6.48093 22.9963 6.48093C22.7019 6.48093 22.6095 6.5675 22.6095 6.86188C22.6095 10.3252 22.6095 13.7885 22.6442 17.2518C22.6402 17.8414 22.8326 18.4157 23.1911 18.8839C23.5496 19.3521 24.0537 19.6877 24.624 19.8377Z" fill="white"/>
<path d="M44.7227 10.2328C44.7227 9.99616 44.7227 9.75948 44.688 9.52282C44.6948 8.92176 44.5098 8.33421 44.1601 7.84536C43.8103 7.3565 43.3139 6.99181 42.7428 6.80415C41.8601 6.53786 40.9283 6.47666 40.0184 6.62522C39.4446 6.68285 38.9049 6.92495 38.4803 7.31521C38.0557 7.70546 37.769 8.22285 37.6633 8.78978C37.5741 9.10374 37.5236 9.42747 37.5133 9.75372C37.5133 12.2127 37.4671 14.6774 37.5133 17.1421C37.4838 17.8361 37.7228 18.5149 38.1808 19.0373C38.6387 19.5597 39.2802 19.8856 39.9722 19.9473C40.7388 20.0431 41.5144 20.0431 42.2811 19.9473C42.7741 19.9118 43.2447 19.7272 43.6303 19.4179C44.0158 19.1086 44.2982 18.6893 44.4398 18.2157C44.5714 17.8438 44.6492 17.4551 44.6707 17.0613C44.6996 15.826 44.6707 14.5966 44.6707 13.3671H44.6996L44.7227 10.2328ZM41.7442 16.2647C41.7292 16.6526 41.6828 17.0387 41.6057 17.4192C41.5538 17.702 41.421 17.956 41.0689 17.9386C40.7168 17.9213 40.6071 17.6673 40.5494 17.3614C40.4898 17.0937 40.4532 16.8215 40.4397 16.5476C40.4397 14.4176 40.4397 12.2819 40.4397 10.152C40.4408 9.8177 40.5055 9.48666 40.6302 9.1765C40.6755 9.07554 40.7441 8.98677 40.8304 8.91752C40.9167 8.84828 41.0182 8.80054 41.1266 8.77822C41.2316 8.80698 41.328 8.86092 41.4075 8.93535C41.487 9.00978 41.5471 9.10245 41.5826 9.20536C41.6857 9.62289 41.7399 10.051 41.7442 10.481C41.7442 11.4219 41.7442 12.3627 41.7442 13.3036C41.7442 14.2445 41.7616 15.2835 41.7442 16.2647Z" fill="white"/>
<path d="M48.5843 21.9849C33.8306 21.9849 19.0789 21.9849 4.32912 21.9849H0.438683C-9.63333e-07 21.9849 0.0115443 21.9849 0 22.8334C0 23.1624 5.16071e-07 23.4107 0.456001 23.3472C0.782859 23.3298 1.11041 23.3298 1.43727 23.3472H50.3159C50.0544 23.0919 49.8185 22.8115 49.6117 22.5102C49.5146 22.3282 49.364 22.1803 49.1804 22.0864C48.9967 21.9925 48.7887 21.9571 48.5843 21.9849Z" fill="white"/>
<path d="M74.4378 16.5591C74.7121 16.5073 74.9946 16.5176 75.2644 16.5892C75.5343 16.6608 75.7847 16.7919 75.9973 16.9729C76.2098 17.154 76.3792 17.3803 76.4929 17.6353C76.6065 17.8903 76.6617 18.1675 76.6543 18.4466C76.5913 18.9002 76.485 19.3467 76.3368 19.78C76.3718 19.7988 76.4085 19.8143 76.4465 19.8261C77.3776 20.0659 78.3556 20.054 79.2806 19.7915C79.8214 19.6439 80.3044 19.335 80.6653 18.9061C81.0262 18.4771 81.2479 17.9484 81.3008 17.3903C81.3528 16.8131 81.3413 16.2359 81.3817 15.7048C81.3817 15.3873 81.272 15.3008 80.9718 15.3065C80.2388 15.3065 79.4999 15.3065 78.7669 15.3065C78.4552 15.3065 78.3744 15.4047 78.3628 15.7106C78.3327 16.2915 78.2652 16.87 78.1608 17.4422C78.1274 17.5328 78.0719 17.6135 77.9993 17.677C77.9267 17.7405 77.8393 17.7848 77.7452 17.8059C77.6413 17.8059 77.4393 17.5923 77.3873 17.4365C77.3029 17.1614 77.2582 16.8757 77.2546 16.588C77.2546 14.3888 77.2546 12.1838 77.2546 9.98462C77.2655 9.64471 77.3081 9.30655 77.3815 8.9745C77.422 8.74361 77.4912 8.4954 77.8029 8.4954C78.1146 8.4954 78.1954 8.74938 78.2243 8.9745C78.2993 9.45359 78.3397 9.93267 78.3744 10.4175C78.3744 10.6196 78.4321 10.7408 78.6572 10.7408C79.4826 10.7408 80.308 10.7408 81.1335 10.7408C81.1941 10.7265 81.25 10.6966 81.2955 10.6541C81.3411 10.6116 81.3748 10.5578 81.3932 10.4983C81.4278 9.97748 81.4278 9.45493 81.3932 8.93409C81.3515 8.31827 81.0994 7.7355 80.679 7.28358C80.2586 6.83165 79.6955 6.53808 79.0843 6.45207C78.1792 6.29614 77.2527 6.31375 76.3541 6.504C75.9737 6.56947 75.6153 6.72743 75.3103 6.96396C75.0054 7.2005 74.7632 7.50834 74.6051 7.86044C74.3722 8.32964 74.2312 8.83905 74.1895 9.36122C74.1261 11.6701 74.1318 13.9789 74.1145 16.2878C74.0857 16.5187 74.1434 16.6168 74.4378 16.5591Z" fill="white"/>
<path d="M30.6098 8.93409C30.9388 8.93409 31.2678 8.93409 31.591 8.93409C31.9143 8.93409 32.0643 9.03798 32.0586 9.40163C32.0586 11.1333 32.0586 12.8072 32.0586 14.51C32.0586 16.2128 32.0586 17.9444 32.0586 19.6587C32.0586 19.982 32.1567 20.0917 32.4799 20.0801C33.1495 20.0801 33.8191 20.0801 34.4829 20.0801C34.8234 20.0801 34.9389 19.9935 34.9389 19.6414C34.9389 18.2792 34.9389 16.917 34.9389 15.5547V9.45934C34.9389 8.95139 34.9389 8.95138 35.4641 8.95138C35.7527 8.95138 36.0414 8.95138 36.33 8.95138C36.6186 8.95138 36.6878 8.88214 36.6821 8.61662C36.6821 8.07981 36.6821 7.54298 36.6821 7.00617C36.6821 6.75219 36.6013 6.65408 36.3415 6.65985H30.6213C30.4077 6.65985 30.3096 6.72335 30.3096 6.94846C30.3096 7.52568 30.3096 8.10288 30.3096 8.63392C30.3038 8.85904 30.3962 8.93986 30.6098 8.93409Z" fill="white"/>
<path d="M100.534 21.9907C99.7256 21.9907 98.9117 21.9907 98.0978 21.9907H70.9687C70.7591 21.9792 70.5491 21.9792 70.3395 21.9907C70.2276 22.0009 70.1222 22.0476 70.0394 22.1234C69.693 22.4986 69.364 22.8854 68.9715 23.3298H100.003C100.932 23.3298 100.92 23.3298 100.932 22.3832C100.955 22.1004 100.868 21.9792 100.534 21.9907Z" fill="white"/>
<path d="M11.2153 19.6241C11.2153 19.9358 11.3134 20.0455 11.6194 20.0397C12.312 20.0397 13.0047 20.0397 13.7031 20.0397C14.0552 20.0397 14.1764 19.9416 14.1706 19.5722C14.1706 17.4769 14.1706 15.3816 14.1706 13.2863C14.1706 11.191 14.1706 9.06685 14.1706 6.93692C14.1706 6.59637 14.0783 6.46939 13.7262 6.48094C13.0335 6.48094 12.3409 6.48094 11.6424 6.48094C11.3192 6.48094 11.2153 6.57328 11.2153 6.90229C11.2192 11.1544 11.2192 15.3951 11.2153 19.6241Z" fill="white"/>
<path d="M72.3713 12.1492C72.2474 10.446 71.7812 8.78528 71.0006 7.26642C70.2201 5.74756 69.1412 4.40176 67.8285 3.30947C66.5158 2.21719 64.9963 1.40087 63.3609 0.909381C61.7254 0.417891 60.0077 0.261315 58.3103 0.449007C55.3289 0.72993 52.558 2.10816 50.5352 4.31636C48.2264 6.78684 46.8872 9.66715 47.1181 13.1535C47.1195 14.1195 47.1909 15.084 47.3317 16.0396C48.0382 19.1825 49.9127 21.9394 52.5756 23.7521C55.2385 25.5647 58.4907 26.2976 61.6737 25.8023C64.8567 25.307 67.7325 23.6206 69.7188 21.0845C71.705 18.5485 72.6532 15.3523 72.3713 12.1434V12.1492ZM71.9326 13.9155C71.7643 16.3269 70.8871 18.6348 69.4114 20.5494C67.9357 22.4639 65.9271 23.8997 63.638 24.6765C61.3489 25.4533 58.8814 25.5363 56.5452 24.9153C54.2091 24.2942 52.1085 22.9967 50.5073 21.1858C48.9062 19.3748 47.8758 17.1311 47.5457 14.7364C47.2155 12.3418 47.6003 9.903 48.6517 7.72632C49.7031 5.54964 51.3741 3.73212 53.4551 2.50208C55.536 1.27203 57.934 0.684295 60.3479 0.812656C61.9732 0.899864 63.565 1.30952 65.0304 2.0178C66.4959 2.72608 67.8058 3.71885 68.884 4.93825C69.9621 6.15765 70.7869 7.57931 71.3103 9.12053C71.8336 10.6617 72.0452 12.2917 71.9326 13.9155Z" fill="white"/>
<path d="M74.6513 19.907C74.8537 19.9251 75.0575 19.9 75.2494 19.8333C75.4413 19.7665 75.6168 19.6597 75.7642 19.52C75.9116 19.3802 76.0276 19.2107 76.1044 19.0226C76.1812 18.8346 76.2172 18.6323 76.2098 18.4293C76.2091 18.2259 76.1681 18.0247 76.0892 17.8372C76.0103 17.6498 75.8951 17.4798 75.7503 17.3371C75.6054 17.1944 75.4337 17.0817 75.2451 17.0056C75.0565 16.9296 74.8547 16.8916 74.6513 16.8939C74.4518 16.8931 74.254 16.9319 74.0695 17.0079C73.885 17.0839 73.7173 17.1957 73.5762 17.3368C73.4351 17.4779 73.3233 17.6456 73.2472 17.8301C73.1712 18.0147 73.1325 18.2124 73.1332 18.412C73.1249 18.6125 73.1586 18.8126 73.2322 18.9993C73.3058 19.186 73.4178 19.3552 73.5608 19.4961C73.7038 19.6369 73.8747 19.7463 74.0625 19.817C74.2504 19.8878 74.4509 19.9184 74.6513 19.907Z" fill="white"/>
<path d="M69.5083 13.3555C69.4894 13.3602 69.4696 13.3602 69.4506 13.3555C69.4244 13.3369 69.403 13.3122 69.3883 13.2836C69.3735 13.255 69.3658 13.2232 69.3658 13.1911C69.3658 13.1589 69.3735 13.1271 69.3883 13.0985C69.403 13.0699 69.4244 13.0452 69.4506 13.0265C69.4696 13.0219 69.4894 13.0219 69.5083 13.0265C69.7965 13.0034 70.086 13.0034 70.3741 13.0265C70.7089 13.0265 70.784 12.9053 70.7436 12.611C70.6916 12.2069 70.6685 11.8028 70.6108 11.3988C70.2192 8.89835 68.9866 6.60624 67.1165 4.90091C65.2464 3.19557 62.8507 2.179 60.3248 2.01904C60.0131 2.01904 59.8861 2.07676 59.9092 2.4C59.9353 2.69959 59.9353 3.00087 59.9092 3.30046C59.9042 3.34051 59.8862 3.37779 59.858 3.40664C59.8297 3.43549 59.7928 3.4543 59.7529 3.46019C59.713 3.46608 59.6722 3.45873 59.6369 3.43926C59.6015 3.4198 59.5735 3.38928 59.5571 3.35239L59.5225 3.27738C59.5079 3.18754 59.5079 3.09592 59.5225 3.00607C59.5225 1.74197 59.7072 1.91514 58.4489 2.07098C55.8521 2.39424 53.4513 3.61899 51.6653 5.53157C49.8793 7.44414 48.8216 9.92312 48.6766 12.5359C48.6766 12.8476 48.7401 13.0035 49.0807 12.9688C49.3301 12.9429 49.5816 12.9429 49.831 12.9688C49.8705 12.9758 49.9067 12.9951 49.9345 13.0238C49.9624 13.0526 49.9805 13.0894 49.9862 13.129C49.992 13.1686 49.9851 13.209 49.9666 13.2445C49.948 13.28 49.9188 13.3088 49.883 13.3267C49.8583 13.3326 49.8326 13.3326 49.808 13.3267C49.6159 13.3437 49.4228 13.3437 49.2307 13.3267C49.1567 13.3255 49.0832 13.34 49.0151 13.3693C48.9471 13.3985 48.886 13.4417 48.8358 13.4963C48.7857 13.5508 48.7476 13.6153 48.7242 13.6855C48.7007 13.7558 48.6924 13.8302 48.6997 13.9039C48.8207 15.7708 49.4139 17.5763 50.4235 19.1513C51.433 20.7262 52.826 22.019 54.4719 22.9085C55.885 23.712 57.4662 24.1745 59.0896 24.2592C59.4244 24.2592 59.5802 24.1899 59.5456 23.8262C59.5196 23.5402 59.5196 23.2523 59.5456 22.9662C59.5534 22.9221 59.5764 22.8821 59.6107 22.8533C59.645 22.8245 59.6884 22.8088 59.7332 22.8088C59.778 22.8088 59.8213 22.8245 59.8556 22.8533C59.8899 22.8821 59.913 22.9221 59.9208 22.9662C59.9236 22.9815 59.9236 22.9971 59.9208 23.0124C59.9468 23.3119 59.9468 23.6133 59.9208 23.9128C59.9208 24.213 60.0362 24.3169 60.319 24.2822C60.7058 24.2361 61.1041 24.2303 61.4735 24.1553C65.9007 23.2779 68.8099 20.692 70.2587 16.4148C70.5839 15.4259 70.7458 14.3907 70.7378 13.3498C70.2933 13.3671 69.9008 13.3786 69.5083 13.3555ZM58.3046 18.5505C57.8918 19.1321 57.3077 19.5702 56.6338 19.8036C55.96 20.0371 55.23 20.0543 54.546 19.8527C53.8619 19.6512 53.2578 19.241 52.8182 18.6795C52.3785 18.118 52.1253 17.4332 52.0937 16.7207V15.37H54.0505C54.0505 15.37 54.0505 15.7625 54.0505 15.8722C54.0505 17.1248 54.6277 18.1464 55.3492 18.1464C55.4734 18.1413 55.5952 18.1111 55.7073 18.0575C55.8195 18.0039 55.9195 17.9282 56.0015 17.8347C56.4228 17.2661 56.6502 16.577 56.6502 15.8693C56.6502 15.1616 56.4228 14.4726 56.0015 13.9039C55.9192 13.8133 55.8196 13.7401 55.7086 13.6885C55.5975 13.637 55.4773 13.6081 55.355 13.6037H54.316V11.8721H55.355C56.0072 11.8721 56.5383 11.064 56.5383 10.0712C56.5383 9.07838 56.0072 8.27028 55.355 8.27028C54.7027 8.27028 54.1717 9.07838 54.1717 10.0712C54.1717 10.1578 54.1717 10.3367 54.1717 10.4233H52.1515C52.133 10.2642 52.1234 10.1043 52.1226 9.94422C52.1039 9.49479 52.1762 9.04621 52.3353 8.62547C52.4944 8.20473 52.7369 7.82052 53.0483 7.49591C53.3597 7.1713 53.7335 6.913 54.1473 6.73655C54.561 6.56011 55.0062 6.46915 55.456 6.46915C55.9058 6.46915 56.351 6.56011 56.7647 6.73655C57.1785 6.913 57.5523 7.1713 57.8637 7.49591C58.1751 7.82052 58.4176 8.20473 58.5767 8.62547C58.7358 9.04621 58.8081 9.49479 58.7894 9.94422C58.7941 10.4747 58.678 10.9993 58.45 11.4783C58.222 11.9573 57.888 12.3782 57.4734 12.7091C58.3681 12.8187 59.078 14.2041 59.078 15.8895C59.1103 16.8291 58.8391 17.7541 58.3046 18.5274V18.5505ZM67.338 16.4898C67.3939 17.3747 67.096 18.2455 66.5098 18.9107C65.9236 19.5759 65.0972 19.9809 64.2124 20.0368C63.3275 20.0927 62.4567 19.7948 61.7915 19.2086C61.1263 18.6225 60.7213 17.7961 60.6654 16.9112V16.6803C60.6654 16.5995 60.6654 16.5245 60.6654 16.4437C60.6654 16.3629 60.6654 16.2878 60.6654 16.207V10.2559C60.6654 10.1751 60.6654 10.1001 60.6654 10.0193C60.6466 9.56753 60.7194 9.11666 60.8793 8.69378C61.0393 8.2709 61.2831 7.88474 61.5961 7.55848C61.9091 7.23222 62.2848 6.97262 62.7007 6.79528C63.1166 6.61794 63.564 6.52651 64.0161 6.52651C64.4682 6.52651 64.9157 6.61794 65.3316 6.79528C65.7474 6.97262 66.1232 7.23222 66.4362 7.55848C66.7492 7.88474 66.993 8.2709 67.1529 8.69378C67.3128 9.11666 67.3856 9.56753 67.3669 10.0193L67.338 16.4898ZM63.9844 8.4088C63.6945 8.41033 63.417 8.52657 63.2126 8.73208C63.0082 8.93758 62.8934 9.21566 62.8934 9.50553V17.3614C62.9135 17.6378 63.0375 17.8963 63.2404 18.085C63.4433 18.2737 63.7102 18.3786 63.9873 18.3786C64.2644 18.3786 64.5312 18.2737 64.7341 18.085C64.937 17.8963 65.061 17.6378 65.0811 17.3614V9.48819C65.0796 9.19779 64.9635 8.91974 64.7582 8.71439C64.5528 8.50905 64.2748 8.39302 63.9844 8.3915V8.4088Z" fill="white"/>
</svg>
