<?xml version="1.0" encoding="UTF-8"?>
<svg id="Capa_15" data-name="Capa 15" xmlns="http://www.w3.org/2000/svg" viewBox="0 0 550 250">
  <defs>
    <style>
      .cls-1 {
        fill: #fff;
      }
    </style>
  </defs>
  <path class="cls-1" d="M107.14,171.52c-.36-.26-.48-.65-.54-1.07-.55-4.04-.86-8.1-.73-12.18,.11-3.35,.69-6.62,1.47-9.88,2.1-8.77,4.16-17.55,6.24-26.32,.1-.43,.03-.8-.12-1.21-1.67-4.48-2-9.02-.55-13.62,.67-2.11,1.76-3.99,3.39-5.52,1.67-1.57,3.64-2.48,5.96-2.49,3.59-.02,6.16,2.08,6.93,5.58,.41,1.86,.27,3.71-.08,5.55-.58,3.09-1.59,6.07-2.47,9.08-.66,2.23-1.32,4.47-1.89,6.72-1.28,5.03,2.03,9.45,6.86,10.2,2.54,.4,4.92-.09,7.17-1.3,1.89-1.02,3.43-2.44,4.75-4.11,2.2-2.77,3.64-5.92,4.68-9.27,.99-3.17,1.6-6.42,1.78-9.74,.1-1.81,.2-3.64,.1-5.44-.25-4.62-1.75-8.78-4.89-12.26-2.7-2.99-6.1-4.81-9.96-5.8-3.72-.95-7.5-1.12-11.31-.63-4.33,.56-8.33,2-11.88,4.56-5.33,3.84-8.6,9.05-9.95,15.47-.53,2.51-.71,5.05-.43,7.61,.32,2.92,1.27,5.59,3.14,7.88,1.47,1.8,1.4,1.95,.85,4.01-.32,1.21-.6,2.43-.93,3.63-.25,.91-.84,1.44-1.64,1.43-.4,0-.82-.13-1.2-.29-2.52-1.06-4.58-2.72-6.23-4.9-1.88-2.49-3.01-5.31-3.7-8.34-.7-3.07-.9-6.17-.65-9.29,.33-4.26,1.56-8.28,3.58-12.04,4.41-8.22,11.14-13.68,19.89-16.73,3.23-1.13,6.56-1.79,9.97-2.09,2.57-.23,5.14-.32,7.71-.1,9.47,.81,17.57,4.42,23.79,11.77,3.57,4.21,5.76,9.09,6.6,14.56,.36,2.34,.36,4.69,.22,7.05-.18,3.17-.61,6.3-1.38,9.38-1.26,5.03-3.29,9.7-6.48,13.82-3.62,4.68-8.19,7.99-13.94,9.56-2.82,.77-5.69,1.11-8.59,.81-3.71-.39-7.02-1.76-9.72-4.41-.47-.46-.84-1.02-1.26-1.53-.12-.15-.23-.3-.4-.53-.09,.32-.16,.55-.22,.78-1.03,4.04-2.09,8.07-3.08,12.11-1,4.12-2.71,7.92-4.86,11.55-1.5,2.54-3.16,4.97-4.98,7.29-.21,.26-.49,.47-.73,.71h-.29Z"/>
  <path class="cls-1" d="M448.46,114.4c.39,0,.65,0,.92,0,2.48,0,4.95,0,7.43,0,.2,0,.39,0,.59,0,1.07,.08,1.57,.75,1.31,1.81-.41,1.72-.83,3.43-1.26,5.14-.31,1.24-.91,1.69-2.22,1.7-2.72,0-5.44,0-8.17,0-.76,0-.75-.07-.96,.77-1.61,6.42-3.25,12.83-4.84,19.25-.34,1.38-.58,2.79-.72,4.2-.08,.73,.04,1.53,.26,2.24,.44,1.4,1.49,2.16,2.94,2.3,2.23,.21,4.09-.54,5.58-2.23,1.06-1.2,1.76-2.61,2.16-4.14,.45-1.75,1.02-1.74,2.33-1.72,.96,.01,1.91-.01,2.87,0,.93,.02,1.32,.51,1.06,1.4-1.2,4.08-3.02,7.82-6.09,10.85-2.94,2.9-6.49,4.5-10.58,4.94-1.99,.21-3.96,.2-5.91-.31-3.56-.93-5.93-3.5-6.6-7.46-.34-2.03-.03-4.01,.37-5.99,1.56-7.77,3.59-15.42,5.61-23.07,.08-.3,.15-.61,.24-1-.34-.02-.59-.04-.85-.04-1.69,0-3.38,0-5.08,0-.22,0-.44,0-.66-.03-.71-.11-1.13-.62-1.1-1.33,0-.19,.06-.39,.1-.58,.4-1.62,.8-3.23,1.21-4.85,.35-1.4,.92-1.86,2.39-1.86,1.86,0,3.73,0,5.59,0,.17,0,.34-.01,.59-.03,.09-.23,.19-.47,.27-.72,1.23-3.86,2.33-7.75,3.01-11.74,.35-2.06,.6-4.12,.4-6.22-.54-5.69-4.21-9.67-9.95-10.38-3-.37-5.93-.06-8.73,1.09-4.1,1.69-6.67,4.8-7.99,8.98-.85,2.68-1.06,5.42-.81,8.22,.15,1.67,.45,3.3,1,4.88,.88,2.53,2.36,4.68,4.23,6.56,.88,.89,1.82,1.72,2.69,2.62,.7,.72,1.41,1.45,2,2.25,1.19,1.6,1.49,3.39,.84,5.3-.63,1.83-2.19,2.94-4.13,2.99-1.89,.05-3.5-.61-4.86-1.9-.96-.91-1.67-1.99-2.19-3.2-.18-.42-.42-.66-.87-.78-2.35-.59-4.72-.9-7.14-.61-.91,.11-1.77,.34-2.6,.74-2.67,1.27-2.8,4.91-1.09,6.49,.61,.56,1.29,1.09,2.03,1.44,1.46,.68,2.98,1.24,4.49,1.83,2.28,.89,4.59,1.72,6.85,2.67,1.75,.73,3.36,1.72,4.78,2.99,2.34,2.07,3.53,4.68,3.57,7.78,.07,5.71-2.52,9.91-7.43,12.71-2.24,1.28-4.68,1.99-7.22,2.39-2.51,.4-5.03,.48-7.55,.28-3.93-.32-7.68-1.27-11.12-3.27-1.95-1.14-3.66-2.55-4.93-4.45-.06-.1-.16-.18-.28-.31-.27,.2-.53,.38-.78,.57-3.29,2.52-6.83,4.59-10.8,5.88-3.94,1.28-7.98,1.78-12.11,1.55-3.37-.18-6.59-1.01-9.49-2.8-4.39-2.71-6.96-6.66-7.86-11.72-.49-2.72-.27-5.43,.08-8.14,.01-.1,.02-.19,.04-.35-.17-.07-.33-.17-.51-.21-1.41-.31-2.83-.6-4.23-.93-.42-.1-.74-.02-1.1,.18-2.38,1.36-4.94,1.83-7.65,1.46-1.21-.17-2.31-.65-3.24-1.47-1.69-1.48-1.92-3.14-1.3-5.14,.55-1.76,2.1-2.93,4.02-3.06,.71-.05,1.42,0,2.23,0,.49-.77,.59-1.74,.59-2.72,0-.32-.05-.64-.11-.95-.29-1.47-1.32-2.4-2.83-2.57-1.59-.19-3.07,.16-4.44,.98-1.05,.62-1.94,1.41-2.75,2.31-1.77,1.98-3.07,4.25-4.2,6.63-1.93,4.07-3.33,8.33-4.49,12.67-1.16,4.33-2.25,8.69-3.39,13.03-.11,.42-.3,.84-.55,1.18-.37,.51-.95,.66-1.57,.66-1.67,0-3.34,0-5,0-.98,0-1.96,.01-2.94,0-1.25-.02-1.77-.69-1.48-1.94,.28-1.22,.62-2.42,.93-3.63,.2-.78,.39-1.56,.47-2.4-.17,.16-.35,.31-.52,.47-4.03,3.97-8.77,6.66-14.31,7.84-4.43,.94-8.86,1.05-13.23-.28-4.95-1.5-8.62-4.54-10.84-9.26-.03-.07-.06-.13-.1-.2-.01-.02-.03-.03-.08-.07-.29,.07-.36,.36-.49,.57-1.36,2.12-2.94,4.05-4.9,5.65-2.88,2.37-6.17,3.76-9.88,4.15-1.94,.2-3.86,.21-5.77-.29-2.79-.73-4.7-2.44-5.73-5.13-.07-.18-.15-.36-.3-.71-.25,.31-.41,.55-.61,.76-2.39,2.55-5.22,4.37-8.66,5.13-2.16,.47-4.32,.53-6.49,.09-3.6-.74-5.91-3.09-6.65-6.72-.47-2.28-.31-4.54,.08-6.8,.76-4.43,1.99-8.75,3.08-13.1,.43-1.71,.85-3.43,1.16-5.16,.15-.8,.16-1.68,.01-2.48-.38-2.06-2.09-3.4-4.27-3.45-3.08-.07-5.64,1.09-7.7,3.36-1.74,1.91-2.81,4.19-3.45,6.67-1.73,6.72-3.43,13.45-5.14,20.17-.45,1.76-.87,3.52-1.34,5.27-.29,1.08-.84,1.48-1.96,1.52-.05,0-.1,0-.15,0-2.65,0-5.3,0-7.95,0-1.17,0-1.7-.66-1.44-1.82,.21-.96,.47-1.9,.71-2.85,.03-.11,.05-.23-.02-.43-.18,.17-.37,.33-.54,.5-1.26,1.25-2.63,2.36-4.15,3.27-2.92,1.76-6.08,2.56-9.48,2.31-.87-.06-1.76-.23-2.59-.48-2.72-.81-4.48-2.64-5.31-5.34-.65-2.12-.73-4.29-.38-6.48,.64-4.05,1.71-8,2.72-11.97,1.7-6.67,3.42-13.34,5.14-20.01,.09-.33,.2-.66,.35-.96,.29-.56,.76-.89,1.4-.95,.32-.03,.64-.05,.95-.05,2.31,0,4.61,0,6.92,0,.12,0,.25,0,.37,0,1.46,0,1.86,.85,1.55,2.08-.43,1.71-.91,3.41-1.35,5.12-1.77,7.01-3.54,14.02-5.27,21.04-.34,1.38-.51,2.79-.71,4.2-.07,.5-.04,1.03,.03,1.54,.28,2.17,1.58,3.29,3.92,3.14,1.23-.08,2.33-.54,3.35-1.21,1.29-.84,2.35-1.93,3.26-3.16,1.97-2.63,3.25-5.59,4.07-8.75,1.87-7.29,3.72-14.58,5.58-21.88,.01-.05,.02-.1,.03-.14,.39-1.51,.92-1.97,2.47-1.98,2.5-.02,5,0,7.5,0,.15,0,.29,0,.44,.03,.93,.12,1.43,.79,1.22,1.72-.18,.76-.41,1.51-.62,2.27-.07,.25-.12,.51-.09,.8,.12-.11,.25-.22,.36-.34,2.9-2.99,6.39-4.87,10.53-5.38,2.43-.3,4.85-.03,7.15,.9,3.18,1.28,4.98,3.7,5.69,6.99,.51,2.34,.47,4.69-.09,7.01-.88,3.64-1.87,7.26-2.77,10.9-.49,1.95-.93,3.91-1.33,5.88-.24,1.21-.26,2.44,.04,3.65,.34,1.38,1.17,2.22,2.58,2.5,1.43,.29,2.72,.05,3.89-.84,.93-.71,1.66-1.6,2.29-2.57,1.43-2.23,2.41-4.66,3.09-7.21,.88-3.32,1.66-6.66,2.5-9.99,.6-2.4,1.22-4.8,1.83-7.2,.06-.23,.1-.47,.18-.81-.29-.01-.53-.03-.76-.03-1.72,0-3.43,0-5.15,0-.2,0-.39,0-.59,0-1-.06-1.52-.72-1.29-1.69,.42-1.79,.87-3.57,1.33-5.35,.29-1.11,.9-1.58,2.07-1.6,1.13-.02,2.26,0,3.38,0,.88,0,1.77,0,2.65,0,.17,0,.34-.03,.56-.04,.27-1.06,.53-2.1,.79-3.14,.83-3.33,1.66-6.66,2.49-9.99,.08-.31,.17-.61,.29-.91,.37-.9,1.04-1.49,1.99-1.68,2.5-.51,5-.99,7.49-1.49,.02,0,.05,0,.07,0,1.66-.23,2.51,.68,2.12,2.29-.24,1-.5,2-.75,3-.94,3.73-1.87,7.47-2.8,11.2-.05,.21-.08,.43-.14,.74,.29,.01,.55,.04,.8,.04,2.18,0,4.37,0,6.55,0,.2,0,.39,0,.59,0,1.3,.03,1.81,.7,1.49,1.98-.34,1.38-.69,2.76-1.03,4.14-.08,.33-.15,.67-.25,1-.29,1.03-.89,1.52-1.97,1.53-2.04,.02-4.07,0-6.11,0-.73,0-1.47,0-2.23,0-.09,.24-.18,.43-.23,.64-1.65,6.56-3.31,13.12-4.95,19.69-.26,1.05-.45,2.11-.62,3.18-.14,.88-.13,1.76,.1,2.63,.42,1.57,1.6,2.53,3.23,2.64,1.35,.09,2.57-.28,3.7-.98,1.08-.66,2-1.5,2.8-2.48,2.46-2.99,3.91-6.4,4.44-10.25,.98-7.1,3.8-13.32,9.18-18.2,3.57-3.23,7.78-5.15,12.54-5.84,3.31-.48,6.6-.45,9.84,.48,2.72,.78,5.1,2.14,6.93,4.35,1.69,2.04,2.57,4.37,2.54,7.04-.02,2.18-.33,4.3-1.13,6.34-1.48,3.76-4.22,6.25-7.87,7.82-2.48,1.06-5.09,1.59-7.77,1.81-2.03,.17-4.06,.2-6.1-.01-1.85-.19-3.7-.45-5.48-1.01-.16-.05-.32-.09-.56-.15,0,.51-.01,.96,0,1.42,.05,1.36,.29,2.68,.71,3.97,1.13,3.41,3.5,5.42,6.99,6.11,3.07,.6,6.11,.29,9.08-.59,5.21-1.53,9.45-4.47,12.64-8.88,1.15-1.59,1.94-3.34,2.42-5.25,1.76-6.97,3.54-13.92,5.31-20.89,.07-.26,.15-.52,.25-.77,.27-.61,.74-.96,1.4-1.05,.24-.03,.49-.04,.73-.04,2.48,0,4.95,.03,7.43-.01,1.71-.03,2,.97,1.68,2.15-.41,1.51-.78,3.04-1.16,4.56-.05,.21-.09,.42-.02,.71,.13-.18,.27-.35,.4-.53,1.43-1.96,3.08-3.69,5.07-5.09,2.02-1.42,4.21-2.42,6.68-2.7,2.25-.26,4.46-.07,6.55,.9,2.97,1.38,4.64,3.78,5.23,6.94,.47,2.51,.12,4.99-.51,7.43-.15,.57-.32,1.12-.52,1.78,.93,.22,1.82,.43,2.77,.65,.14-.34,.26-.63,.37-.92,1.46-3.77,3.49-7.19,6.38-10.05,3.68-3.65,8.11-5.78,13.22-6.52,2.96-.43,5.91-.47,8.85,.17,3.07,.67,5.78,2,7.89,4.4,2.21,2.5,3.03,5.44,2.71,8.73-.18,1.84-.55,3.64-1.32,5.33-1.63,3.59-4.41,5.94-7.98,7.44-2.44,1.02-5,1.54-7.63,1.77-3.9,.35-7.73-.03-11.54-.87-.12-.03-.24-.02-.39-.02-.03,.14-.07,.25-.07,.37,.04,1.7,.23,3.38,.79,5,1.15,3.33,3.52,5.21,6.93,5.86,2.14,.41,4.3,.33,6.45,.08,4.92-.56,9.2-2.6,13.04-5.67,.35-.28,.53-.59,.66-1.01,.68-2.24,2-3.93,4.32-4.63,1.5-.45,2.97-.27,4.35,.47,2.45,1.3,3.1,4.85,1.3,7.01-.14,.17-.28,.33-.48,.56,.41,.38,.78,.77,1.2,1.1,1.69,1.33,3.62,2.15,5.71,2.59,2.68,.56,5.36,.58,8.02-.07,.68-.17,1.36-.45,1.97-.79,2.53-1.43,2.31-4.35,1.07-5.91-.55-.68-1.22-1.23-2.01-1.58-1.32-.58-2.66-1.14-4.02-1.61-2.43-.85-4.9-1.58-7.24-2.66-1.59-.73-3.1-1.59-4.45-2.71-3.15-2.61-4.44-6-4.23-10.03,.16-3.04,1.14-5.76,3.11-8.09,1.91-2.26,4.36-3.7,7.14-4.61,3.02-.99,6.14-1.25,9.29-1.13,.21,0,.42,0,.72,0-.14-.27-.22-.46-.32-.65-2.03-3.74-3.11-7.73-2.93-12,.22-5.34,1.78-10.23,5.27-14.38,3.18-3.78,7.27-6.06,12.03-7.19,2.59-.62,5.23-.86,7.88-.71,5.27,.28,10.04,1.94,14.05,5.46,3.61,3.16,5.76,7.14,6.42,11.91,.23,1.69,.16,3.38-.04,5.07-.49,4.15-1.56,8.18-2.64,12.21-.09,.33-.17,.66-.29,1.14Zm-176.11,20.09c.22,.09,.35,.16,.49,.2,2.38,.64,4.79,1.03,7.26,.89,1.55-.09,3.05-.42,4.46-1.11,3.54-1.74,4.52-5.27,3.84-8.25-.4-1.79-1.52-2.97-3.33-3.33-3.15-.63-5.95,.15-8.27,2.37-2.61,2.49-3.77,5.72-4.45,9.23Zm83.71,.03c.27,.09,.43,.16,.59,.2,1.66,.47,3.35,.74,5.07,.85,2.1,.13,4.17-.07,6.12-.93,3.22-1.41,4.86-4.4,4.34-7.87-.29-1.95-1.61-3.41-3.53-3.91-1.11-.29-2.24-.25-3.36-.05-2.33,.42-4.16,1.67-5.64,3.47-1.74,2.1-2.78,4.54-3.41,7.18-.08,.33-.12,.66-.19,1.05Z"/>
  <path class="cls-1" d="M178.17,96.49c3.34,.06,5.85,2.36,6.01,5.67,.09,1.92-.5,3.69-1.63,5.24-1.56,2.14-3.63,3.52-6.3,3.76-4.38,.41-7.12-2.95-6.59-6.74,.56-3.95,2.87-6.44,6.64-7.61,.6-.19,1.25-.22,1.87-.33Z"/>
</svg>