<?xml version="1.0" encoding="UTF-8"?>
<svg id="Capa_12" data-name="Capa 12" xmlns="http://www.w3.org/2000/svg" viewBox="0 0 550 250">
  <defs>
    <style>
      .cls-1 {
        fill: #fff;
      }
    </style>
  </defs>
  <path class="cls-1" d="M88.31,124.86c0-10.59,.03-21.17-.03-31.76,0-1.57,.42-2.06,2.01-2.04,7.16,.09,14.33-.14,21.48,.16,3.36,.14,6.81,.84,9.97,1.98,7.25,2.62,10.53,8.49,11.1,15.81,.3,3.87,.24,7.91-.52,11.7-1.67,8.4-7.54,12.77-15.63,14.23-3.52,.64-7.16,.7-10.76,.81-1.66,.05-2.21,.56-2.19,2.2,.06,6.34-.02,12.68,.05,19.02,.02,1.6-.51,2.06-2.07,2.02-3.8-.1-7.61-.1-11.41,0-1.55,.04-2.06-.37-2.05-1.99,.07-10.71,.04-21.43,.04-32.14Zm19.2,.9c5.51,0,8.27-1.76,9.5-6.27,.93-3.4,.97-6.88,.27-10.32-.88-4.29-2.66-5.94-6.93-6.59-1.49-.23-3.03-.12-4.54-.27-1.68-.17-2.19,.51-2.17,2.17,.08,5.83,.03,11.65,.03,17.48q0,3.8,3.84,3.8Z"/>
  <path class="cls-1" d="M370.37,133.15c.05,6.79-1.6,13.04-6.08,18.32-9.92,11.68-31.97,10.13-38.22-7.43-2.68-7.54-2.59-15.18,.11-22.68,3.48-9.67,11.78-15.19,22.14-14.99,9.28,.18,17.44,6.34,20.38,15.78,1.09,3.51,1.44,7.26,2.12,10.9-.15,.03-.31,.07-.46,.1Zm-31.8-.15c.69,3.35,1.08,6.62,2.07,9.7,1.1,3.41,3.76,5.13,6.79,5.1,2.97-.03,5.55-1.91,6.72-5.25,.66-1.88,1.11-3.89,1.35-5.87,.53-4.5,.26-8.96-1.33-13.25-.89-2.4-2.36-4.36-4.96-5.11-3.62-1.04-7.07,.67-8.48,4.76-1.1,3.16-1.46,6.58-2.15,9.93Z"/>
  <path class="cls-1" d="M461.72,132.88c-.4,7.8-2.36,14.79-8.12,20.24-10.77,10.18-32.36,7.62-37.37-11.45-1.82-6.91-1.58-13.81,.95-20.51,3.63-9.62,11.77-15.01,22.08-14.79,9.28,.19,17.42,6.34,20.37,15.8,1.08,3.45,1.42,7.14,2.1,10.72Zm-31.7,.08c-.18,.04-.35,.07-.53,.11,.67,3.25,1.1,6.58,2.09,9.73,.96,3.08,3.32,4.97,6.69,4.96,3.39,0,5.57-1.99,6.7-5,.72-1.93,1.17-4.01,1.42-6.06,.55-4.57,.28-9.11-1.39-13.47-.87-2.27-2.31-4.11-4.73-4.88-3.3-1.05-6.46,.36-8.24,3.72-1.8,3.4-2.17,7.1-2.02,10.89Z"/>
  <path class="cls-1" d="M181.42,133c-.38,6.67-1.79,12.92-6.18,18.08-5.94,6.97-13.66,9.1-22.44,7.23-9.2-1.95-14.6-8.07-16.85-16.9-1.87-7.34-1.55-14.71,1.58-21.74,3.94-8.84,12.35-13.87,21.94-13.3,9.56,.57,17.48,6.95,20.18,16.59,.91,3.26,1.19,6.69,1.76,10.04Zm-14.64,.04c-.69-3.35-1.13-6.67-2.1-9.83-.93-3.06-3.2-5.11-6.54-5.18-3.34-.07-5.63,1.91-6.75,4.91-2.45,6.56-2.49,13.24-.13,19.82,1.2,3.36,3.86,5.13,6.88,5.01,3.37-.14,5.64-2.04,6.58-5.11,.95-3.1,1.38-6.35,2.06-9.63Z"/>
  <path class="cls-1" d="M277.93,153.56c-4.62,5.04-10.2,6.08-16.35,5-5.57-.97-9.92-5.75-10.42-11.57-.2-2.38-.28-4.86,.17-7.18,1.23-6.39,6.02-10.79,12.6-11.32,3.86-.31,7.79,.13,11.69,.24,.5,.01,.99,0,1.59,0,0-1.72,.22-3.44-.05-5.09-.5-3.13-2.45-4.65-6.04-4.93-3.95-.31-7.61,.63-11.14,2.46-1.35,.7-3.11,.67-4.69,.83-.25,.02-.81-.75-.82-1.16-.07-3.1-.11-6.21,.03-9.31,.03-.59,.82-1.38,1.44-1.65,5.72-2.51,11.74-3.5,17.96-3.21,2.39,.11,4.81,.32,7.13,.86,6.94,1.61,11.14,6.55,11.25,13.65,.18,11.98,.06,23.96,.11,35.94,0,1.15-.39,1.57-1.54,1.54-2.15-.06-4.31-.1-6.46,0-2.93,.13-4.83-1.14-5.83-3.87-.12-.34-.32-.65-.61-1.22Zm-.57-12.42c0-.57,0-1.14,0-1.71q0-5.07-5-5.35c-4.48-.25-7.79,2.86-8.15,7.64-.36,4.86,2.01,8,6.63,8,1.99,0,4.15-.97,5.87-2.07,.71-.45,.52-2.39,.64-3.67,.09-.94,.02-1.9,.02-2.84Z"/>
  <path class="cls-1" d="M300.34,109.03c.2-2.58,.29-4.91,.59-7.21,.79-6.07,4.88-10.17,11.03-10.67,3.83-.31,7.7-.06,11.92-.06,0,2.02,.01,4.27,0,6.52-.01,1.33,.42,3.05-.25,3.86-.6,.73-2.42,.46-3.71,.61-3.4,.4-5.03,2.6-4.27,5.96,.09,.4,.81,.9,1.27,.93,1.51,.12,3.04,.09,4.56,.04,1-.04,1.34,.38,1.33,1.34-.03,2.72-.04,5.45,0,8.18,.01,1.04-.48,1.3-1.4,1.27-1.27-.04-2.54,.08-3.8-.03-1.59-.14-2.07,.49-2.06,2.05,.06,7.73,.03,15.46,.03,23.2,0,3.99-.07,7.99,.04,11.98,.04,1.63-.52,2.03-2.06,1.99-3.67-.1-7.35-.12-11.03,0-1.64,.05-1.99-.53-1.98-2.06,.06-11.53,.03-23.07,.03-34.6,0-2.49,0-2.6-2.43-2.5-1.6,.07-1.95-.6-1.9-2,.07-2.22,.12-4.44-.01-6.65-.11-1.8,.57-2.41,2.28-2.17,.55,.08,1.13,.01,1.85,.01Z"/>
  <path class="cls-1" d="M224.06,133.16c0-4.37-.04-8.74,.02-13.11,.02-1.48-.34-2.36-2-2.11-1.85,.28-2.45-.49-2.33-2.32,.14-2.21,.09-4.43,.01-6.65-.05-1.35,.33-1.93,1.81-1.89,2.47,.07,2.48-.02,2.48-2.49,0-2.98,.04-5.96-.02-8.93-.02-1.17,.42-1.54,1.55-1.53,3.86,.05,7.73,.06,11.59,0,1.27-.02,1.65,.49,1.63,1.68-.05,2.79-.01,5.57-.01,8.36q0,2.95,3.04,2.95c1.2,0,2.42-.11,3.6,.06,.46,.07,1.18,.74,1.19,1.16,.11,2.78,.03,5.57,.07,8.36,.01,1.06-.55,1.26-1.43,1.25-1.65-.03-3.29,.03-4.94,0-1.05-.02-1.52,.45-1.51,1.47,.08,8.1,.1,16.21,.29,24.31,.06,2.56,1.87,3.89,4.83,4.08q3.47,.23,3.47,3.76c0,1.52-.08,3.05,.02,4.56,.08,1.19-.39,1.7-1.5,1.96-4.05,.94-8.12,1.28-12.21,.37-6.06-1.36-9.49-5.66-9.61-12.16-.09-4.37-.02-8.74-.02-13.11-.01,0-.03,0-.04,0Z"/>
  <path class="cls-1" d="M390.46,158.95c-4.99,0-9.61,.03-14.22-.05-.42,0-.93-.72-1.21-1.21-.19-.34-.05-.87-.05-1.31,0-20.9,0-41.8,0-62.69q0-2.59,2.59-2.59c2.98,0,5.95-.02,8.93,0,2.53,.02,3.82,1.3,3.95,3.83,.02,.38,0,.76,0,1.14,0,20.2,0,40.4,0,60.6,0,.68,0,1.36,0,2.28Z"/>
  <path class="cls-1" d="M215.38,121.44c-4.24,.47-8.28,.93-12.33,1.34-1.61,.16-2.02,1.02-2.01,2.55,.05,10.52,0,21.03,.07,31.55,.01,1.69-.47,2.16-2.14,2.11-4.3-.12-8.61-.04-13.15-.04-.05-.76-.13-1.43-.13-2.09,0-16.03,.03-32.06-.05-48.09,0-1.81,.58-2.28,2.27-2.22,2.97,.11,5.95,0,8.93,.04,3.16,.03,4.17,1.05,4.31,4.21,.04,.8,.08,1.6,.55,2.58,.39-.5,.79-.99,1.18-1.5,2.75-3.62,6.29-5.64,10.94-5.26,.57,.05,1.57,.65,1.58,1.02,.11,4.24,.08,8.49,.08,12.73,0,.49-.08,.98-.08,1.04Z"/>
  <path class="cls-1" d="M395.27,158.96v-2.23c0-14.83,.03-29.65-.04-44.48,0-1.74,.46-2.34,2.22-2.26,2.91,.13,5.83,.02,8.74,.04,2.99,.02,4.21,1.17,4.4,4.2,.06,.95,.01,1.9,.01,2.85,0,13.3-.03,26.61,.04,39.91,0,1.6-.47,2.04-2.03,2-4.35-.1-8.71-.03-13.33-.03Z"/>
  <path class="cls-1" d="M402.82,104.23c-2.02,0-4.05-.03-6.07,.01-1,.02-1.51-.24-1.49-1.38,.05-3.47,.04-6.95,0-10.43,0-.96,.32-1.36,1.31-1.36,3.54,.04,7.08,0,10.62,.03,1.68,.02,2.89,.95,3.03,2.56,.27,3.2,.3,6.42,.31,9.63,0,.3-.82,.86-1.27,.88-2.14,.09-4.3,.04-6.44,.04Z"/>
</svg>