<svg width="100" height="25" viewBox="0 0 100 25" fill="none" xmlns="http://www.w3.org/2000/svg">
<path d="M26.5606 7.06256C26.0787 7.09927 25.5989 7.16092 25.1234 7.24728V0.926758H22.751C22.751 6.42185 22.751 11.8939 22.751 17.4063C22.7417 17.6275 22.773 17.8486 22.8434 18.0585C23.0532 18.3635 23.3245 18.621 23.6399 18.8147C28.0325 20.9158 32.7484 17.8681 32.5406 13.0425C32.3674 9.48111 29.8219 6.9298 26.5606 7.06256ZM29.2678 16.223C28.8481 16.7343 28.2908 17.1148 27.6617 17.3194C27.0326 17.524 26.3581 17.5441 25.7179 17.3774C25.5594 17.3114 25.4196 17.2074 25.3108 17.0745C25.2021 16.9416 25.1278 16.7839 25.0945 16.6155C25.0195 15.5072 25.0945 14.3932 25.0945 13.2792C25.0945 12.1652 25.1292 11.1839 25.0945 10.1449C25.0741 10.0256 25.0786 9.90342 25.1077 9.78597C25.1368 9.66851 25.1899 9.55834 25.2636 9.46239C25.3373 9.36644 25.4301 9.28678 25.5361 9.22841C25.6421 9.17004 25.759 9.13423 25.8795 9.12323C26.4673 8.94927 27.0931 8.95112 27.6798 9.12857C28.2665 9.30601 28.7884 9.65129 29.1812 10.1218C30.5492 11.6745 30.6011 14.6068 29.2504 16.223H29.2678Z" fill="white"/>
<path d="M63.5717 7.68018C61.1243 9.04241 59.9757 12.2979 60.8762 15.3052C61.7247 18.1393 63.9354 19.6286 66.9888 19.4265C67.8325 19.3336 68.6619 19.1398 69.4594 18.8493C69.6077 18.0884 69.6869 17.3156 69.696 16.5405C66.1115 18.4106 63.1735 17.262 63.0119 13.7929H68.0105L70.3887 12.2517C70.3887 12.2517 70.3887 11.5937 70.3887 11.2936C70.334 10.5239 70.0843 9.78073 69.6633 9.13409C69.2422 8.48746 68.6636 7.95856 67.9818 7.59718C67.3001 7.2358 66.5376 7.05382 65.7661 7.06834C64.9946 7.08286 64.2394 7.29341 63.5717 7.68018ZM68.0279 11.9169H63.0926C63.589 10.0179 64.8243 8.85193 66.1173 9.03087C67.3179 9.12322 68.0798 10.2603 68.0279 11.8881V11.9169Z" fill="white"/>
<path d="M74.6831 4.08991L72.4493 5.49254V7.27613L70.4521 7.37427V9.18671H72.3916C72.3916 11.4956 72.3916 13.6775 72.3916 15.8593C72.3416 16.6489 72.5849 17.4291 73.075 18.0502C73.565 18.6713 74.2672 19.0895 75.0468 19.2245C75.501 19.3393 75.972 19.3725 76.4379 19.3226C76.7234 18.6642 76.9757 17.9918 77.194 17.3081C75.5893 17.5968 74.6658 17.3082 74.6658 15.1378C74.6658 14.3066 74.6658 10.8491 74.6658 9.11169H77.979C78.0887 8.53448 78.1811 7.95725 78.3023 7.29345H74.6716L74.6831 4.08991Z" fill="white"/>
<path d="M85.5406 7.21265C84.8363 7.14722 84.1271 7.26234 83.4797 7.54714C82.8323 7.83195 82.2682 8.27705 81.8406 8.8404V7.28769H79.7626V19.1033H82.0138C82.0138 16.9676 81.9849 14.9127 82.0138 12.852C82.0426 10.7914 83.2952 9.38876 85.4136 9.12901C85.5841 9.09509 85.752 9.04878 85.9158 8.99047C85.783 8.35553 85.6618 7.77255 85.5406 7.21265Z" fill="white"/>
<path d="M39.0574 19.1148H41.2623V7.3858H39.0574V19.1148Z" fill="white"/>
<path d="M40.1599 5.23279C40.8867 5.23279 41.4759 4.64358 41.4759 3.91674C41.4759 3.18991 40.8867 2.60069 40.1599 2.60069C39.433 2.60069 38.8438 3.18991 38.8438 3.91674C38.8438 4.64358 39.433 5.23279 40.1599 5.23279Z" fill="white"/>
<path d="M92.5826 6.59503C91.2251 6.58932 89.8965 6.98663 88.765 7.73664C87.6335 8.48665 86.7501 9.55562 86.2267 10.8081C85.7032 12.0606 85.5633 13.4403 85.8246 14.7724C86.086 16.1045 86.7368 17.329 87.6946 18.2909C88.6525 19.2528 89.8743 19.9088 91.2053 20.1757C92.5362 20.4427 93.9165 20.3086 95.1712 19.7904C96.4259 19.2722 97.4986 18.3934 98.2533 17.2651C99.0081 16.1368 99.411 14.8098 99.411 13.4524C99.4126 11.6382 98.6946 9.89749 97.4145 8.61199C96.1344 7.32649 94.3967 6.60114 92.5826 6.59503ZM92.0631 7.6802V10.2719C91.4792 10.2539 90.8988 10.1746 90.3314 10.0352C90.7066 9.10591 91.0991 8.20546 92.0631 7.6802ZM92.0631 11.2993V12.9444H89.8177C89.8397 12.2995 89.9209 11.6581 90.0601 11.028L92.0631 11.2993ZM90.1756 8.10157C89.8477 8.62686 89.5824 9.18864 89.3848 9.77549L88.4035 9.32527C88.9097 8.80677 89.5114 8.39122 90.1756 8.10157ZM87.7455 10.1045L89.1019 10.7452C88.9425 11.4684 88.8478 12.2044 88.8191 12.9444H86.718C86.8054 11.924 87.1598 10.9446 87.7455 10.1045ZM86.7238 13.9545H88.8191C88.8479 14.6949 88.9445 15.431 89.1077 16.1537L87.7513 16.7887C87.1658 15.951 86.8133 14.973 86.7296 13.9545H86.7238ZM88.392 17.5737L89.379 17.1177C89.5741 17.7073 89.8396 18.2713 90.1698 18.7974C89.5076 18.5043 88.9064 18.0891 88.3978 17.5737H88.392ZM92.0573 19.2014L91.9245 19.1437C91.5596 18.9306 91.2524 18.6314 91.0299 18.2721C90.7479 17.8485 90.5209 17.3908 90.3545 16.9099V16.8522C90.9235 16.7225 91.5031 16.6452 92.0862 16.6213L92.0573 19.2014ZM91.9823 15.6342C91.3554 15.6723 90.7321 15.7572 90.1179 15.8882H90.0544C89.9114 15.2528 89.8284 14.6054 89.8062 13.9545H92.0458C92.049 13.9756 92.049 13.997 92.0458 14.018V15.5419C92.0689 15.6054 92.0573 15.6342 91.988 15.6342H91.9823ZM96.2941 12.9444C96.2646 12.2044 96.17 11.4685 96.0112 10.7452L97.3619 10.1103C97.9508 10.9475 98.3091 11.9249 98.4009 12.9444H96.2941ZM96.7212 9.32527L95.7515 9.77549C95.6245 9.47534 95.5148 9.19828 95.3821 8.90967C95.2493 8.62106 95.0934 8.37286 94.9434 8.09579C95.6097 8.39023 96.2147 8.8073 96.727 9.32527H96.7212ZM93.0617 7.6802C93.1713 7.74369 93.2694 7.78986 93.3618 7.85335C93.6473 8.05596 93.8921 8.31054 94.0833 8.60375C94.3784 9.05081 94.6151 9.53382 94.7875 10.041C94.2185 10.1699 93.6389 10.2472 93.0559 10.2719L93.0617 7.6802ZM93.0617 11.2936L95.0646 11.028C95.2049 11.6559 95.2861 12.2956 95.307 12.9386H93.0617V11.2936ZM93.0617 14.0527C93.0617 14.018 93.0617 13.9834 93.0617 13.943H95.307C95.2852 14.5977 95.2021 15.249 95.0588 15.8882C94.851 15.8478 94.6548 15.8016 94.4816 15.7728L93.2002 15.6285C93.1136 15.6285 93.0732 15.6285 93.079 15.5072C93.0617 15.0282 93.0559 14.5433 93.0559 14.0584L93.0617 14.0527ZM93.0617 16.627C93.6459 16.6359 94.2271 16.7134 94.7933 16.8579C94.4181 17.7872 94.0256 18.6935 93.0617 19.2245V16.627ZM94.9491 18.7916C95.28 18.2651 95.5473 17.7013 95.7457 17.1119L96.727 17.5679C96.2183 18.0874 95.6148 18.5048 94.9491 18.7974V18.7916ZM97.3677 16.7829L96.017 16.148C96.1793 15.4233 96.274 14.6851 96.2998 13.943H98.3836C98.3104 14.9664 97.9591 15.9503 97.3677 16.7887V16.7829Z" fill="white"/>
<path d="M36.2636 15.5419V15.132C36.2636 10.751 36.2636 6.36992 36.2636 1.98885C36.2636 1.95422 36.2636 1.91381 36.2636 1.87918V0.926758H34.001C34.001 5.65415 34.001 10.3758 34.001 15.1032V15.259C34.001 15.7497 34.001 16.2461 34.001 16.7367C34.0447 17.3845 34.2664 18.0077 34.6417 18.5376C34.9029 18.7896 35.2318 18.96 35.5883 19.0283C35.5883 19.0283 37.5682 18.4049 37.8279 18.2317C36.3733 17.6314 36.2579 16.6501 36.2636 15.5419Z" fill="white"/>
<path d="M56.4142 7.10298C55.6328 6.97695 54.8325 7.04299 54.0823 7.29541C53.3321 7.54782 52.6545 7.97903 52.1082 8.5518C50.3362 6.6643 48.3621 6.64699 46.0417 8.24587V7.28769H43.9637V19.1379H46.186V18.0701C46.186 15.7612 46.186 13.4928 46.186 11.2012C46.186 9.78704 46.9652 9.04242 48.391 9.03088C49.8167 9.01934 50.6017 9.74085 50.6074 11.1723C50.6074 13.5274 50.6074 15.8824 50.6074 18.2375V19.161H52.9163V18.1624C52.9163 15.8074 52.9163 13.4524 52.9163 11.0973C52.8704 10.6692 52.9814 10.239 53.2288 9.8865C53.4762 9.53406 53.843 9.28336 54.2612 9.18096C56.0564 8.60375 57.3262 9.51574 57.332 11.3802V19.1495H59.5601C59.5601 16.1422 59.6466 13.2041 59.5601 10.2719C59.4619 8.49406 58.1805 7.33387 56.4142 7.10298Z" fill="white"/>
<path d="M18.9356 7.96302C18.9356 10.3527 18.9356 12.7366 18.9356 15.1263C18.9356 16.6674 17.9601 17.5217 16.4132 17.4929C14.8662 17.464 14.2198 16.7021 14.2082 15.1032C14.2082 13.7333 14.2082 12.3653 14.2082 10.9992V7.36849H11.8994V10.9992C11.8994 12.3441 11.8994 13.689 11.8994 15.0397C11.8994 18.1509 13.7061 19.7959 16.7942 19.363C17.6097 19.1482 18.3965 18.8362 19.1377 18.4337L19.2646 19.1379H21.1175V7.40312H18.9991C18.9587 7.64555 18.9356 7.80717 18.9356 7.96302Z" fill="white"/>
<path d="M6.39273 7.17224C5.7608 7.01336 5.10071 7.00259 4.46393 7.14076C3.82715 7.27893 3.2309 7.56231 2.72164 7.9688C2.70976 7.95078 2.70008 7.93139 2.69279 7.91107V7.28769H0.585938V24.8928H2.8948V18.9994C6.24842 19.8941 8.57461 19.1668 9.97147 16.8579C11.478 14.3643 11.224 10.7567 9.22684 8.7769C8.49034 7.93744 7.49148 7.37188 6.39273 7.17224ZM8.23982 15.2013C7.82423 16.8348 6.43891 17.6199 4.77653 17.4467C3.30463 17.2851 2.87172 16.8117 2.87172 15.3398V11.2993C2.87172 9.61386 4.09541 8.66723 5.81551 9.03665C6.50177 9.17104 7.1255 9.52551 7.59215 10.0463C8.0588 10.5671 8.3429 11.2259 8.40143 11.9227C8.56295 13.0099 8.50804 14.1182 8.23982 15.184V15.2013Z" fill="white"/>
</svg>
