<?xml version="1.0" encoding="UTF-8"?>
<svg id="Capa_5" data-name="Capa 5" xmlns="http://www.w3.org/2000/svg" viewBox="0 0 550 250">
  <defs>
    <style>
      .cls-1 {
        fill: #fff;
      }
    </style>
  </defs>
  <path class="cls-1" d="M177.52,99.97c-2,.2-4,.4-6,.8v-26.5h-10v69.2c0,.9,.1,1.9,.4,2.7,.9,1.3,2,2.4,3.3,3.2,18.5,8.8,38.3-4,37.4-24.2-.8-15-11.4-25.7-25.1-25.2Zm11.3,38.5c-1.8,2.1-4.1,3.7-6.7,4.6-2.6,.9-5.5,.9-8.2,.2-.7-.3-1.3-.7-1.7-1.3-.5-.6-.8-1.2-.9-1.9-.3-4.7,0-9.3,0-14s.1-8.8,0-13.2c-.1-.5-.1-1,.1-1.5,.1-.5,.3-1,.7-1.4,.3-.4,.7-.7,1.1-1,.4-.2,.9-.4,1.4-.4,2.5-.7,5.1-.7,7.6,0s4.7,2.2,6.3,4.2c5.7,6.6,5.9,18.9,.3,25.7h0Z"/>
  <path class="cls-1" d="M332.92,102.57c-10.3,5.7-15.1,19.4-11.3,32,3.6,11.9,12.8,18.2,25.7,17.3,3.5-.4,7-1.2,10.4-2.4,.6-3.2,1-6.4,1-9.7-15.1,7.9-27.4,3-28.1-11.5h21l10-6.5v-4c-.2-3.2-1.3-6.4-3-9.1-1.8-2.7-4.2-4.9-7.1-6.5-2.9-1.5-6.1-2.3-9.3-2.2-3.3,.1-6.5,1-9.3,2.6Zm18.7,17.8h-20.7c2.1-8,7.3-12.9,12.7-12.1,5,.4,8.2,5.2,8,12v.1Z"/>
  <path class="cls-1" d="M379.62,87.57l-9.4,5.9v7.5l-8.4,.4v7.6h8.1v28c-.2,3.3,.8,6.6,2.9,9.2,2.1,2.6,5,4.4,8.3,4.9,1.9,.5,3.9,.6,5.8,.4,1.2-2.8,2.3-5.6,3.2-8.5-6.7,1.2-10.6,0-10.6-9.1v-25.3h13.9c.5-2.4,.8-4.8,1.4-7.6h-15.2v-13.4Z"/>
  <path class="cls-1" d="M425.22,100.67c-3-.3-5.9,.2-8.7,1.4-2.7,1.2-5.1,3.1-6.9,5.4v-6.5h-8.7v49.6h9.5c0-9-.1-17.6,0-26.3s5.4-14.5,14.3-15.6c.7-.1,1.4-.3,2.1-.6-.6-2.6-1.1-5.1-1.6-7.4Z"/>
  <path class="cls-1" d="M229.92,150.67h9.3v-49.3h-9.3v49.3Z"/>
  <path class="cls-1" d="M234.62,92.37c3.1,0,5.5-2.5,5.5-5.5s-2.5-5.5-5.5-5.5-5.5,2.5-5.5,5.5c-.1,3,2.4,5.5,5.5,5.5Z"/>
  <path class="cls-1" d="M454.82,98.07c-5.7,0-11.3,1.6-16,4.8-4.8,3.2-8.5,7.6-10.7,12.9-2.2,5.3-2.8,11.1-1.7,16.7,1.1,5.6,3.8,10.7,7.9,14.8,4,4,9.2,6.8,14.7,7.9,5.6,1.1,11.4,.6,16.7-1.6,5.3-2.2,9.8-5.9,12.9-10.6,3.2-4.7,4.9-10.3,4.9-16,0-7.6-3-14.9-8.4-20.3-5.4-5.6-12.7-8.6-20.3-8.6Zm-2.2,4.5v10.9c-2.5-.1-4.9-.4-7.3-1,1.6-3.9,3.2-7.7,7.3-9.9Zm0,15.2v6.9h-9.4c.1-2.7,.4-5.4,1-8l8.4,1.1Zm-7.9-13.4c-1.4,2.2-2.5,4.6-3.3,7l-4.1-1.9c2-2.1,4.6-3.9,7.4-5.1Zm-10.3,8.4l5.7,2.7c-.7,3-1.1,6.1-1.2,9.2h-8.8c.4-4.2,1.9-8.4,4.3-11.9Zm-4.2,16.2h8.8c.1,3.1,.5,6.2,1.2,9.2l-5.7,2.7c-2.5-3.5-4-7.6-4.3-11.9h0Zm7,15.2l4.1-1.9c.8,2.5,1.9,4.8,3.3,7.1-2.8-1.3-5.3-3-7.4-5.2h0Zm15.4,6.8l-.6-.2c-1.5-.9-2.8-2.2-3.8-3.7-1.2-1.8-2.1-3.7-2.8-5.7v-.2c2.4-.5,4.8-.9,7.3-1l-.1,10.8Zm-.4-15c-2.6,.2-5.3,.5-7.8,1.1h-.3c-.6-2.7-.9-5.4-1-8.1h9.4v6.7c.1,.2,.1,.3-.3,.3h0Zm18.2-11.3c-.1-3.1-.5-6.2-1.2-9.2l5.7-2.7c2.5,3.5,4,7.6,4.4,11.9h-8.9Zm1.7-15.2l-4.1,1.9c-.5-1.3-1-2.4-1.5-3.6-.6-1.2-1.2-2.3-1.8-3.4,2.8,1.2,5.3,3,7.4,5.1h0Zm-15.3-6.9c.5,.3,.9,.5,1.3,.7,1.2,.9,2.2,1.9,3,3.2,1.2,1.9,2.2,3.9,3,6-2.4,.5-4.8,.9-7.3,1v-10.9Zm0,15.2l8.4-1.1c.6,2.6,.9,5.3,1,8h-9.4v-6.9Zm0,11.6v-.5h9.4c-.1,2.7-.4,5.5-1,8.2-.9-.2-1.7-.4-2.4-.5l-5.4-.6c-.4,0-.5,0-.5-.5-.1-2-.1-4-.1-6.1h0Zm0,10.8c2.5,0,4.9,.4,7.3,1-1.6,3.9-3.2,7.7-7.3,9.9v-10.9Zm7.9,9.1c1.4-2.2,2.5-4.6,3.3-7.1l4.1,1.9c-2.1,2.2-4.6,4-7.4,5.2h0Zm10.2-8.4l-5.7-2.7c.7-3,1.1-6.1,1.2-9.3h8.8c-.4,4.3-1.9,8.5-4.3,12h0Z"/>
  <path class="cls-1" d="M218.22,135.67v-61.4h-9.5v66.4c.2,2.7,1.1,5.3,2.7,7.6,1.1,1.1,2.5,1.8,4,2.1,0,0,8.3-2.6,9.4-3.3-6.1-2.7-6.6-6.8-6.6-11.4Z"/>
  <path class="cls-1" d="M302.82,100.17c-3.3-.5-6.6-.3-9.8,.8-3.2,1.1-6,2.9-8.3,5.3-7.4-7.9-15.7-8-25.5-1.3v-4h-8.7v49.8h9.3v-33.4c0-5.9,3.3-9.1,9.3-9.1s9.3,3,9.3,9v33.6h9.7v-33.9c-.2-1.8,.3-3.6,1.3-5.1s2.6-2.5,4.3-3c7.5-2.4,12.9,1.4,12.9,9.2v32.6h9.4c0-12.6,.4-25,0-37.3-.4-7.3-5.7-12.2-13.2-13.2Z"/>
  <path class="cls-1" d="M145.42,103.77v30.1c0,6.5-4.1,10.1-10.6,9.9-6.5-.1-9.2-3.3-9.3-10v-32.4h-9.7v32.2c0,13.1,7.6,20,20.6,18.2,3.4-.9,6.7-2.2,9.8-3.9l.5,3h7.8v-49.3h-8.9c-.1,.9-.2,1.6-.2,2.2Z"/>
  <path class="cls-1" d="M92.72,100.47c-2.7-.7-5.4-.7-8.1-.1-2.7,.6-5.2,1.8-7.3,3.5-.1-.1-.1-.2-.1-.2v-2.6h-8.8v73.9h9.7v-24.8c14.1,3.8,23.9,.7,29.7-9,6.3-10.5,5.3-25.6-3.1-33.9-3.1-3.6-7.3-6-12-6.8Zm7.8,33.7c-1.7,6.9-7.6,10.2-14.5,9.4-6.2-.7-8-2.7-8-8.8v-17c0-7.1,5.1-11.1,12.4-9.5,2.9,.6,5.5,2.1,7.5,4.2,2,2.2,3.2,5,3.4,7.9,.6,4.6,.3,9.3-.8,13.8h0Z"/>
</svg>