<?xml version="1.0" encoding="UTF-8"?>
<svg id="Capa_10" data-name="Capa 10" xmlns="http://www.w3.org/2000/svg" viewBox="0 0 550 250">
  <defs>
    <style>
      .cls-1 {
        fill: #fff;
      }
    </style>
  </defs>
  <path class="cls-1" d="M203.38,135.46c0-12.32,.02-24.63-.03-36.95,0-1.25,.24-1.87,1.58-2.11,10.81-1.98,21.68-3,32.66-1.95,3.73,.36,7.33,1.28,10.76,2.84,8.71,3.96,12.98,11.07,14.1,20.25,.87,7.12,.36,14.18-2.27,20.92-3.48,8.92-10.34,13.7-19.57,15.31-5.51,.96-11.03,.93-16.46-.55-1.28-.35-1.3,.18-1.3,1.15,.02,6.03-.02,12.07,.04,18.1,.01,1.36-.19,1.94-1.78,1.9-5.35-.12-10.7-.1-16.05,0-1.44,.03-1.73-.39-1.72-1.76,.06-12.38,.03-24.76,.03-37.13Zm19.49-12.2c0,3.6,.07,7.21-.04,10.81-.04,1.33,.45,1.83,1.64,2.19,3.25,.97,6.55,1.39,9.93,1.17,3.72-.24,6.28-2.11,7.62-5.59,1.44-3.73,1.75-7.63,1.31-11.55-.62-5.4-2.85-8.09-7.49-9.21-4.05-.99-8.16-.43-12.25-.21-1.03,.06-.71,.86-.71,1.4-.02,3.67-.01,7.33-.01,11Z"/>
  <path class="cls-1" d="M308.05,151.25c-4.91,2.81-9.91,4.77-15.36,5.36-4.05,.44-8.07,.29-12.01-.83-8.08-2.31-13.14-8.77-14.06-17.8-.62-6.08-.27-12.18-.32-18.27-.07-8.02,.01-16.04-.05-24.07,0-1.28,.27-1.67,1.61-1.65,5.6,.08,11.2,.08,16.79,0,1.37-.02,1.77,.29,1.76,1.72-.06,11.88-.04,23.76-.04,35.63,0,.37,0,.75,0,1.12,.06,5.79,2.67,7.97,8.42,7.03,3.92-.64,7.19-2.61,10.23-5.05,.8-.64,.62-1.43,.62-2.2,.01-12.06,.04-24.13-.03-36.19,0-1.57,.27-2.11,1.99-2.07,5.47,.13,10.95,.09,16.42,.02,1.23-.01,1.69,.2,1.68,1.58-.05,19.9-.04,39.8-.01,59.7,0,1.15-.2,1.6-1.49,1.58-4.48-.09-8.96-.07-13.44,0-1.07,.01-1.55-.25-1.71-1.37-.19-1.34-.63-2.65-1.03-4.23Z"/>
  <path class="cls-1" d="M472.49,125.13c.05,4.82-.45,9.3-1.9,13.66-2.86,8.65-8.73,14.15-17.47,16.51-8.21,2.22-16.49,2.21-24.67-.18-8.94-2.62-14.7-8.56-17.22-17.48-2.27-8.06-2.3-16.23-.04-24.3,2.6-9.32,8.68-15.27,18.04-17.8,7.6-2.06,15.28-2.09,22.88-.24,10.96,2.68,17.32,9.87,19.55,20.83,.62,3.06,.87,6.15,.83,9.01Zm-19.84-.1c.08-2.06-.17-4.47-.84-6.82-1.16-4.1-3.78-6.65-8.06-7.25-1.41-.2-2.86-.17-4.28-.1-4.55,.22-7.57,2.51-8.92,6.88-1.56,5.06-1.48,10.18,0,15.25,1.28,4.37,4.25,6.7,8.79,7.09,1.38,.12,2.73,.1,4.09-.07,3.71-.46,6.33-2.34,7.77-5.83,1.16-2.82,1.47-5.76,1.45-9.14Z"/>
  <path class="cls-1" d="M382.66,110.98c-7.75,0-15.07-.06-22.39,.04-1.73,.02-2.16-.47-2.12-2.15,.12-4.47,.08-8.95,.01-13.43-.02-1.18,.34-1.44,1.46-1.44,15.05,.04,30.11,.03,45.16,0,1.06,0,1.37,.3,1.36,1.35-.05,4.29-.05,8.58,0,12.87,0,.9-.4,1.5-.92,2.14-7.66,9.47-15.31,18.95-22.97,28.43-.34,.42-.66,.84-1.23,1.57,.92,0,1.51,0,2.09,0,6.84,0,13.69,.02,20.53-.02,1.11,0,1.51,.24,1.49,1.43-.07,4.54-.07,9.08,0,13.62,.02,1.18-.36,1.44-1.48,1.44-14.99-.03-29.98-.04-44.97,0-1.26,0-1.57-.37-1.55-1.57,.07-3.79,.08-7.59,0-11.38-.03-1.28,.39-2.22,1.18-3.19,7.6-9.21,15.16-18.44,22.72-27.67,.47-.57,.91-1.16,1.62-2.06Z"/>
  <path class="cls-1" d="M192.17,127.83c-.04,22.42-17.67,44.32-43.07,50.76-25.59,6.48-52.9-5.28-65.11-28.05-12.84-23.95-6.2-52.82,15.96-69.4,26.68-19.96,65.31-13.2,83.52,14.67,5.79,8.87,8.62,18.66,8.69,32.03Zm-105.13,18.46c-.07,.39,.08,.69,.38,.93,5.77,10.99,14.1,19.23,25.71,23.95,.1,.45,.42,.54,.82,.49v-.06c.13,.53,.61,.6,1,.74,6.12,2.33,12.48,3.67,19.02,3.76,8.34,.11,16.37-1.57,23.93-5.15,3.45-1.64,6.85-3.42,9.46-6.35,.78,.16,1.27-.34,1.8-.77,19.86-15.88,24.45-44.71,10.49-65.95-11.69-17.78-33.31-27.04-54.23-23.13-13.53,2.52-24.69,9.04-33.11,20.04-.44,1.39-1.6,2.31-2.36,3.5-8.56,13.25-10.04,27.42-5.43,42.34,.49,1.57,.64,3.44,2.18,4.57h-.02c-.09,.44-.12,.88,.41,1.11l-.02-.02Z"/>
  <path class="cls-1" d="M332.73,116.64c0-12.69,.04-25.38-.05-38.06-.01-1.77,.53-2.11,2.15-2.07,4.54,.11,9.08,.09,13.62,0,1.32-.02,1.81,.21,1.8,1.69-.05,25.69-.04,51.37-.01,77.06,0,1.16-.22,1.61-1.51,1.59-4.85-.08-9.71-.09-14.56,0-1.33,.02-1.47-.48-1.47-1.6,.03-12.87,.02-25.75,.02-38.62Z"/>
  <path class="cls-1" d="M86.68,145.2c-1.54-1.13-1.69-3-2.18-4.57-4.61-14.91-3.13-29.08,5.43-42.34,.76-1.18,1.92-2.1,2.36-3.5,.82,.18,1.23-.41,1.72-.89,16.01-15.5,39.07-19.48,59.42-10.26,24.55,11.13,35.86,39.13,25.75,63.74-2.71,6.59-6.86,12.19-11.84,17.22-2.61,2.92-6,4.71-9.46,6.35-7.56,3.58-15.59,5.26-23.93,5.15-6.54-.09-12.89-1.42-19.02-3.76-.38-.15-.87-.21-.98-.74,.36,.07,.74,.1,1.09,.22,6.43,2.23,13.03,3.09,19.82,2.53,12.78-1.05,23.5-6.3,32.13-15.78,.34-.37,1.17-.63,.7-1.44l-.03,.03c.5,.23,.56,.03,.4-.4l-.03,.03c.46,.2,.49-.04,.4-.4l-.03,.03c.44,.17,.32-.2,.37-.39,.74-.83,1.6-1.59,2.19-2.52,7.1-11.17,9.37-23.17,6-36.08-.25-.96-.25-2.1-1.24-2.75l.1-.05c.07-.45,.15-.91-.39-1.15l.03,.03c.05-.45,.11-.9-.41-1.15l.03,.05c.05-.35,0-.66-.36-.83-3.09-7.65-7.98-13.91-14.57-18.87-3.84-2.89-8.21-4.71-12.6-6.53-.43-.5-1.06-.61-1.64-.81-7.17-2.4-14.52-2.8-21.96-1.76-7.22,1.01-13.93,3.37-19.78,7.86-.2,.04-.54-.06-.38,.36l.03-.02c-.51-.37-.64,.01-.78,.39l.02-.03c-1.53,.49-2.59,1.67-3.71,2.69-11.32,10.24-16.67,22.89-15.43,38.22,.34,4.19,1.61,8.13,2.75,12.12Z"/>
  <path class="cls-1" d="M86.65,145.18c.46,.26,.5,.67,.41,1.13-.53-.23-.5-.67-.41-1.13Z"/>
  <path class="cls-1" d="M87.04,146.3c.5,.16,.47,.53,.38,.93-.3-.24-.45-.54-.38-.93Z"/>
  <path class="cls-1" d="M113.13,171.18c.3,.12,.7,.06,.82,.49-.4,.05-.72-.04-.82-.49Z"/>
  <path class="cls-1" d="M167.7,157.14c-.95,.12-1.41,.95-2.04,1.49-23.91,20.48-61.71,11.62-73.64-17.26-6.59-15.94-2.81-34.6,9.48-47.06,.6-.61,1.77-.91,1.58-2.14,0,0-.02,.03-.02,.03,.52,.39,.67,.04,.78-.39,0,0-.03,.02-.03,.02,.3,.06,.34-.14,.38-.36,5.85-4.49,12.57-6.85,19.78-7.86,7.43-1.04,14.78-.64,21.96,1.76,.59,.2,1.21,.31,1.64,.81-.58,.19-1.09-.07-1.63-.2-10.46-2.52-20.58-1.61-30.21,3.26-6.65,3.36-12.18,8.04-16.05,14.51l.02-.02c-.25,.22-.87,.28-.38,.84-.65,.73-1.33,1.4-1.76,2.33-5,10.65-5.77,21.49-1.54,32.57,.26,.69,.28,1.63,1.28,1.83l-.02,.09c-.19,.36-.19,.66,.3,.76h0c-.1,.38-.07,.68,.38,.79,.3,1.14,1.05,2.05,1.64,3.03,4.69,7.82,11.46,13.12,19.92,16.38,.29,.44,.71,.44,1.16,.36h-.02c.29,.54,.77,.43,1.24,.34,.08-.01,.15,.01,.2,.07,.48,.69,1.27,.76,1.97,.93,6.72,1.66,13.5,1.93,20.26,.43,5.78-1.28,11.24-3.41,15.89-7.23,.23-.08,.5-.13,.4-.48l-.03,.03c.31,.05,.55,.01,.41-.4l-.03,.03c.47,.3,.61-.08,.77-.38h-.01c.25,0,.42-.08,.39-.37,0,0,0,.03,0,.03,.22-.1,.48-.15,.65-.29,7.78-6.74,12.51-15.13,13.94-25.37,.73-5.2,.11-10.28-.94-15.35,.99,.65,.99,1.79,1.24,2.75,3.37,12.91,1.1,24.91-6,36.08-.59,.93-1.46,1.68-2.19,2.52-.21,.04-.44,.08-.37,.39l.03-.03c-.31-.04-.44,.09-.4,.4,0,0,.03-.03,.03-.03-.31-.04-.45,.09-.4,.4l.03-.03Z"/>
  <path class="cls-1" d="M175.49,113.51c-.48-.26-.4-.72-.41-1.15,.52,.25,.46,.7,.41,1.15Z"/>
  <path class="cls-1" d="M175.84,114.63c-.49-.26-.42-.72-.39-1.15,.55,.24,.46,.7,.39,1.15Z"/>
  <path class="cls-1" d="M175.1,112.41c-.38-.17-.34-.51-.36-.83,.37,.17,.41,.48,.36,.83Z"/>
  <path class="cls-1" d="M103.84,91.81c-.11,.43-.26,.78-.78,.39,.14-.38,.27-.76,.78-.39Z"/>
  <path class="cls-1" d="M168.41,156.42c-.07-.31,.16-.35,.37-.39-.05,.2,.07,.56-.37,.39Z"/>
  <path class="cls-1" d="M168.04,156.79c-.04-.31,.09-.44,.4-.4,.09,.36,.06,.6-.4,.4Z"/>
  <path class="cls-1" d="M167.67,157.16c-.05-.31,.09-.44,.4-.4,.17,.43,.1,.63-.4,.4Z"/>
  <path class="cls-1" d="M104.18,91.47c-.03,.22-.08,.42-.38,.36-.16-.42,.18-.32,.38-.36Z"/>
  <path class="cls-1" d="M99.68,103.76c.82,.21,1.03-.55,1.42-.95,8.68-9.15,19.4-13.42,31.93-13.18,19.78,.38,36.71,15.43,39.02,34.97,1.26,10.67-1.69,20.31-8.47,28.73-.58,.72-1.59,1.21-1.47,2.38,0,0,0-.03,0-.03-.38-.12-.5,0-.39,.38,0,0,.01,0,.01,0-.45-.26-.62,.05-.77,.38,0,0,.03-.03,.03-.03-.14,.13-.27,.27-.41,.4,0,0,.03-.03,.03-.03-.13,.16-.27,.32-.4,.48-4.65,3.82-10.11,5.94-15.89,7.23-6.76,1.5-13.54,1.23-20.26-.43-.7-.17-1.49-.24-1.97-.93,.49,.04,.99,.04,1.47,.14,11.35,2.28,21.67,0,30.87-7.02,2.89-2.21,5.62-4.66,7.26-8.05,1.01-1.61,2.19-3.15,3-4.85,3.9-8.28,4.28-16.8,1.37-25.44-.57-1.69-.91-3.61-2.52-4.79l.03,.02c.03-.34,.08-.69-.39-.77l.02,.02c0-.33,.04-.67-.39-.77l.02,.03c0-.33-.03-.64-.38-.8-2.97-4.46-6.69-8.15-11.18-11.07-.13-.38-.5-.37-.79-.48l.04,.03c-.2-.13-.4-.26-.6-.39l-.04,.04c-.17-.14-.35-.27-.52-.41l.03,.03c-.16-.32-.45-.39-.78-.39l.03,.02c-.26-.49-.72-.4-1.15-.4l.02,.03c-.08-.52-.52-.65-.91-.82-6.63-2.9-13.55-3.77-20.68-2.74-6.16,.89-11.77,3.16-16.54,7.26-.49-.08-.81,.23-1.15,.5-7.66,6.3-12.13,14.32-12.99,24.25-.45,5.15,.42,10.14,2.05,15.02-1-.2-1.02-1.14-1.28-1.83-4.24-11.08-3.46-21.92,1.54-32.57,.43-.92,1.12-1.6,1.76-2.33,.31-.19,.61-.4,.38-.84l-.02,.02Z"/>
  <path class="cls-1" d="M99.7,103.74c.22,.44-.07,.64-.38,.84-.49-.56,.13-.62,.38-.84Z"/>
  <path class="cls-1" d="M119.5,162.35c.44-.06,.87-.05,1.16,.36-.45,.08-.87,.08-1.16-.36Z"/>
  <path class="cls-1" d="M120.64,162.7c.45-.03,.9-.03,1.24,.35-.47,.09-.94,.2-1.24-.35Z"/>
  <path class="cls-1" d="M97.27,141.39c.26,.19,.33,.45,.3,.76-.49-.1-.48-.39-.3-.76Z"/>
  <path class="cls-1" d="M97.56,142.15c.33,.17,.35,.48,.38,.79-.45-.11-.48-.41-.38-.79Z"/>
  <path class="cls-1" d="M160.95,156.43c.16-.34,.32-.64,.77-.38-.17,.31-.3,.68-.77,.38Z"/>
  <path class="cls-1" d="M161.71,156.05c-.11-.37,.01-.51,.39-.38,.04,.3-.14,.38-.39,.38Z"/>
  <path class="cls-1" d="M160.58,156.8c.14-.13,.27-.27,.41-.4,.14,.42-.09,.45-.41,.4Z"/>
  <path class="cls-1" d="M160.21,157.25c.13-.16,.27-.32,.4-.48,.09,.35-.18,.4-.4,.48Z"/>
  <path class="cls-1" d="M161.68,148.19c-.78,.08-1.1,.76-1.58,1.22-18.91,18.08-50.95,10.39-58.62-14.22-3.68-11.82-1.11-22.55,6.85-32.01,.41-.49,1.16-.8,1.05-1.65,4.77-4.1,10.38-6.37,16.54-7.26,7.13-1.03,14.05-.16,20.68,2.74,.39,.17,.83,.29,.91,.82-.64-.21-1.29-.41-1.93-.63-12.57-4.37-26.54-.39-34.86,9.95-.42,.53-1.15,.95-.98,1.82h.04c-.2-.26-.37-.11-.51,.04-.24,.26,0,.35,.18,.44-.62,.98-1.51,1.74-2.02,2.83-3.37,7.1-4.03,14.39-1.63,21.89,.4,1.24,.51,2.71,1.81,3.53h-.01c-.05,.44-.16,.91,.48,1.03l.02,.04c-.1,.23-.03,.38,.2,.48h0c-.04,.39,.03,.74,.37,1,2.97,4.61,6.69,8.41,11.66,10.87,.15,.36,.44,.4,.77,.33,.09,.04,.18,.08,.26,.13,.18,.29,.45,.4,.79,.34h0c.19,.45,.61,.56,1.02,.72,9.35,3.63,18.48,3.08,27.35-1.52,1.31-.68,2.78-1.33,3.34-2.93,.92,.23,1.52-.3,2.12-.86,7.35-6.77,10.84-15.05,9.94-25.11-.29-3.19-1.37-6.14-2.37-9.13,1.61,1.19,1.95,3.11,2.52,4.79,2.91,8.64,2.53,17.16-1.37,25.44-.81,1.71-1.99,3.24-3,4.85Z"/>
  <path class="cls-1" d="M148.64,98.19c-.46,.09-.85-.03-1.15-.4,.43,0,.89-.09,1.15,.4Z"/>
  <path class="cls-1" d="M163.56,113.12c-.36-.14-.38-.45-.39-.77,.47,.08,.42,.43,.39,.77Z"/>
  <path class="cls-1" d="M163.19,112.37c-.34-.15-.4-.45-.39-.77,.43,.1,.4,.44,.39,.77Z"/>
  <path class="cls-1" d="M162.82,111.63c-.36-.15-.43-.45-.38-.8,.35,.16,.38,.47,.38,.8Z"/>
  <path class="cls-1" d="M151.26,99.76c-.26-.16-.53-.32-.79-.48,.29,.11,.66,.1,.79,.48Z"/>
  <path class="cls-1" d="M149.39,98.56c-.33,.02-.69,.08-.78-.39,.33,0,.62,.07,.78,.39Z"/>
  <path class="cls-1" d="M150.52,99.3c-.2-.13-.4-.26-.6-.39,.2,.13,.4,.26,.6,.39Z"/>
  <path class="cls-1" d="M149.87,98.95c-.24-.05-.51-.07-.52-.41,.17,.14,.35,.27,.52,.41Z"/>
  <path class="cls-1" d="M109.74,108.96c1.64-.67,2.68-2.14,4.09-3.13,17.45-12.3,42.51-3.41,46.89,17.63,1.72,8.25-.21,15.76-5.2,22.52-.55,.75-1.12,1.47-1.69,2.21-.56,1.6-2.04,2.25-3.34,2.93-8.87,4.61-18.01,5.15-27.35,1.52-.41-.16-.83-.28-1.02-.73,.48,.11,.96,.2,1.44,.34,9.53,2.73,18.07,.91,25.55-5.61,1.26-1.1,2.44-2.32,3.06-4.01-4.8,3.94-10.22,6.16-16.39,6.25-6.19,.09-11.94-1.65-16.42-5.96-11.26-10.81-10.74-22.35-1.48-34.17-.56-.26-.88,.15-1.2,.38-6.55,4.74-10.12,11.12-10.56,19.22-.17,3.22,.77,6.26,1.49,9.33-1.29-.82-1.41-2.29-1.81-3.53-2.4-7.5-1.74-14.79,1.63-21.89,.52-1.09,1.4-1.85,2.02-2.83,.11-.17,.22-.33,.33-.5h-.04Zm25.67,35.6c10.96-.03,19.79-8.51,19.87-19.08,.08-10.53-8.93-19.18-19.97-19.16-10.94,.02-19.84,8.57-19.86,19.08-.02,10.59,8.94,19.19,19.96,19.16Z"/>
  <path class="cls-1" d="M108.29,139.23c.43,.23,.47,.6,.37,1.01-.34-.26-.41-.62-.37-1.01Z"/>
  <path class="cls-1" d="M107.59,137.7c.43,.22,.41,.64,.48,1.02-.64-.12-.53-.58-.48-1.02Z"/>
  <path class="cls-1" d="M109.78,108.95c-.11,.17-.22,.33-.33,.5-.19-.09-.42-.18-.18-.44,.14-.15,.32-.31,.51-.05Z"/>
  <path class="cls-1" d="M120.32,151.12c.26,.11,.51,.22,.77,.33-.33,.07-.62,.03-.77-.33Z"/>
  <path class="cls-1" d="M121.35,151.58c.33-.04,.63-.02,.79,.34-.34,.06-.6-.04-.79-.34Z"/>
  <path class="cls-1" d="M108.1,138.76c.07,.16,.13,.32,.2,.48-.22-.1-.3-.25-.2-.48Z"/>
  <path class="cls-1" d="M148.7,125.59c-.06,7.13-6.16,12.92-13.49,12.82-7.38-.1-13.26-5.94-13.19-13.12,.06-7.15,6.21-12.98,13.49-12.82,7.47,.17,13.26,5.92,13.19,13.12Zm-13.41,8.48c5.02,.02,8.94-3.69,8.99-8.52,.06-4.83-3.83-8.7-8.77-8.75-5.03-.05-9.15,3.83-9.15,8.62,0,4.74,4.01,8.63,8.93,8.65Z"/>
</svg>