<?xml version="1.0" encoding="UTF-8"?>
<svg id="Capa_28" data-name="Capa 28" xmlns="http://www.w3.org/2000/svg" viewBox="0 0 550 250">
  <defs>
    <style>
      .cls-1 {
        fill: #fff;
      }
    </style>
  </defs>
  <path class="cls-1" d="M291.81,159.46v3.77h-29.51v-3.79c.56-.14,1.21-.31,1.86-.46,3.52-.84,4.34-1.86,4.34-5.46,0-7.05,.02-14.1,0-21.14-.01-2.41-.14-4.83-.24-7.24-.03-.57-.17-1.14-.31-1.7-1.36-5.46-5.38-8.03-10.79-6.64-2.21,.57-4.29,1.7-6.38,2.66-.36,.16-.74,.76-.74,1.15,0,9.15,.06,18.3,.1,27.45,0,1.53,0,3.05,0,4.58,0,4.88,.28,5.24,4.97,6.49,.4,.11,.79,.25,1.23,.4v3.73h-28.86v-3.8c.73-.18,1.44-.35,2.15-.52,3.24-.81,4.08-1.86,4.09-5.18,0-8.52,.02-17.04-.01-25.56,0-1.31-.12-2.63-.31-3.92-.82-5.35-4.26-8.18-9.39-7.55-1.69,.21-3.32,.95-4.98,1.45-2.79,.85-3.87,2.46-3.79,5.62,.27,10.04,.09,20.09,.11,30.13,0,2.98,.86,4.11,3.51,4.83q3.17,.85,2.7,4.5h-29.15v-3.8c.89-.24,1.84-.48,2.79-.74,2.28-.64,3.1-1.54,3.19-3.88,.1-2.42,.07-4.84,.07-7.26,0-9.99-.02-19.99,.03-29.98,0-1.33-.35-2.03-1.71-2.25-.93-.15-1.81-.58-2.74-.75-1.08-.2-1.45-.73-1.4-1.84,.15-3.02-.45-2.37,2.55-3.01,5.25-1.11,10.5-2.23,15.77-3.28,1.12-.22,2.29-.21,3.66-.32v8.59c.13,.06,.27,.12,.4,.18,.36-.38,.74-.74,1.06-1.14,3.75-4.74,8.43-7.8,14.58-8.5,7.71-.89,13.71,2.1,17.34,8.84,.14,.27,.33,.51,1.06,1.22,.23-.47,.37-1.01,.69-1.39,4.17-4.96,9.37-7.96,15.91-8.73,10-1.17,18.95,5.9,19.55,15.93,.34,5.61,.18,11.25,.21,16.87,.03,5.15,0,10.31,.01,15.46,.02,3.93,.66,4.69,4.53,5.55,.61,.13,1.21,.29,1.87,.46Z"/>
  <path class="cls-1" d="M75.35,141.49c.24-.07,.29-.09,.34-.1,2.77-.49,4.42,.37,6.11,2.98,5.66,8.75,13.91,12.9,24.47,11.76,1.68-.18,3.4-.83,4.89-1.65,5.33-2.92,6.34-9.79,2.03-14.08-1.54-1.53-3.45-2.8-5.38-3.82-4.61-2.43-9.42-4.49-13.98-6.98-3.35-1.84-6.68-3.86-9.62-6.28-11.11-9.15-9.89-30.22,7.27-36.19,11.1-3.86,21.51-2.54,30.44,5.76,.11,.11,.24,.2,.37,.29,.04,.03,.1,.02,.35,.06,.65-2.65,1.31-5.32,1.97-8.01h4.13v20.96c-1.31,0-2.62,.09-3.9-.05-.41-.04-.92-.6-1.12-1.04-3.93-8.57-13.75-13.51-23.05-11.53-3.28,.7-5.97,2.19-6.92,5.67-1,3.66,.21,6.79,3.13,8.95,2.68,1.99,5.69,3.57,8.65,5.15,5.24,2.81,10.69,5.24,15.79,8.27,5.23,3.11,9.35,7.43,11.02,13.5,3,10.88-1.41,22.57-14.44,27.57-12.49,4.79-25.85,1.77-35.12-7.88-.18-.19-.38-.35-.79-.74-.85,3.3-1.65,6.41-2.45,9.52h-4.15v-22.11Z"/>
  <path class="cls-1" d="M374.57,106.18v8.61c.14,.05,.28,.09,.42,.14,.38-.46,.78-.91,1.14-1.38,3.64-4.7,8.25-7.63,14.3-8.34,9.71-1.15,18.33,5.42,19.51,15.12,.2,1.61,.29,3.25,.3,4.87,.03,8.73-.02,17.46,.04,26.19,.01,1.59,.17,3.27,.7,4.75,.34,.94,1.38,1.78,2.31,2.3,1.03,.57,2.29,.7,3.52,1.05v3.75h-29.7c0-1.02-.09-2.06,.05-3.07,.05-.35,.59-.84,.98-.91,5.21-1.01,5.36-2.41,5.34-7.23-.03-7.73,.03-15.46-.03-23.19-.01-1.88-.15-3.8-.54-5.63-1.13-5.37-5.03-7.8-10.33-6.36-2.06,.56-4.02,1.54-5.93,2.52-.54,.28-1.06,1.19-1.07,1.82-.06,10.94-.06,21.88-.03,32.81,0,3.04,.86,4.06,3.71,4.81,2.98,.78,3.13,1.06,2.41,4.47h-29.45v-3.81c.99-.26,2-.5,3-.79,2.08-.6,2.86-1.53,3.09-3.68,.05-.47,.05-.95,.05-1.42,0-11.99-.02-23.98,.03-35.97,0-1.34-.36-2.04-1.71-2.25-.83-.13-1.61-.49-2.44-.66-1.21-.24-1.74-.79-1.68-2.14,.11-2.32,.02-2.31,2.43-2.81,5.31-1.1,10.61-2.24,15.92-3.3,1.1-.22,2.26-.17,3.64-.26Z"/>
  <path class="cls-1" d="M326.39,126.1c.5-6.06-3.4-11.09-9.47-12.28-5.41-1.07-10.46,.07-15.21,2.76-.37,.21-.72,.43-1.08,.65-.04,.02-.1,.02-.37,.06-.72-.94-1.5-1.97-2.25-2.95,.04-.18,.03-.32,.09-.38,8.56-7.5,18.33-11.1,29.74-8.63,8.31,1.8,13.99,8.31,14.99,16.73,.25,2.13,.33,4.3,.34,6.45,.04,7.84,.01,15.68,.02,23.51,0,.79-.02,1.58,.08,2.36,.39,2.96,1.82,4.22,4.84,4.31,.41,.01,.82,.04,1.41,.07,0,1,.07,1.94-.04,2.86-.04,.36-.41,.85-.75,.98-4.68,1.79-9.49,2.44-14.41,1.22-3.2-.79-5.53-2.74-6.88-5.78-.17-.37-.37-.73-.65-1.27-.34,.31-.66,.49-.81,.76-2.53,4.4-6.6,6.43-11.41,7.01-6.57,.79-12.4-.82-16.63-6.28-6.62-8.55-3.83-21.1,5.77-26,5.41-2.76,11.31-3.91,17.2-5.09,1.8-.36,3.61-.69,5.47-1.05Zm-.35,5.04c-3.62,.85-7.22,1.61-10.43,3.52-2.61,1.55-3.85,3.96-4.08,6.9-.1,1.3-.09,2.63,0,3.93,.42,6.06,4.04,9.48,9.59,9.12,2.87-.19,5.04-2.06,5.07-4.64,.07-6.04,.03-12.08,.03-18.12,0-.2-.09-.4-.17-.71Z"/>
  <path class="cls-1" d="M425.42,117.39c-.85-1.14-1.6-2.15-2.62-3.52,2.67-1.78,5.16-3.73,7.9-5.19,7.2-3.85,14.85-5.34,22.91-3.24,8.5,2.21,14.32,9.56,14.54,18.69,.22,9.15,.1,18.3,.13,27.45,0,.84,.01,1.69,.1,2.52,.36,3.3,1.69,4.5,5.03,4.58,.31,0,.62,.03,1.21,.05,0,1,.06,1.98-.03,2.94-.03,.32-.38,.77-.69,.88-5.05,1.9-10.21,2.62-15.46,.93-2.68-.86-4.6-2.69-5.79-5.26-.21-.46-.46-.9-.75-1.46-.33,.25-.6,.35-.71,.55-2.38,4.34-6.28,6.44-10.98,7.11-6.75,.98-12.73-.56-17.12-6.13-6.62-8.41-3.92-21.01,5.53-25.94,5.48-2.86,11.5-4.02,17.49-5.21,1.5-.3,2.99-.64,4.5-.86,.92-.13,1.05-.57,1.01-1.38-.34-6.43-5.03-11.02-11.69-11.42-4.89-.29-9.41,.83-13.58,3.38-.26,.16-.54,.3-.95,.53Zm26,13.68c-4.12,1-8.06,1.72-11.41,4.08-1.62,1.13-2.63,2.73-3.06,4.64-.72,3.2-.56,6.38,.56,9.47,1.03,2.82,3.01,4.71,6.03,5.21,4.17,.69,8.18-.62,7.93-6.34-.22-5.04-.05-10.09-.05-15.14v-1.91Z"/>
  <path class="cls-1" d="M190.24,143.2c.56,.76,1.26,1.46,1.61,2.31,.23,.57,.15,1.42-.1,2.02-4.33,10.47-14.63,17.27-26.1,17.14-10.24-.12-18.12-4.68-23.14-13.47-6.01-10.51-6.39-21.59-1.16-32.49,7.74-16.12,27.25-17.01,37.39-9.08,4.5,3.52,7.13,8.15,8.26,13.8-4.83,2.18-9.57,4.32-14.31,6.46-5.32,2.4-10.63,4.84-15.98,7.18-1.29,.56-1.52,1.15-.84,2.38,3.08,5.57,7.25,9.81,13.74,11.16,5.65,1.18,10.76-.31,15.45-3.42,1.78-1.18,3.4-2.61,5.18-3.99Zm-37.05-9.83c5.54-2.71,10.82-5.28,16.08-7.91,.29-.14,.56-.78,.49-1.12-.7-3.46-1.6-6.85-3.63-9.81-1.73-2.52-4.12-3.67-7.19-3.3-2.87,.34-4.66,2.08-5.73,4.6-2.43,5.73-1.58,11.48-.02,17.54Z"/>
</svg>