<?xml version="1.0" encoding="UTF-8"?>
<svg id="Capa_7" data-name="Capa 7" xmlns="http://www.w3.org/2000/svg" viewBox="0 0 550 250">
  <defs>
    <style>
      .cls-1 {
        fill: #fff;
      }
    </style>
  </defs>
  <path class="cls-1" d="M142.82,103.47c1.8-1.8,3.1-4.1,3.7-6.6,.7-2.5,.7-5.1,0-7.6s-2-4.7-3.8-6.5-4.1-3.1-6.5-3.8l-2.2-.6h-3.5l-2.1,.5c-2.5,.7-4.7,2-6.5,3.8-8.5,8.5-17,17-25.6,25.5-2.4,2.2-3.9,5.2-4.4,8.5,0,.2-.1,.4-.2,.6v3.2c.3,1.6,.8,3.1,1.4,4.5,.9,1.7,1.9,3.2,3.2,4.6,4,4.3,5.3,10.1,.6,15-2.7,2.5-4.5,5.9-5.2,9.5v3.4c.1,.3,.2,.5,.2,.8,.4,2.6,1.5,5.1,3.3,7.1,1.7,2,4,3.5,6.5,4.3,2.5,1,5.2,1.2,7.9,.6,2.6-.6,5-1.9,6.9-3.8,8.9-8.7,17.7-17.5,26.4-26.3,2.3-2.4,3.7-5.5,4-8.8,.2-2.2-.1-4.5-.9-6.6-.8-2.1-2.1-4-3.7-5.5-1.4-1.3-2.4-2.8-2.9-4.6-.6-1.8-.6-3.6-.2-5.4,.7-2.2,1.9-4.2,3.6-5.8Z"/>
  <path class="cls-1" d="M224.92,81.57c-2.2-1.3-4.8-2-7.4-1.9-2.6,.1-5.1,.9-7.3,2.3-2.2,1.3-4,3.1-5.3,5.4-1.2,2.2-1.9,4.8-1.8,7.3,0,2.2-.1,4.4-.3,6.6-.4,2.3-1.6,4.4-3.4,5.9-1.8,1.5-4,2.4-6.3,2.5s-4.6-.6-6.5-2-3.3-3.3-3.9-5.6c-.3-1.2-.5-2.5-.5-3.8,0-2.2,0-4.3-.3-6.3-.6-3.6-2.6-6.8-5.5-9.1-2.9-2.2-6.5-3.3-10.1-3s-7,1.9-9.5,4.6-3.9,6.2-3.9,9.8v60.7c.2,3.8,1.8,7.3,4.5,9.9s6.4,4.1,10.1,4.1,7.4-1.5,10.1-4.1c2.7-2.6,4.3-6.2,4.5-9.9,0-2.1,0-4.2,.2-6.3,.1-1.7,.7-3.4,1.6-4.9,.9-1.5,2.3-2.7,3.8-3.5s3.3-1.2,5-1.2,3.5,.5,5,1.4c1.7,.9,3,2.3,4,4,.9,1.7,1.4,3.6,1.3,5.5v6.6c.3,3.8,2.1,7.3,5,9.7,2.9,2.5,6.6,3.8,10.4,3.6,3.8-.2,7.3-1.8,9.9-4.6,2.6-2.8,4-6.4,4-10.2v-60.4c.1-2.7-.5-5.3-1.8-7.7-1.2-2.3-3.2-4.2-5.6-5.4Z"/>
  <path class="cls-1" d="M283.72,79.47c-8.8,0-17.5,2.6-24.8,7.5s-13.1,11.9-16.4,20.1c-3.4,8.2-4.3,17.2-2.5,25.8,1.7,8.7,6,16.6,12.2,22.9,6.3,6.2,14.2,10.5,22.9,12.2s17.7,.8,25.8-2.6c8.2-3.4,15.1-9.1,20-16.5,4.9-7.4,7.5-16,7.5-24.8,0-5.9-1.2-11.7-3.4-17.1-2.2-5.4-5.5-10.3-9.7-14.5-4.2-4.1-9.1-7.4-14.5-9.7-5.4-2.1-11.2-3.3-17.1-3.3Zm0,60c-3,0-6-.9-8.5-2.6s-4.5-4.1-5.6-6.9-1.4-5.9-.9-8.9c.6-3,2.1-5.7,4.2-7.8,2.1-2.1,4.9-3.6,7.8-4.2,3-.6,6-.3,8.8,.9,2.8,1.2,5.2,3.1,6.9,5.6s2.6,5.5,2.6,8.5c0,2-.4,4-1.2,5.9s-1.9,3.6-3.3,5c-1.4,1.4-3.1,2.6-5,3.3-1.8,.9-3.8,1.2-5.8,1.2h0Z"/>
  <path class="cls-1" d="M386.02,136.97c-2,1.3-4.3,2-6.6,2.3-2.4,.2-4.7-.1-7-.9-2.2-.8-4.2-2.2-5.8-3.9-1.6-1.7-2.8-3.8-3.5-6.1-.9-2.8-.9-5.9-.1-8.7,.9-2.8,2.6-5.3,4.9-7.2,2.5-2.1,5.6-3.4,8.8-3.6,3.3-.2,6.5,.6,9.2,2.4,2.9,1.9,6.5,2.7,9.9,2.2,3.1-.4,6-1.8,8.2-3.9,2.2-2.2,3.7-5,4.2-8.1,.6-3,.2-6-1.1-8.8-1.3-2.7-3.3-5-5.9-6.5-7.3-4.5-15.8-6.8-24.5-6.6-8.6,.2-17,2.9-24.2,7.7-7.1,4.8-12.7,11.6-16.1,19.6-3.4,7.9-4.4,16.7-2.9,25.2,1.9,10.3,7.3,19.7,15.3,26.5,8,6.8,18.2,10.5,28.7,10.5,2.3-.2,4.5-.3,6.7-.6,6.4-.9,12.5-3.2,17.8-6.8,2.4-1.5,4.2-3.7,5.3-6.3,1.1-2.6,1.3-5.5,.7-8.2-.4-2.4-1.4-4.6-2.9-6.6-1.5-1.9-3.4-3.4-5.6-4.4-2.2-1-4.6-1.4-7.1-1.2-2-.1-4.4,.7-6.4,2Z"/>
  <path class="cls-1" d="M455.92,140.57c-2.7-3-5.8-5.7-8.5-8.7-1.1-1.2-2-2.6-2.6-4.1-.7-2.1-.8-4.3-.2-6.5,.5-2.1,1.7-4.1,3.2-5.6,2.3-2.7,5-5,7.5-7.5,2-1.9,3.5-4.3,4.2-7.1,.7-2.7,.5-5.6-.4-8.2-.8-2.4-2.2-4.6-4.1-6.3-1.9-1.7-4.2-2.9-6.7-3.4-2.5-.6-5.1-.5-7.5,.3-2.4,.7-4.6,2.1-6.4,3.9-8.7,8.6-17.4,17.3-26,26-1.4,1.4-2.5,3-3.3,4.8s-1.1,3.7-1.1,5.7,.4,3.9,1.1,5.7c.8,1.8,1.9,3.4,3.3,4.8,8.7,8.8,17.6,17.6,26.4,26.4,1.4,1.4,3,2.5,4.8,3.2s3.7,1.1,5.7,1h2.3c2.6-.4,5.1-1.4,7.1-3.1s3.6-3.9,4.4-6.4c1-2.5,1.3-5.3,.7-8-.7-2.5-2-5-3.9-6.9Z"/>
</svg>