<svg width="68" height="17" viewBox="0 0 68 17" fill="none" xmlns="http://www.w3.org/2000/svg">
<path d="M9.4007 4.66352C9.72867 4.33208 9.96423 3.92062 10.084 3.46998C10.2037 3.01934 10.2034 2.54522 10.0832 2.09471C9.963 1.6442 9.72701 1.23297 9.39869 0.901891C9.07037 0.57081 8.66113 0.331386 8.21164 0.20741L7.81336 0.103516H7.17265L6.79167 0.20165C6.34258 0.326986 5.93316 0.565469 5.60261 0.894298C4.0499 2.44701 2.50296 3.99396 0.944473 5.5409C0.513519 5.95067 0.232948 6.49349 0.147913 7.08205C0.139838 7.11962 0.128243 7.15634 0.113281 7.19172V7.76894C0.169951 8.05192 0.255042 8.32846 0.367258 8.59435C0.521993 8.89753 0.716075 9.17895 0.944473 9.43132C1.66599 10.2106 1.9142 11.2726 1.05415 12.1615C0.559135 12.62 0.228544 13.2284 0.113281 13.8932C0.113281 13.8932 0.113281 13.8932 0.113281 13.9278V14.505C0.129436 14.5543 0.142928 14.6044 0.153691 14.6551C0.227553 15.1312 0.433228 15.5771 0.747429 15.9423C1.06163 16.3075 1.47182 16.5774 1.93153 16.7216C2.38794 16.9003 2.88683 16.9408 3.36611 16.8382C3.84539 16.7356 4.2839 16.4943 4.62711 16.1443C6.24909 14.5628 7.84222 12.9523 9.44111 11.3477C9.86558 10.9185 10.1217 10.351 10.1626 9.74879C10.1991 9.3405 10.1422 8.92929 9.99616 8.54627C9.85016 8.16324 9.61887 7.81845 9.31988 7.53804C9.07183 7.31033 8.88793 7.02146 8.78663 6.70033C8.68533 6.3792 8.67017 6.03711 8.74266 5.70828C8.85978 5.30524 9.0878 4.94323 9.4007 4.66352Z" fill="white"/>
<path d="M24.3563 0.669185C23.9483 0.431763 23.4822 0.312505 23.0103 0.324737C22.5383 0.336969 22.0791 0.480206 21.6838 0.738448C21.281 0.971448 20.9487 1.30905 20.7221 1.71551C20.4955 2.12197 20.3831 2.58215 20.3967 3.04731C20.4036 3.45027 20.3844 3.85323 20.3389 4.25367C20.2626 4.67155 20.0466 5.05114 19.7265 5.33032C19.4063 5.6095 19.0009 5.77176 18.5765 5.79053C18.1521 5.8093 17.7339 5.68347 17.3903 5.43365C17.0468 5.18383 16.7981 4.82481 16.6852 4.41531C16.631 4.1901 16.6001 3.95994 16.5928 3.72842C16.5928 3.33592 16.5928 2.94341 16.5409 2.57399C16.4258 1.91934 16.0704 1.33125 15.5444 0.924976C15.0183 0.518701 14.3595 0.323523 13.697 0.377706C13.0345 0.431889 12.4161 0.731525 11.9631 1.21788C11.51 1.70424 11.2549 2.34226 11.2478 3.0069C11.2478 4.85399 11.2478 6.7011 11.2478 8.54242C11.2478 10.3837 11.2478 12.2251 11.2478 14.0606C11.2797 14.7472 11.5749 15.395 12.0721 15.8696C12.5692 16.3441 13.2301 16.6089 13.9174 16.6089C14.6047 16.6089 15.2656 16.3441 15.7628 15.8696C16.2599 15.395 16.5551 14.7472 16.587 14.0606C16.587 13.6739 16.587 13.2871 16.6275 12.9062C16.6492 12.589 16.7514 12.2827 16.9244 12.016C17.0974 11.7494 17.3356 11.5312 17.6163 11.3822C17.8971 11.2331 18.2112 11.1581 18.529 11.1642C18.8468 11.1703 19.1579 11.2573 19.4327 11.4169C19.7362 11.5896 19.9862 11.8426 20.1552 12.1481C20.3243 12.4536 20.4058 12.7998 20.3909 13.1486C20.3909 13.5469 20.3909 13.9509 20.3909 14.3434C20.4545 15.0306 20.7814 15.6665 21.3033 16.1181C21.8251 16.5697 22.5015 16.8019 23.1907 16.7661C23.8799 16.7303 24.5285 16.4293 25.0008 15.9261C25.473 15.4228 25.7323 14.7564 25.7243 14.0663C25.7243 10.3952 25.7243 6.72419 25.7243 3.05887C25.7509 2.57106 25.636 2.08597 25.3933 1.662C25.1506 1.23803 24.7905 0.89325 24.3563 0.669185Z" fill="white"/>
<path d="M35.0637 0.288231C33.454 0.289373 31.8808 0.767819 30.5431 1.66306C29.2053 2.55831 28.163 3.83015 27.5481 5.31775C26.9331 6.80535 26.7731 8.44188 27.0883 10.0204C27.4034 11.599 28.1796 13.0486 29.3186 14.186C30.4577 15.3234 31.9084 16.0975 33.4874 16.4104C35.0664 16.7234 36.7027 16.561 38.1894 15.944C39.6761 15.3269 40.9465 14.2828 41.8398 12.9438C42.7332 11.6048 43.2094 10.0309 43.2082 8.4212C43.2075 7.3524 42.9962 6.29422 42.5865 5.30707C42.1768 4.31993 41.5766 3.42314 40.8204 2.66792C40.0641 1.91271 39.1664 1.31385 38.1787 0.905539C37.191 0.497229 36.1325 0.287473 35.0637 0.288231ZM35.0637 11.2207C34.5119 11.2184 33.9731 11.0528 33.5154 10.7446C33.0576 10.4365 32.7013 9.99977 32.4914 9.48942C32.2816 8.97907 32.2276 8.41804 32.3362 7.87703C32.4449 7.33602 32.7113 6.83928 33.1019 6.44949C33.4924 6.05971 33.9897 5.79434 34.5309 5.68682C35.0722 5.57931 35.6331 5.63446 36.143 5.84536C36.6529 6.05626 37.089 6.41346 37.3962 6.87187C37.7033 7.33028 37.8678 7.86939 37.869 8.4212C37.8682 8.78959 37.7949 9.15422 37.6532 9.49428C37.5116 9.83434 37.3043 10.1432 37.0433 10.4031C36.7822 10.6631 36.4726 10.8691 36.1319 11.0094C35.7913 11.1496 35.4263 11.2214 35.058 11.2207H35.0637Z" fill="white"/>
<path d="M53.6962 10.7647C53.3294 10.9931 52.9147 11.1335 52.4845 11.1749C52.0544 11.2163 51.6205 11.1575 51.2168 11.0032C50.8131 10.8489 50.4507 10.6033 50.1578 10.2855C49.865 9.96771 49.6497 9.58645 49.5288 9.17157C49.3628 8.65743 49.3591 8.1047 49.5181 7.58838C49.6771 7.07206 49.9912 6.61717 50.4177 6.28549C50.8661 5.89572 51.4294 5.66287 52.0221 5.62224C52.6148 5.58161 53.2046 5.73543 53.702 6.06036C54.2392 6.40527 54.8828 6.54468 55.5145 6.4529C56.0772 6.38369 56.6022 6.13345 57.0103 5.73991C57.4184 5.34637 57.6875 4.83083 57.7772 4.27101C57.878 3.73166 57.8088 3.17431 57.5793 2.67595C57.3497 2.17759 56.9712 1.7628 56.4958 1.48883C55.1576 0.665792 53.6104 0.246441 52.0398 0.28109C50.4692 0.31574 48.9419 0.802915 47.6414 1.68416C46.3409 2.56541 45.3223 3.80327 44.7079 5.24915C44.0936 6.69503 43.9096 8.28749 44.178 9.83538C44.5178 11.7201 45.5069 13.4264 46.9736 14.6579C48.4403 15.8895 50.2919 16.5685 52.207 16.5773C52.6168 16.5426 53.0267 16.5195 53.4365 16.4618C54.6005 16.3058 55.7116 15.8788 56.6804 15.215C57.1131 14.9382 57.4499 14.5347 57.6451 14.0597C57.8403 13.5846 57.8844 13.0609 57.7714 12.5598C57.699 12.1239 57.5192 11.7129 57.2482 11.3639C56.9772 11.0148 56.6235 10.7388 56.2191 10.5606C55.8147 10.3825 55.3723 10.3079 54.9319 10.3435C54.4914 10.3791 54.0668 10.5239 53.6962 10.7647Z" fill="white"/>
<path d="M66.4181 11.4112C65.9216 10.8686 65.3676 10.378 64.8654 9.83538C64.6592 9.6215 64.4982 9.36823 64.3921 9.09075C64.2679 8.70966 64.2534 8.30134 64.3504 7.91243C64.4474 7.52353 64.6518 7.16974 64.9404 6.89156C65.3675 6.4067 65.8524 5.97956 66.3026 5.51778C66.6763 5.17301 66.9405 4.72617 67.0626 4.23265C67.1847 3.73912 67.1593 3.2206 66.9895 2.74138C66.8423 2.30334 66.5844 1.91077 66.2408 1.60164C65.8973 1.29251 65.4798 1.07731 65.0287 0.976876C64.5777 0.876442 64.1083 0.89418 63.6661 1.02837C63.2238 1.16255 62.8238 1.40863 62.5046 1.7428C60.9172 3.31283 59.3356 4.8944 57.7598 6.4702C57.5062 6.72137 57.305 7.02031 57.1676 7.34973C57.0302 7.67915 56.9595 8.03254 56.9595 8.38945C56.9595 8.74637 57.0302 9.09975 57.1676 9.42917C57.305 9.75859 57.5062 10.0575 57.7598 10.3087C59.3529 11.9191 60.9576 13.5123 62.568 15.1111C62.8138 15.3649 63.1093 15.5651 63.4361 15.6992C63.7629 15.8333 64.114 15.8984 64.4671 15.8904C64.6056 15.8904 64.7499 15.8904 64.8885 15.8904C65.3638 15.824 65.8114 15.627 66.1813 15.3213C66.5513 15.0155 66.8291 14.6131 66.9837 14.1587C67.169 13.6957 67.2141 13.1885 67.1135 12.7C67.013 12.2115 66.7711 11.7634 66.4181 11.4112Z" fill="white"/>
</svg>
