<?xml version="1.0" encoding="UTF-8"?>
<svg id="Capa_23" data-name="Capa 23" xmlns="http://www.w3.org/2000/svg" viewBox="0 0 550 250">
  <defs>
    <style>
      .cls-1 {
        fill: #fefefe;
      }

      .cls-2 {
        fill: none;
        stroke: #fff;
        stroke-miterlimit: 10;
        stroke-width: 5px;
      }
    </style>
  </defs>
  <path class="cls-2" d="M297.88,193.25c-2.4,0-4.8,0-7.2,0-4.26-.01-8.51-.03-12.77-.04-7.45,0-14.9,0-22.35,0-.29,0-.58,.02-.88,.03-1.6,0-3.19-.01-4.79-.03-4.15-.05-8.3-.07-12.45-.17-1.45-.04-2.9-.27-4.35-.41-.23,.18-.49,.17-.76,.12-3.04-.56-6.04-1.22-8.82-2.63-2.65-1.37-5.06-3.08-7.28-5.07-.92-.88-1.76-1.83-2.61-2.78-1.19-1.55-2.28-3.16-3.26-4.85-.76-1.56-1.46-3.14-1.94-4.81-.24-.83-.47-1.66-.66-2.5-.56-2.15-.83-4.35-.93-6.55-.09-1.81-.26-3.61-.19-5.43-.02-5.16-.03-10.32,0-15.48,0-.41-.1-.86,.23-1.22,.01-4.74,.03-9.48,.04-14.22,0-9.32,0-18.64,0-27.96,0-2.73,.11-5.46-.01-8.19-.23-1.43-.14-2.86-.06-4.29,.13-2.28,.4-4.54,.9-6.78,.63-2.85,1.6-5.56,3.06-8.09,1.32-2.22,2.85-4.28,4.66-6.13,1.7-1.73,3.59-3.22,5.65-4.51,3.46-2.17,7.28-3.34,11.28-3.98,.29-.05,.58-.1,.86-.16,1.65-.2,3.29-.35,4.95-.37,.57-.01,1.14-.02,1.71,0,.14,0,.29,0,.43,0,.43,.01,.87-.09,1.25,.18,.35,0,.69,.02,1.04,.02,20.76,0,41.51,0,62.27,0,4.07,0,8.14-.06,12.19,.47,.24-.18,.5-.13,.76-.08,4.01,.63,7.78,1.9,11.23,4.08,1.87,1.19,3.62,2.54,5.2,4.09,1.91,1.87,3.47,4.04,4.85,6.33,.84,1.54,1.61,3.12,2.18,4.78,.29,.9,.5,1.83,.78,2.74,1,3.93,1.18,7.95,1.16,11.98-.02,3.12,0,6.24-.02,9.36,.03,7.2,.03,14.41,0,21.61-.02,.41,.1,.84-.19,1.21,0,4.37-.12,8.74,.09,13.11,.28,.79,.03,1.61,.15,2.41-.02,.86-.05,1.72,0,2.58,.11,5.78,.17,11.55,.08,17.33-.05,2.89-.19,5.8-.68,8.66-.12,.85-.3,1.69-.48,2.53-.23,.8-.38,1.62-.64,2.42-.57,1.67-1.18,3.32-2.03,4.87-1.42,2.62-3.16,5.01-5.35,7.06-.14,.13-.27,.27-.4,.4-2.07,2.1-4.48,3.73-7.1,5.05-2.78,1.43-5.76,2.19-8.82,2.7-.25,.04-.53,.14-.76-.07-3.01,.34-6.02,.56-9.05,.5-.77-.02-1.54,.02-2.31,.03-2.61-.06-5.23,.03-7.84,.11Z"/>
  <path class="cls-1" d="M300.62,105.15c.02,3.83-.32,7.65-.54,11.47-.05,.79,.25,1.25,.87,1.62,1.53,.92,3.16,.99,4.85,.59,1.09-.25,2.14-.6,3.15-1.08,1.37-.65,2.6-.28,3.74,.53,.84,.59,.88,1.27,.16,2.01-1.03,1.06-2.35,1.62-3.71,2.1-1.85,.65-3.75,1.14-5.43,2.21-1.6,1.02-2.7,2.37-2.85,4.35-.07,.95,.06,1.88,.43,2.73,3.26,7.49,8.16,13.51,15.55,17.28,2,1.02,4.11,1.71,6.33,2.07,.62,.1,.48,.31,.21,.63-.77,.91-1.82,1.36-2.88,1.77-2.72,1.05-5.56,1.6-8.43,2.04-1.05,.16-1.66,.73-2.03,1.67-.54,1.37-.7,2.83-1.08,4.23-.16,.59-.39,.68-.95,.61-2.31-.32-4.6-.78-6.96-.85-4.44-.13-8.35,1.19-11.88,3.86-2.41,1.82-4.9,3.55-7.76,4.65-2.77,1.06-5.63,1.2-8.54,.99-4.29-.31-7.77-2.49-11.14-4.92-1.94-1.39-3.87-2.84-6.15-3.62-3.46-1.18-7-1.14-10.56-.59-1.02,.16-2.04,.38-3.05,.57-.55,.1-.87-.05-1-.67-.29-1.38-.62-2.75-1.02-4.09-.31-1.03-.98-1.66-2.15-1.84-3.09-.48-6.17-1.06-9.06-2.33-.83-.36-1.63-.79-2.21-1.51-.24-.3-.26-.48,.21-.57,5.27-.94,9.71-3.47,13.55-7.12,3.46-3.3,6.15-7.17,8.1-11.54,1.64-3.69,.43-6.69-3.28-8.42-1.79-.84-3.73-1.24-5.51-2.06-.94-.43-1.88-.89-2.57-1.71-.61-.72-.6-1.27,.15-1.84,1.07-.82,2.2-1.13,3.55-.5,2.07,.95,4.25,1.54,6.57,1.05,.43-.09,.86-.25,1.27-.43,1.2-.55,1.37-.92,1.29-2.22-.3-4.95-.66-9.9-.47-14.88,.22-5.63,2.46-10.31,6.25-14.32,4.09-4.33,9.2-6.65,15.07-7.37,5.27-.65,10.43-.28,15.39,1.76,5.35,2.2,9.29,5.93,12.1,10.95,1.96,3.49,2.36,7.27,2.42,11.15,0,.53,0,1.07,0,1.6Z"/>
</svg>