<svg width="88" height="28" viewBox="0 0 88 28" fill="none" xmlns="http://www.w3.org/2000/svg">
<path d="M13.5646 0.309577C11.7807 0.287744 10.0111 0.62964 8.36365 1.3144C6.71625 1.99917 5.22566 3.01245 3.98284 4.29238C2.71665 5.54432 1.71237 7.03582 1.02857 8.67991C0.344775 10.324 -0.00486132 12.0878 5.10536e-05 13.8684C0.000364828 15.656 0.357964 17.4255 1.05183 19.0729C1.7457 20.7204 2.76185 22.2125 4.04056 23.4617C5.28234 24.7299 6.7677 25.7338 8.40737 26.4133C10.047 27.0928 11.8072 27.4337 13.5819 27.4156C15.3623 27.4225 17.1265 27.0777 18.7734 26.4011C20.4202 25.7245 21.9172 24.7294 23.1786 23.4729C24.4399 22.2164 25.4407 20.7232 26.1236 19.079C26.8065 17.4348 27.1581 15.6719 27.1581 13.8915C27.1649 12.105 26.8179 10.3348 26.1371 8.68312C25.4563 7.03143 24.4551 5.53091 23.1913 4.26819C21.9275 3.00548 20.4261 2.00555 18.7738 1.32612C17.1216 0.64668 15.3511 0.30118 13.5646 0.309577ZM19.8505 19.8368C19.7514 20.0261 19.5854 20.1718 19.3848 20.2454C19.1842 20.319 18.9634 20.3154 18.7653 20.2351C18.6961 20.2106 18.6302 20.1776 18.5691 20.1369C17.1248 19.2716 15.5209 18.7063 13.8532 18.4746C13.3568 18.3995 12.8546 18.3649 12.3582 18.3245C12.0639 18.3245 11.781 18.2956 11.4693 18.2841C10.2471 18.2965 9.02836 18.4163 7.8271 18.642L6.7477 18.8613C6.52194 18.9194 6.28238 18.8858 6.08126 18.7679C5.88014 18.6501 5.73378 18.4575 5.67408 18.2321C5.64451 18.1237 5.63677 18.0105 5.6513 17.8991C5.66583 17.7877 5.70234 17.6803 5.75873 17.5831C5.81511 17.4859 5.89024 17.4008 5.97975 17.3329C6.06926 17.265 6.17138 17.2155 6.28016 17.1874C6.60637 17.0958 6.93794 17.0244 7.27297 16.9738C7.9714 16.8584 8.68138 16.7545 9.38558 16.6563C9.67996 16.6159 9.9628 16.5928 10.2687 16.5813C10.7824 16.5813 11.2962 16.5351 11.8099 16.5467C13.4801 16.5663 15.1371 16.8448 16.722 17.3721C17.701 17.7034 18.6399 18.1429 19.5215 18.6824C19.7171 18.7929 19.8613 18.976 19.9229 19.192C19.9845 19.4081 19.9585 19.6398 19.8505 19.8368ZM21.2705 16.437C21.1113 16.5783 20.9132 16.6683 20.702 16.695C20.4909 16.7218 20.2766 16.6842 20.0872 16.5871C19.9025 16.4947 19.7293 16.385 19.5503 16.2811C18.383 15.6441 17.1371 15.1628 15.8446 14.8496C14.8824 14.6162 13.9042 14.4541 12.9181 14.3648C12.0679 14.2898 11.2136 14.2724 10.3611 14.3128C9.06249 14.3683 7.77546 14.5815 6.52836 14.9478C6.31514 15.0209 6.08463 15.0269 5.8679 14.965C5.65117 14.903 5.45862 14.7762 5.31621 14.6014C5.20769 14.4665 5.1334 14.3074 5.09969 14.1376C5.06598 13.9677 5.07384 13.7923 5.1226 13.6261C5.17136 13.46 5.25958 13.3082 5.37973 13.1835C5.49988 13.0588 5.6484 12.9651 5.81261 12.9102C6.32056 12.7486 6.84006 12.6274 7.35955 12.5119C8.15028 12.3395 8.95302 12.2275 9.76077 12.1771L11.2962 12.0963C13.5969 12.1118 15.8799 12.5017 18.0554 13.2508C19.1058 13.6169 20.1156 14.0908 21.0684 14.6649C21.3142 14.7996 21.4998 15.0223 21.5879 15.2883C21.6584 15.4893 21.6658 15.7071 21.609 15.9124C21.5523 16.1177 21.4341 16.3007 21.2705 16.437ZM23.0829 12.2233C22.8988 12.3888 22.6682 12.4936 22.4224 12.5236C22.1767 12.5535 21.9276 12.5072 21.7091 12.3907C21.5071 12.2984 21.3109 12.1771 21.1319 12.0732C20.3149 11.6425 19.4587 11.2908 18.5749 11.0227C17.4141 10.6645 16.2244 10.4076 15.0192 10.255C14.442 10.18 13.8994 10.1396 13.3395 10.0934C12.6176 10.0348 11.8932 10.0136 11.1692 10.0299C10.262 10.0511 9.35654 10.1185 8.45626 10.2319C7.5764 10.3488 6.70631 10.5301 5.85302 10.7745C5.66856 10.8312 5.47375 10.8459 5.28287 10.8175C5.09199 10.7891 4.90989 10.7184 4.74993 10.6104C4.58996 10.5025 4.45618 10.3601 4.3584 10.1937C4.26063 10.0274 4.20133 9.84122 4.18487 9.64894C4.15808 9.35632 4.23223 9.06332 4.39498 8.81867C4.55774 8.57401 4.79931 8.3924 5.07955 8.30402C5.32775 8.22321 5.57595 8.15972 5.82993 8.09623C6.72507 7.86849 7.63564 7.70644 8.55439 7.61137C9.21242 7.54788 9.87044 7.50747 10.5227 7.46707C10.8806 7.46707 11.2384 7.4382 11.5905 7.42666C12.6784 7.43414 13.7651 7.49965 14.846 7.62291C16.4687 7.80049 18.0697 8.13886 19.6254 8.63304C20.7298 8.99294 21.7953 9.46284 22.8058 10.0357C22.9839 10.1248 23.1399 10.2523 23.2627 10.409C23.3855 10.5657 23.4719 10.7477 23.5158 10.9419C23.5732 11.1745 23.5629 11.4187 23.4862 11.6457C23.4095 11.8727 23.2696 12.0731 23.0829 12.2233Z" fill="white"/>
<path d="M87.0904 10.7456H85.0413C84.9896 10.7404 84.9378 10.7546 84.8962 10.7856C84.8545 10.8166 84.826 10.8621 84.8161 10.913C84.7584 11.0978 84.6892 11.2825 84.6257 11.4614L82.7035 16.9565C82.7035 17.0315 82.6458 17.1066 82.6169 17.1874H82.565C82.5346 17.1294 82.5076 17.0696 82.4842 17.0084C82.007 15.7578 81.5241 14.5052 81.0354 13.2508C80.7352 12.4715 80.4582 11.6981 80.1407 10.9419C80.0887 10.8091 80.0195 10.7399 79.8752 10.7572C79.8271 10.7601 79.7789 10.7601 79.7309 10.7572H76.7005C76.637 10.7572 76.5793 10.7572 76.5215 10.7572C76.4638 10.7572 76.3772 10.7226 76.383 10.6071C76.3763 10.3718 76.3878 10.1364 76.4177 9.90292C76.4356 9.74498 76.5 9.59592 76.6028 9.47466C76.7055 9.35339 76.842 9.26538 76.9949 9.22179C77.1595 9.18424 77.3282 9.1668 77.497 9.16984C77.8593 9.17261 78.2185 9.23703 78.5591 9.36034C78.7034 9.40651 78.7611 9.36033 78.7727 9.21025C78.7755 9.18146 78.7755 9.15247 78.7727 9.12367V7.61713C78.7727 7.39779 78.7727 7.36894 78.536 7.32276C78.2316 7.24974 77.9232 7.19385 77.6125 7.15537C77.1017 7.08405 76.5826 7.09965 76.0771 7.20154C75.7355 7.26071 75.4112 7.39497 75.1277 7.5946C74.8443 7.79423 74.6086 8.05426 74.4378 8.35597C74.1904 8.80254 74.0501 9.3005 74.028 9.81056C74.028 10.053 74.028 10.2954 74.028 10.5321C74.028 10.7687 73.9991 10.7226 73.8375 10.7283H73.1448C72.9313 10.7283 72.8966 10.7283 72.8909 10.9592C72.8909 11.4903 72.8909 12.0213 72.8909 12.5523C72.8909 12.5523 72.8909 12.5927 72.8909 12.6101C72.8909 12.7544 72.937 12.7832 73.0871 12.7832H73.7451C74.0568 12.7832 74.0568 12.7832 74.0568 13.1065V19.9407C74.0568 20.1081 74.0972 20.1369 74.2646 20.1427H76.1925C76.3715 20.1427 76.4003 20.1081 76.4061 19.9292V13.0372C76.4061 12.7948 76.4061 12.7948 76.6543 12.7948C77.168 12.7948 77.6818 12.7948 78.1955 12.7948C78.2629 12.7869 78.3309 12.8036 78.3871 12.8417C78.4433 12.8799 78.4838 12.937 78.5014 13.0026C79.271 14.8535 80.0406 16.7064 80.8103 18.5612L81.3471 19.8483C81.3724 19.8922 81.3857 19.942 81.3857 19.9926C81.3857 20.0433 81.3724 20.0931 81.3471 20.1369C81.2316 20.3159 81.122 20.4948 80.9892 20.6622C80.9181 20.7466 80.8299 20.815 80.7304 20.8628C80.6309 20.9105 80.5223 20.9366 80.412 20.9393C80.2489 20.9567 80.0844 20.9567 79.9213 20.9393C79.6471 20.8937 79.3819 20.8041 79.1363 20.6738C78.992 20.6045 78.9228 20.6218 78.8593 20.7603C78.6399 21.2394 78.4206 21.7185 78.207 22.1976C78.1435 22.3419 78.1608 22.3996 78.3109 22.4689C78.461 22.5382 78.7496 22.6767 78.9747 22.7575C79.5715 22.9624 80.2052 23.0372 80.8333 22.9769C81.1058 22.9618 81.3744 22.9053 81.6299 22.8095C82.1853 22.5802 82.6498 22.1745 82.9517 21.655C83.2289 21.2066 83.4591 20.7308 83.6386 20.2351C84.5699 17.83 85.5011 15.4249 86.4323 13.0199L87.2116 11.0054C87.3155 10.8091 87.2808 10.7456 87.0904 10.7456Z" fill="white"/>
<path d="M51.2106 13.4239C51.0126 12.8436 50.6914 12.3131 50.2689 11.8687C49.8464 11.4243 49.3328 11.0766 48.7632 10.8495C47.9878 10.526 47.1323 10.4455 46.3101 10.6187C45.5578 10.7846 44.8794 11.1896 44.3764 11.7731L44.2263 11.9232H44.1801C44.1801 11.8655 44.1801 11.8077 44.1801 11.75V10.9419C44.1801 10.7803 44.134 10.7457 43.9724 10.7341H42.0906C41.8482 10.7341 41.8193 10.763 41.8193 11.0054V22.6305C41.8165 22.6786 41.8165 22.7268 41.8193 22.7748C41.8193 22.8903 41.8655 22.9249 41.9752 22.9307H43.8107C44.1686 22.9307 44.1686 22.9307 44.1686 22.5844V19.2538C44.1686 19.1845 44.1686 19.1153 44.1686 19.046H44.2263L44.3591 19.1672C44.8147 19.65 45.3906 20.0028 46.0276 20.1895C46.6647 20.3761 47.3399 20.3899 47.984 20.2293C48.7721 20.0814 49.502 19.7127 50.0886 19.1659C50.6752 18.6192 51.0944 17.917 51.2972 17.1412C51.4863 16.4893 51.5644 15.8103 51.5281 15.1325C51.5139 14.5497 51.4067 13.9729 51.2106 13.4239ZM48.7632 17.0258C48.5334 17.4514 48.1777 17.7956 47.7448 18.0116C47.312 18.2275 46.823 18.3045 46.3447 18.2321C45.8211 18.1552 45.3341 17.918 44.9506 17.5532C44.5672 17.1884 44.3061 16.7138 44.2032 16.1946C44.1732 16.0712 44.152 15.9458 44.1397 15.8194C44.1397 15.6924 44.1397 15.5654 44.1397 15.4384C44.1069 14.7504 44.3243 14.0738 44.7516 13.5336C44.9587 13.2708 45.2181 13.0538 45.5133 12.8963C45.8086 12.7389 46.1333 12.6444 46.467 12.6189C46.8006 12.5934 47.136 12.6374 47.4517 12.7482C47.7675 12.8589 48.0568 13.034 48.3015 13.2623C48.6845 13.6279 48.9481 14.1007 49.0576 14.6188C49.266 15.4295 49.1609 16.2891 48.7632 17.0258Z" fill="white"/>
<path d="M40.486 14.7804C40.1961 14.3533 39.8107 13.9995 39.3604 13.7472C38.8267 13.4363 38.2541 13.1976 37.6576 13.0372C37.0284 12.8583 36.3993 12.7024 35.7701 12.5235C35.378 12.4197 35.0042 12.2562 34.6619 12.0386C34.5208 11.9392 34.4031 11.8102 34.3168 11.6607C34.2306 11.5111 34.178 11.3446 34.1626 11.1727C34.1472 11.0008 34.1695 10.8276 34.2278 10.6651C34.2861 10.5026 34.3791 10.3548 34.5002 10.2319C34.7332 10.0109 35.0229 9.85905 35.3372 9.79324C35.8518 9.67395 36.3869 9.67395 36.9015 9.79324C37.6688 9.97281 38.3915 10.3067 39.0256 10.7745C39.0887 10.8221 39.1542 10.8664 39.2219 10.9073C39.2379 10.919 39.2562 10.9273 39.2756 10.9316C39.295 10.9359 39.3151 10.9362 39.3346 10.9324C39.3541 10.9286 39.3726 10.9209 39.389 10.9096C39.4053 10.8983 39.4192 10.8837 39.4297 10.8669C39.4701 10.8207 39.5047 10.7687 39.5393 10.7226L40.4917 9.37765C40.613 9.20448 40.6072 9.15254 40.434 9.01978C39.9189 8.61973 39.3495 8.29514 38.7428 8.05582C37.7432 7.66309 36.6678 7.50129 35.5969 7.5825C34.9136 7.61824 34.2461 7.80136 33.6402 8.1193C33.2238 8.33179 32.8553 8.62733 32.5575 8.9877C32.2596 9.34806 32.0388 9.7656 31.9085 10.2146C31.7462 10.8055 31.7244 11.4262 31.845 12.0271C31.9413 12.6228 32.2339 13.1693 32.6762 13.5798C33.0148 13.8977 33.4053 14.1554 33.8307 14.3417C34.3619 14.5799 34.9122 14.7729 35.4757 14.9189C35.9491 15.0401 36.4281 15.1556 36.8957 15.2883C37.2754 15.3934 37.6401 15.5467 37.9809 15.7443C38.1313 15.8433 38.2582 15.9742 38.3525 16.1276C38.4468 16.2811 38.5062 16.4534 38.5266 16.6323C38.547 16.8113 38.5278 16.9925 38.4704 17.1633C38.413 17.334 38.3188 17.49 38.1944 17.6203C37.9883 17.8242 37.7342 17.973 37.4556 18.0532C37.0355 18.1714 36.5974 18.2124 36.1626 18.1744C35.4377 18.1377 34.73 17.9405 34.0904 17.5972C33.6502 17.3447 33.2364 17.0489 32.8552 16.7141C32.7109 16.5871 32.6647 16.5928 32.5435 16.7141C32.4223 16.8353 32.2606 17.0488 32.1221 17.2105L31.3948 18.0763C31.2678 18.2206 31.2736 18.2783 31.3948 18.4111C31.4348 18.4559 31.4793 18.4966 31.5276 18.5323C32.9459 19.7156 34.7429 20.3487 36.5898 20.3159C36.7398 20.3159 37.0227 20.3159 37.3055 20.2639C37.9925 20.201 38.657 19.9861 39.2507 19.6348C39.9709 19.217 40.51 18.5463 40.763 17.753C40.9266 17.231 40.9835 16.6813 40.9304 16.1368C40.902 15.6539 40.7488 15.1865 40.486 14.7804Z" fill="white"/>
<path d="M60.1286 11.3864C59.0415 10.655 57.7132 10.3736 56.4229 10.6014C55.261 10.7706 54.2002 11.3562 53.4378 12.2492C52.6754 13.1421 52.2634 14.2817 52.2785 15.4557C52.2785 15.6289 52.2785 15.7963 52.2785 15.9637C52.2824 16.0374 52.2921 16.1108 52.3073 16.183C52.4201 17.0298 52.7597 17.8303 53.2901 18.4999C53.8205 19.1695 54.522 19.6833 55.3204 19.9869C56.2158 20.3535 57.1985 20.4518 58.1488 20.2697C58.8205 20.1674 59.4631 19.9248 60.0349 19.5579C60.6067 19.1909 61.0949 18.7078 61.4678 18.1398C62.1301 17.1642 62.4039 15.9763 62.2355 14.8093C62.1609 14.118 61.9331 13.452 61.5686 12.8599C61.2042 12.2677 60.7122 11.7643 60.1286 11.3864ZM59.6784 16.7141C59.4818 17.1798 59.1489 17.5751 58.7234 17.8481C58.2979 18.1211 57.7998 18.259 57.2945 18.2437C56.7607 18.2509 56.2379 18.0921 55.7984 17.7891C55.3589 17.4861 55.0244 17.0539 54.8413 16.5524C54.6785 16.1576 54.6015 15.7325 54.6154 15.3056C54.6294 14.8787 54.7339 14.4596 54.9221 14.0762C55.1032 13.6858 55.3845 13.3503 55.7373 13.1039C56.0902 12.8576 56.502 12.7091 56.9308 12.6736C57.3339 12.6178 57.7445 12.6594 58.1281 12.795C58.5118 12.9306 58.8573 13.1561 59.1358 13.4528C59.5277 13.8527 59.7841 14.3655 59.8689 14.9189C59.9934 15.5226 59.9268 16.15 59.6784 16.7141Z" fill="white"/>
<path d="M68.2731 10.7226H66.224C66.022 10.7226 66.0105 10.7226 66.0105 10.509V8.52915C66.0105 8.47142 66.0105 8.40793 66.0105 8.35021C66.0077 8.31648 65.9926 8.28493 65.9681 8.26153C65.9437 8.23814 65.9115 8.22452 65.8777 8.22322H63.8228C63.7131 8.22322 63.6727 8.26939 63.6612 8.37906C63.6583 8.4329 63.6583 8.48685 63.6612 8.54068V10.4628C63.6612 10.7283 63.6612 10.7283 63.4014 10.7283H62.7319C62.5414 10.7283 62.501 10.7687 62.501 10.9534C62.501 11.496 62.501 12.0386 62.501 12.5812C62.501 12.7544 62.501 12.7832 62.703 12.789H63.1417C63.7189 12.789 63.6439 12.7255 63.6496 13.2854V17.4529C63.6447 17.7665 63.6718 18.0798 63.7304 18.388C63.8023 18.8338 64.0117 19.246 64.3295 19.5669C64.6472 19.8878 65.0574 20.1012 65.5025 20.1774C65.9514 20.2764 66.4131 20.3036 66.8705 20.2582C67.353 20.2127 67.8228 20.0777 68.2558 19.8599C68.3164 19.8352 68.3672 19.7913 68.4005 19.7351C68.4338 19.6788 68.4479 19.6132 68.4405 19.5482C68.4405 19.0691 68.4405 18.5842 68.4405 18.0994C68.4432 18.0686 68.4432 18.0377 68.4405 18.007C68.4405 17.8569 68.3655 17.8165 68.227 17.8627C68.1896 17.8824 68.151 17.8998 68.1115 17.9147C67.8979 17.9782 67.6901 18.059 67.4708 18.1052C67.1883 18.1744 66.8933 18.1744 66.6108 18.1052C66.4834 18.0763 66.3667 18.0124 66.2738 17.9205C66.181 17.8287 66.1157 17.7127 66.0855 17.5857C66.0455 17.4269 66.0223 17.2644 66.0162 17.1008C66.0162 16.437 66.0162 15.7732 66.0162 15.1094V13.0776C66.0162 13.0199 66.0162 12.9564 66.0162 12.8987C66.0154 12.8833 66.0178 12.8679 66.0233 12.8535C66.0288 12.8391 66.0373 12.8261 66.0482 12.8152C66.0591 12.8043 66.0721 12.7958 66.0865 12.7903C66.1009 12.7848 66.1163 12.7824 66.1317 12.7832H68.3366C68.3561 12.7832 68.3753 12.7793 68.3932 12.7717C68.4111 12.7641 68.4273 12.753 68.4408 12.7389C68.4542 12.7249 68.4647 12.7083 68.4717 12.6901C68.4786 12.672 68.4817 12.6526 68.4809 12.6331C68.4837 12.5909 68.4837 12.5484 68.4809 12.5062V10.9419C68.4636 10.7687 68.4232 10.7283 68.2731 10.7226Z" fill="white"/>
<path d="M71.6903 10.7226H69.8258C69.5199 10.7226 69.5026 10.7226 69.5026 11.04V19.7733C69.5026 19.8368 69.5026 19.8945 69.5026 19.958C69.5026 20.0215 69.543 20.1312 69.6873 20.1427H71.5575C71.8403 20.1427 71.8519 20.1427 71.8519 19.8426V11.0285C71.8549 10.9804 71.8549 10.9322 71.8519 10.8842C71.8403 10.7745 71.7999 10.7341 71.6903 10.7226Z" fill="white"/>
<path d="M70.6974 6.55506C70.4062 6.5551 70.1214 6.64122 69.8789 6.80259C69.6365 6.96396 69.4471 7.19339 69.3346 7.46205C69.2221 7.73072 69.1915 8.02665 69.2467 8.31264C69.3019 8.59863 69.4403 8.86193 69.6447 9.06948C69.849 9.27702 70.1102 9.41956 70.3953 9.47916C70.6804 9.53875 70.9767 9.51276 71.2471 9.40445C71.5175 9.29614 71.7498 9.11034 71.9149 8.87039C72.08 8.63045 72.1706 8.34706 72.1751 8.05583C72.1806 7.85921 72.1463 7.66352 72.0742 7.4805C72.0022 7.29747 71.8939 7.13088 71.7559 6.99072C71.6179 6.85057 71.453 6.73974 71.2711 6.66488C71.0893 6.59001 70.8941 6.55266 70.6974 6.55506Z" fill="white"/>
</svg>
