<?xml version="1.0" encoding="UTF-8"?>
<svg id="Capa_2" data-name="Capa 2" xmlns="http://www.w3.org/2000/svg" viewBox="0 0 550 250">
  <defs>
    <style>
      .cls-1 {
        fill: #fff;
      }
    </style>
  </defs>
  <path class="cls-1" d="M142.52,64.47c-7.9-.1-15.8,1.4-23.1,4.5-7.3,3-13.9,7.5-19.4,13.2-5.7,5.5-10.1,12.1-13.1,19.4s-4.6,15.1-4.6,23,1.6,15.8,4.7,23.1,7.6,13.9,13.3,19.5c5.5,5.6,12.1,10.1,19.4,13.1,7.3,3,15.1,4.5,23,4.4,7.9,0,15.7-1.5,23-4.5s13.9-7.4,19.5-13c5.6-5.6,10-12.2,13.1-19.5,3.1-7.3,4.6-15.1,4.6-23s-1.5-15.8-4.5-23.1-7.5-14-13.1-19.6c-5.6-5.6-12.3-10-19.6-13.1-7.4-2.9-15.3-4.5-23.2-4.4Zm27.9,86.6c-.4,.8-1.2,1.5-2.1,1.8s-1.9,.3-2.7,0c-.3-.1-.6-.3-.9-.4-6.4-3.8-13.5-6.3-20.9-7.4-2.2-.3-4.4-.5-6.6-.7-1.3,0-2.6-.1-3.9-.2-5.4,.1-10.8,.6-16.2,1.6l-4.8,1c-1,.3-2.1,.1-3-.4s-1.5-1.4-1.8-2.4c-.1-.5-.2-1-.1-1.5s.2-1,.5-1.4,.6-.8,1-1.1,.9-.5,1.3-.6c1.4-.4,2.9-.7,4.4-.9,3.1-.5,6.2-1,9.4-1.4,1.3-.2,2.6-.3,3.9-.3,2.3,0,4.6-.2,6.8-.2,7.4,.1,14.8,1.3,21.8,3.7,4.3,1.5,8.5,3.4,12.4,5.8,.9,.5,1.5,1.3,1.8,2.3,.3,.8,.1,1.8-.3,2.7Zm6.3-15.1c-.7,.6-1.6,1-2.5,1.1s-1.9,0-2.7-.5c-.8-.4-1.6-.9-2.4-1.4-5.2-2.8-10.7-5-16.4-6.4-4.3-1-8.6-1.8-13-2.2-3.8-.3-7.6-.4-11.3-.2-5.8,.2-11.5,1.2-17,2.8-.9,.3-2,.4-2.9,.1-1-.3-1.8-.8-2.4-1.6-.5-.6-.8-1.3-1-2.1-.1-.8-.1-1.5,.1-2.3,.2-.7,.6-1.4,1.1-2s1.2-1,1.9-1.2c2.3-.7,4.6-1.3,6.9-1.8,3.5-.8,7.1-1.3,10.7-1.5l6.8-.4c10.2,.1,20.3,1.8,30,5.1,4.7,1.6,9.1,3.7,13.4,6.3,1.1,.6,1.9,1.6,2.3,2.8,.3,.9,.3,1.9,.1,2.8-.5,1.2-1,2-1.7,2.6Zm8-18.7c-.8,.7-1.8,1.2-2.9,1.3-1.1,.1-2.2-.1-3.2-.6-.9-.4-1.8-.9-2.6-1.4-3.6-1.9-7.4-3.5-11.3-4.7-5.2-1.6-10.4-2.7-15.8-3.4-2.6-.3-5-.5-7.5-.7-3.2-.3-6.4-.4-9.6-.3-4,.1-8,.4-12,.9-3.9,.5-7.8,1.3-11.6,2.4-.8,.3-1.7,.3-2.5,.2s-1.7-.4-2.4-.9c-.7-.5-1.3-1.1-1.7-1.8-.4-.7-.7-1.6-.8-2.4-.1-1.3,.2-2.6,.9-3.7,.7-1.1,1.8-1.9,3-2.3,1.1-.4,2.2-.6,3.3-.9,4-1,8-1.7,12.1-2.2,2.9-.3,5.8-.5,8.7-.6,1.6,0,3.2-.1,4.7-.2,4.8,0,9.6,.3,14.4,.9,7.2,.8,14.3,2.3,21.2,4.5,4.9,1.6,9.6,3.7,14.1,6.2,.8,.4,1.5,1,2,1.7s.9,1.5,1.1,2.4c.3,1,.2,2.1-.1,3.1s-.7,1.9-1.5,2.5Z"/>
  <path class="cls-1" d="M468.72,110.77h-9.1c-.2,0-.5,0-.6,.2-.2,.1-.3,.3-.4,.6-.3,.8-.6,1.6-.8,2.4l-8.5,24.4c0,.3-.3,.7-.4,1h-.2c-.1-.3-.3-.5-.4-.8-2.1-5.5-4.3-11.1-6.4-16.7-1.3-3.5-2.6-6.9-4-10.2-.2-.6-.5-.9-1.2-.8h-14.8c-.3,0-.6-.2-.6-.7,0-1,0-2.1,.2-3.1,.1-.7,.4-1.4,.8-1.9,.5-.5,1.1-.9,1.7-1.1,.7-.2,1.5-.2,2.2-.2,1.6,0,3.2,.3,4.7,.8,.6,.2,.9,0,.9-.7v-7.1c0-1,0-1.1-1.1-1.3-1.4-.3-2.7-.6-4.1-.7-2.3-.3-4.6-.2-6.8,.2-1.5,.3-3,.9-4.2,1.7-1.3,.9-2.3,2-3.1,3.4-1.1,2-1.7,4.2-1.8,6.5v3.2c0,1-.1,.8-.8,.9h-3.1c-.9,0-1.1,0-1.1,1v7.4c0,.6,.2,.8,.9,.8h2.9q1.4,0,1.4,1.4v30.3c0,.7,.2,.9,.9,.9h8.6c.8,0,.9-.2,.9-.9v-30.6q0-1.1,1.1-1.1h6.8c.3,0,.6,0,.9,.2,.2,.2,.4,.4,.5,.7,3.4,8.2,6.8,16.4,10.2,24.7l2.4,5.7c.1,.2,.2,.4,.2,.6s-.1,.4-.2,.6c-.5,.8-1,1.6-1.6,2.3-.3,.4-.7,.7-1.1,.9s-.9,.3-1.4,.3c-.7,.1-1.5,.1-2.2,0-1.2-.2-2.4-.6-3.5-1.2-.6-.3-.9-.2-1.2,.4-1,2.1-1.9,4.3-2.9,6.4-.3,.6-.2,.9,.5,1.2s1.9,.9,2.9,1.3c2.6,.9,5.5,1.2,8.2,1,1.2-.1,2.4-.3,3.5-.7,2.5-1,4.5-2.8,5.9-5.1,1.2-2,2.3-4.1,3-6.3,4.1-10.7,8.3-21.3,12.4-32l3.5-8.9c.5-1,.4-1.3-.5-1.3Z"/>
  <path class="cls-1" d="M309.52,122.67c-.9-2.6-2.3-4.9-4.2-6.9-1.9-2-4.2-3.5-6.7-4.5-3.4-1.4-7.2-1.8-10.9-1-3.3,.7-6.3,2.5-8.6,5.1l-.7,.7h-.2v-4.4c0-.7-.2-.9-.9-.9h-8.3c-1.1,0-1.2,.1-1.2,1.2v52.2c0,.5,.2,.7,.7,.7h8.1q1.6,0,1.6-1.5v-15.7h.3l.6,.5c2,2.1,4.6,3.7,7.4,4.5s5.8,.9,8.7,.2c3.5-.7,6.7-2.3,9.3-4.7,2.6-2.4,4.5-5.5,5.4-9,.8-2.9,1.2-5.9,1-8.9,0-2.7-.5-5.2-1.4-7.6Zm-10.8,15.9c-1,1.9-2.6,3.4-4.5,4.4s-4.1,1.3-6.2,1c-2.3-.3-4.5-1.4-6.2-3s-2.9-3.7-3.3-6c-.1-.5-.2-1.1-.3-1.7v-1.7c-.1-3.1,.8-6.1,2.7-8.5,.9-1.2,2.1-2.1,3.4-2.8s2.8-1.1,4.2-1.2c1.5-.1,3,.1,4.4,.6s2.7,1.3,3.8,2.3c1.7,1.6,2.9,3.7,3.4,6,.8,3.6,.3,7.4-1.4,10.6Z"/>
  <path class="cls-1" d="M261.92,128.67c-1.3-1.9-3-3.5-5-4.6-2.4-1.4-4.9-2.4-7.6-3.2-2.8-.8-5.6-1.5-8.4-2.3-1.7-.5-3.4-1.2-4.9-2.2-.6-.4-1.1-1-1.5-1.7s-.6-1.4-.7-2.2c-.1-.8,0-1.5,.3-2.3,.3-.7,.7-1.4,1.2-1.9,1-1,2.3-1.7,3.7-1.9,2.3-.5,4.7-.5,6.9,0,3.4,.8,6.6,2.3,9.4,4.4,.3,.2,.6,.4,.9,.6,.1,.1,.2,.1,.2,.1h.3c.1,0,.2-.1,.2-.1q.1-.1,.2-.2c.2-.2,.3-.4,.5-.6l4.2-6c.5-.8,.5-1-.3-1.6-2.3-1.8-4.8-3.2-7.5-4.3-4.4-1.7-9.2-2.5-14-2.1-3,.2-6,1-8.7,2.4-1.8,.9-3.5,2.3-4.8,3.9-1.3,1.6-2.3,3.5-2.9,5.4-.7,2.6-.8,5.4-.3,8,.4,2.6,1.7,5.1,3.7,6.9,1.5,1.4,3.2,2.6,5.1,3.4,2.4,1.1,4.8,1.9,7.3,2.6,2.1,.5,4.2,1.1,6.3,1.6,1.7,.5,3.3,1.1,4.8,2,.7,.4,1.2,1,1.6,1.7,.4,.7,.7,1.4,.8,2.2s0,1.6-.2,2.4c-.3,.8-.7,1.4-1.2,2-.9,.9-2,1.6-3.3,1.9-1.9,.5-3.8,.7-5.7,.5-3.2-.2-6.4-1-9.2-2.6-2-1.1-3.8-2.4-5.5-3.9-.6-.6-.8-.5-1.4,0-.5,.5-1.3,1.5-1.9,2.2l-3.2,3.8c-.6,.6-.5,.9,0,1.5,.2,.2,.4,.4,.6,.5,6.3,5.3,14.3,8.1,22.5,7.9,.7,0,1.9,0,3.2-.2,3-.3,6-1.2,8.6-2.8,3.2-1.9,5.6-4.8,6.7-8.3,.7-2.3,1-4.8,.7-7.2,.2-1.9-.5-3.9-1.7-5.7Z"/>
  <path class="cls-1" d="M349.12,113.57c-4.8-3.2-10.7-4.5-16.4-3.5-5.2,.8-9.9,3.3-13.2,7.3-3.4,4-5.2,9-5.1,14.2v2.3c0,.3,.1,.7,.1,1,.5,3.8,2,7.3,4.4,10.3s5.5,5.3,9,6.6c4,1.6,8.3,2.1,12.5,1.3,3-.5,5.8-1.5,8.4-3.2,2.5-1.6,4.7-3.8,6.4-6.3,2.9-4.3,4.2-9.6,3.4-14.8-.3-3.1-1.3-6-3-8.6-1.7-2.7-3.9-4.9-6.5-6.6Zm-2,23.7c-.9,2.1-2.3,3.8-4.2,5s-4.1,1.8-6.3,1.8c-2.4,0-4.7-.7-6.6-2-2-1.3-3.4-3.3-4.2-5.5-.7-1.8-1.1-3.6-1-5.5s.5-3.8,1.4-5.5c.8-1.7,2.1-3.2,3.6-4.3,1.6-1.1,3.4-1.8,5.3-1.9,1.8-.2,3.6-.1,5.3,.5,1.7,.6,3.2,1.6,4.5,2.9,1.7,1.8,2.9,4,3.3,6.5,.3,2.7,0,5.4-1.1,8Z"/>
  <path class="cls-1" d="M385.22,110.67h-9.1q-.9,0-.9-.9v-9.6c0-.1-.1-.3-.2-.4-.1-.1-.3-.2-.4-.2h-9.1c-.5,0-.7,.2-.7,.7v9.2q0,1.2-1.2,1.2h-3c-.8,0-1,.2-1,1v7.2c0,.8,0,.9,.9,.9h1.9c2.6,0,2.2-.3,2.3,2.2v18.5c0,1.4,.1,2.8,.4,4.1,.3,2,1.2,3.8,2.7,5.2,1.4,1.4,3.2,2.4,5.2,2.7,2,.4,4,.6,6.1,.4,2.1-.2,4.2-.8,6.1-1.8,.3-.1,.5-.3,.6-.6,.1-.2,.2-.5,.2-.8v-6.8c0-.7-.3-.8-.9-.6-.2,.1-.3,.2-.5,.2-.9,.3-1.9,.6-2.8,.8-1.3,.3-2.6,.3-3.8,0-.6-.1-1.1-.4-1.5-.8-.4-.4-.7-.9-.8-1.5-.2-.7-.3-1.4-.3-2.2v-18.8c0-.1,.1-.1,.1-.2,0,0,.1-.1,.2-.1h10c.1,0,.2,0,.3-.1,.1,0,.2-.1,.2-.1q.1-.1,.1-.2v-7.8c-.2-.6-.4-.8-1.1-.8Z"/>
  <path class="cls-1" d="M400.42,110.67h-8.3q-1.4,0-1.4,1.4v39.5c0,.3,.2,.8,.8,.8h8.3q1.3,0,1.3-1.3v-39.7c-.1-.5-.2-.7-.7-.7Z"/>
  <path class="cls-1" d="M396.02,92.17c-1.3,0-2.6,.4-3.6,1.1-1.1,.7-1.9,1.7-2.4,2.9s-.6,2.5-.4,3.8,.9,2.4,1.8,3.4c.9,.9,2.1,1.6,3.3,1.8,1.3,.3,2.6,.1,3.8-.3,1.2-.5,2.2-1.3,3-2.4,.7-1.1,1.1-2.3,1.2-3.6,0-.9-.1-1.7-.4-2.6-.3-.8-.8-1.6-1.4-2.2-.6-.6-1.3-1.1-2.2-1.4-1-.4-1.8-.5-2.7-.5Z"/>
</svg>