<?xml version="1.0" encoding="UTF-8"?>
<svg id="Capa_11" data-name="Capa 11" xmlns="http://www.w3.org/2000/svg" viewBox="0 0 550 250">
  <defs>
    <style>
      .cls-1 {
        fill: #fff;
      }
    </style>
  </defs>
  <path class="cls-1" d="M453.71,156.98c-4.25,0-8.49-.05-12.74,.02-1.09,.02-1.68-.36-2.28-1.23-3.69-5.36-7.45-10.68-11.18-16.01-.26-.38-.55-.74-.88-1.18-1.23,1.13-2.45,2.17-3.56,3.33-.33,.34-.47,.99-.48,1.5-.04,3.87-.02,7.74-.02,11.61v1.58h-13.11v-55.39h13.06v25.69c.52-.44,.83-.68,1.11-.96,3.79-3.75,7.56-7.52,11.37-11.26,.37-.36,.93-.75,1.4-.76,5-.05,10-.03,15.4-.03-5.68,5.54-11.12,10.85-16.6,16.19,.22,.35,.38,.63,.56,.9,5.71,8.27,11.42,16.53,17.14,24.79,.23,.33,.54,.62,.81,.92v.28Z"/>
  <path class="cls-1" d="M184.56,98.92v16.92c-8.78-.09-16.69-2.65-24.18-7.8,0,.89,0,1.48,0,2.06-.02,11.7,.18,23.41-.11,35.11-.35,14.02-10.63,26.39-24.28,29.49-11.18,2.54-21.13-.08-29.6-7.87-7.16-6.59-10.39-14.93-10.07-24.53,.5-15.11,11.84-27.92,26.74-30.32,2.81-.45,5.73-.19,8.6-.24,.69-.01,1.11,.27,1.1,1.11-.03,5.33-.02,10.67-.03,16,0,.13-.07,.27-.13,.51-2.74-.63-5.47-.78-8.21,0-6.71,1.9-11.27,8.25-10.81,15.11,.47,7.03,5.88,12.67,12.91,13.63,8.72,1.19,16.54-5.84,16.52-14.61-.05-22.42-.02-44.83-.02-67.25v-1.91h17.13c1.44,14.87,9.88,22.62,24.44,24.58Z"/>
  <path class="cls-1" d="M379.75,111.38c5.11-.15,9.95,.77,14.35,3.52,8.29,5.18,12.39,14.94,10.2,24.32-2.2,9.44-10.06,16.46-19.75,17.46-5.62,.58-11.2,.61-16.48-1.99-9.57-4.72-14.71-15.35-12.31-25.64,2.4-10.28,11.56-17.59,22.14-17.67,.61,0,1.23,0,1.84,0Zm9.75,22.75c-.02-6.1-4.97-11.03-11.11-11.05-6.16-.02-11.21,5-11.18,11.13,.03,6.09,4.98,11.02,11.12,11.05,6.16,.04,11.19-4.98,11.17-11.13Z"/>
  <path class="cls-1" d="M311.19,156.97c-4.72,0-9.1,.03-13.48-.04-.47,0-1.05-.54-1.36-.98-3.76-5.31-7.48-10.66-11.21-15.99-.3-.42-.61-.84-1.01-1.39-1.28,1.18-2.55,2.29-3.74,3.49-.27,.27-.3,.86-.31,1.3-.02,3.87-.01,7.74-.01,11.61v1.62h-13.16v-55.4h13.13v25.72c.64-.59,1.04-.94,1.42-1.31,3.66-3.62,7.3-7.25,10.98-10.85,.4-.39,1-.8,1.52-.81,4.95-.06,9.91-.04,15.32-.04-5.7,5.55-11.13,10.85-16.64,16.22,6.15,8.91,12.25,17.74,18.55,26.85Z"/>
  <path class="cls-1" d="M230.66,156.63h-13.5c0-.63,0-1.22,0-1.8,0-13.49-.03-26.99,.04-40.48,0-1.5-.45-1.8-1.83-1.76-3.86,.09-7.72,.03-11.66,.03v-11.44h41.66c-.24,.81-.44,1.52-.66,2.22-.88,2.79-1.79,5.56-2.62,8.36-.27,.9-.67,1.28-1.67,1.25-2.69-.08-5.38-.03-8.07-.03-.51,0-1.02,0-1.69,0v43.67Z"/>
  <path class="cls-1" d="M327.95,112.62h-13.51v-11.44h41.62c-.14,.56-.24,1.04-.39,1.51-.92,2.92-1.92,5.82-2.76,8.76-.35,1.23-.91,1.6-2.17,1.55-2.54-.11-5.09-.03-7.64-.03-.51,0-1.02,0-1.69,0v43.62h-13.46v-43.96Z"/>
  <path class="cls-1" d="M248.05,118.96h13.05v37.62h-13.05v-37.62Z"/>
  <path class="cls-1" d="M254.58,101.11c3.67,0,6.58,2.89,6.57,6.54,0,3.62-2.95,6.55-6.59,6.55-3.63,0-6.58-2.95-6.57-6.57,0-3.65,2.91-6.52,6.59-6.52Z"/>
</svg>