<?xml version="1.0" encoding="UTF-8"?>
<svg id="Capa_18" data-name="Capa 18" xmlns="http://www.w3.org/2000/svg" viewBox="0 0 550 250">
  <defs>
    <style>
      .cls-1 {
        fill: #fff;
      }
    </style>
  </defs>
  <path class="cls-1" d="M390.31,169.23c-.31,.21-.54,.35-.75,.5-3.88,2.77-7.76,5.55-11.65,8.3-.3,.21-.72,.37-1.09,.37-5.09,.02-10.17,0-15.26,.03-.56,0-.75-.14-.75-.73,.04-2.54,.01-5.08,.01-7.62v-.86c-.31,.28-.51,.44-.69,.62-2.7,2.7-5.41,5.4-8.1,8.12-.32,.32-.63,.48-1.1,.48-9.42-.01-18.83-.01-28.25,0-.46,0-.78-.14-1.1-.46-2.71-2.73-5.43-5.44-8.15-8.16-.17-.17-.36-.34-.65-.61-.21,.99-.4,1.86-.58,2.73-.39,1.97-.78,3.94-1.16,5.92-.08,.41-.24,.59-.7,.59-8.24-.01-16.48,0-24.71-.03-.3,0-.65-.16-.88-.36-3.19-2.76-6.37-5.55-9.55-8.32-.17-.15-.35-.28-.64-.52-.07,.85-.14,1.57-.19,2.28-.14,2.16-.26,4.31-.41,6.47-.01,.16-.25,.35-.43,.44-.13,.07-.33,.02-.5,.02-9.1,0-18.2,0-27.3,0-1,0-.96,0-1.07-1-.28-2.68-.59-5.36-.89-8.04-.09-.07-.18-.14-.28-.21-.12,.22-.19,.47-.35,.65-2.32,2.71-4.65,5.42-6.97,8.13-.28,.33-.58,.47-1.02,.47-14.52,0-29.04,0-43.57-.02-.37,0-.75-.09-1.09-.22-2.65-1.04-5.3-2.11-7.95-3.17-.21-.08-.43-.15-.75-.26,0,1.07-.03,2.04,.01,3.02,.02,.51-.16,.64-.64,.64-7.61-.01-15.22,0-22.82-.02-.3,0-.63-.1-.88-.25-8.97-5.37-17.93-10.74-26.9-16.13-.25-.15-.47-.35-.68-.55-5.26-5.25-10.52-10.51-15.79-15.76-.33-.32-.45-.65-.45-1.1,.01-24.09,0-48.17,0-72.26,0-.23,0-.45,0-.76,.28,0,.51,0,.73,0,11.2,0,22.4,0,33.6-.01,.47,0,.77,.15,1.09,.47,5.21,5.22,10.43,10.43,15.63,15.65,.37,.37,.74,.52,1.26,.52,24.69-.01,49.39-.01,74.08-.01,.89,0,.9,0,.9-.89,0-4.98,0-9.95-.01-14.93,0-.6,.12-.82,.79-.82,20.34,.02,40.69,.02,61.03,.02h.7c.02,.3,.04,.56,.04,.83,0,4.98,0,9.95,0,14.93q0,.87,.86,.87c4.98,0,9.96,0,14.94,0,.25,0,.5,0,.81,0v9.23c.31-.27,.49-.41,.66-.58,2.74-2.73,5.48-5.46,8.2-8.2,.32-.32,.63-.46,1.09-.46,5.63,.02,11.26,0,16.9,.03,.68,0,1.13-.22,1.58-.67,5.17-5.19,10.36-10.37,15.54-15.56,.29-.29,.58-.41,.99-.41,11.22,0,22.44,0,33.67,0,.21,0,.41,0,.71,0v.79c0,5.04,.01,10.08-.01,15.12,0,.59,.18,.73,.75,.73,6.3-.02,12.61,0,18.91-.02,.48,0,.82,.13,1.16,.47,5.18,5.19,10.36,10.38,15.55,15.55,.36,.35,.5,.71,.5,1.21-.01,17.96-.01,35.91,0,53.87,0,.55-.18,.86-.63,1.16-8.8,5.85-17.58,11.71-26.38,17.55-.34,.23-.81,.37-1.22,.38-5.65,.02-11.31,0-16.96,.03-.61,0-.83-.12-.82-.79,.05-2.54,.02-5.08,.02-7.62,0-.22-.02-.44-.03-.78Zm-197.41-35.07c-.33,0-.56,0-.79,0-1.85,0-3.7,0-5.55,0q-.91,0-.91-.92c0-12.33,0-24.65,.01-36.98,0-.63-.16-.82-.81-.82-6.28,.02-12.57,.02-18.85,0-.62,0-.83,.14-.83,.8,.02,19.19,.02,38.39,0,57.58,0,.66,.21,.8,.83,.8,20.45-.01,40.9-.01,61.34,0,.46,0,.78-.14,1.1-.46,4.02-4.03,8.05-8.05,12.06-12.1,.25-.25,.44-.68,.44-1.03,.02-14.93,.02-29.86,.03-44.79,0-.64-.2-.8-.83-.8-6.22,.02-12.44,.01-18.66,.01q-.96,0-.96,.94c0,12.28,0,24.57,0,36.85v.85h-7.25v-.86c0-12.28,0-24.57,0-36.85q0-.93-.9-.93c-6.2,0-12.4,0-18.6,0q-.89,0-.89,.87c0,12.31,0,24.61,0,36.92v.91Zm199.32-38.7v-.93c0-4.91,0-9.83,0-14.74q0-.94-.91-.94c-6.22,0-12.44,0-18.66,0-.88,0-.88,0-.88,.86,0,24.68,0,49.35,0,74.03,0,.88,0,.88,.86,.88,6.22,0,12.44,0,18.66,0q.93,0,.93-.92c0-12.33,0-24.65,0-36.98,0-.83,0-.83,.83-.83,4.94,0,9.88,0,14.82,0,.81,0,.81,0,.81,.84,0,12.35,0,24.7,0,37.04q0,.85,.87,.85c6.22,0,12.44,0,18.66,0q.87,0,.87-.85c0-14.89,0-29.78,.01-44.67,0-.5-.14-.86-.5-1.21-3.99-3.97-7.97-7.95-11.95-11.94-.36-.36-.71-.49-1.22-.49-7.44,.01-14.88,0-22.32,0-.27,0-.54,0-.89,0Zm-250.84,0c0-.37,0-.64,0-.91,0-4.98,0-9.95,.01-14.93,0-.61-.18-.79-.79-.78-6.3,.02-12.61,.02-18.91,0-.61,0-.78,.19-.78,.79,.01,20.45,.01,40.91,0,61.36,0,.46,.14,.78,.47,1.1,4.03,4.02,8.06,8.04,12.08,12.08,.32,.32,.65,.46,1.11,.46,7.52-.01,15.05,0,22.57,0,.8,0,.8,0,.8-.84,0-6.24,0-12.47,0-18.71q0-.9-.88-.9c-4.96,0-9.92-.01-14.88,.01-.63,0-.82-.15-.81-.8,.03-5.54,.01-11.09,.02-16.63,0-.87,0-.87,.86-.87,4.9,0,9.79,0,14.69,0,.31,0,.62-.03,1-.04,0-.25,0-.46,0-.66,0-6.32,0-12.64,.01-18.96,0-.62-.18-.76-.78-.76-4.98,.02-9.96,.01-14.94,.01-.25,0-.5,0-.85,0Zm154.89,38.7c0-.35,0-.57,0-.8,0-5.54,0-11.09,0-16.63,0-.85,0-.85,.87-.85,4.98,0,9.96,0,14.94,0,.59,0,.84-.11,.83-.79-.03-6.28-.03-12.56,0-18.84,0-.63-.16-.81-.81-.81-5.02,.03-10.05,.02-15.07,.01-.24,0-.48-.02-.77-.03,0-.32,0-.57,0-.82,0-5-.01-10,.01-14.99,0-.61-.17-.78-.77-.78-6.28,.02-12.57,.02-18.85,0-.67,0-.79,.22-.79,.83,.01,20.45,.01,40.91,0,61.36,0,.43,.11,.74,.42,1.05,4.05,4.03,8.08,8.08,12.14,12.1,.25,.24,.69,.42,1.04,.42,7.54,.02,15.09,0,22.64,.03,.65,0,.81-.19,.81-.82-.02-6.26-.01-12.52-.01-18.77,0-.87,0-.87-.86-.87-4.96,0-9.92,0-14.88,0h-.9Zm44.26,0v-.88c0-5.5,0-11,0-16.5q0-.9,.88-.9c7.44,0,14.88,0,22.32,.01,.62,0,.83-.15,.83-.8-.02-6.28-.01-12.56-.02-18.83,0-.24-.04-.49-.06-.79h-.68c-10.04,0-20.09,0-30.13,.02-.33,0-.74,.18-.97,.41-4.06,4.02-8.1,8.06-12.12,12.12-.23,.23-.41,.64-.41,.97-.02,10.69-.02,21.38-.03,32.06,0,.43,.13,.74,.43,1.05,4.02,4,8.03,8.01,12.03,12.03,.35,.36,.71,.51,1.21,.5,9.96-.01,19.92,0,29.88,0,.84,0,.85,0,.85-.88,0-6.24,0-12.47,0-18.71,0-.86,0-.86-.88-.86-7.42,0-14.84,0-22.25,0-.27,0-.53,0-.88,0Zm-71.9-9.09c0-9.62,0-19.23,.01-28.85,0-.61-.17-.78-.78-.77-6.3,.02-12.61,.02-18.91,0-.62,0-.78,.19-.78,.79,.01,19.19,.01,38.38,0,57.58,0,.63,.18,.82,.82,.82,6.26-.02,12.52-.01,18.79-.01q.85,0,.85-.88c0-9.55,0-19.11,0-28.66Zm-10.24-36.85c3.19,0,6.39-.01,9.58,.01,.53,0,.68-.17,.68-.68-.02-2.69-.02-5.37,0-8.06,0-.5-.16-.65-.65-.65-6.39,.01-12.77,.01-19.16,0-.51,0-.65,.19-.65,.66,.01,2.69,.02,5.37,0,8.06,0,.53,.18,.68,.69,.67,3.17-.02,6.34-.01,9.51-.01Z"/>
</svg>