<?xml version="1.0" encoding="UTF-8"?>
<svg id="Capa_13" data-name="Capa 13" xmlns="http://www.w3.org/2000/svg" viewBox="0 0 550 250">
  <defs>
    <style>
      .cls-1 {
        fill: #fff;
      }
    </style>
  </defs>
  <path class="cls-1" d="M265.69,95.11c9.4-4.82,18.73-9.6,28.29-14.5-.21,.61-.31,.98-.46,1.33-1.36,3.3-2.76,6.58-4.09,9.88-.79,1.95-2.1,3.37-3.97,4.32-3.68,1.86-7.35,3.76-11.02,5.65-.39,.2-.79,.41-1.12,.69-.82,.72-.87,1.53-.16,2.66,4.42-2.26,8.85-4.52,13.51-6.89-.2,.57-.3,.91-.43,1.23-3.06,7.36-6.16,14.71-9.15,22.1-.58,1.44-1.39,1.67-2.42,.33-10.89-14.19-21.82-28.34-32.74-42.51-1-1.29-.95-1.47,.5-2.2,21.34-10.74,42.68-21.49,64.02-32.23,.39-.2,.78-.43,1.2-.54,.77-.2,1.24,.32,1.02,1.1-.04,.15-.12,.3-.18,.45-1.46,3.52-2.92,7.03-4.38,10.55-.76,1.83-2.07,3.1-3.82,3.99-5.61,2.86-11.2,5.75-16.8,8.62-8.06,4.14-16.12,8.27-24.18,12.4-.36,.18-.72,.35-1.06,.57-1.11,.71-1.31,1.65-.54,3.02,14.49-7.44,28.99-14.87,43.65-22.4-.09,.39-.11,.64-.2,.87-1.5,3.63-3.01,7.25-4.51,10.88-.77,1.87-2.13,3.15-3.91,4.06-8.56,4.38-17.12,8.79-25.67,13.19-.32,.16-.65,.32-.94,.52-.96,.7-1.12,1.58-.42,2.87Z"/>
  <path class="cls-1" d="M297.69,137.4c2.29,.05,4.56,.23,6.78,.85,5.75,1.6,9.57,5.21,11.26,10.95,1.28,4.36,1.36,8.78,.24,13.19-1.51,5.92-5.25,9.83-11.05,11.66-5.09,1.61-10.27,1.69-15.42,.28-5.77-1.58-9.49-5.31-11.12-11.07-1.14-4.05-1.31-8.17-.32-12.25,1.62-6.75,5.99-10.87,12.61-12.72,2.29-.64,4.65-.83,7.02-.87Zm-11.35,18.38c0,2.63,.3,4.8,1.19,6.85,1.33,3.06,3.62,4.96,6.93,5.48,1.22,.19,2.48,.25,3.71,.18,4.73-.3,7.88-2.83,9.05-7.26,.82-3.08,.84-6.2,.03-9.28-1.02-3.85-3.4-6.38-7.39-7.2-1.91-.39-3.82-.35-5.73,.06-3.62,.78-5.95,2.97-7.07,6.47-.53,1.65-.75,3.36-.72,4.69Z"/>
  <path class="cls-1" d="M348.25,160.02c2.66,4.83,5.28,9.59,7.97,14.49h-9.36c-.18-.3-.41-.67-.62-1.05-1.96-3.54-3.93-7.08-5.85-10.64-.38-.71-.78-.95-1.59-.88-1.27,.1-2.56,.03-3.98,.03-.13,4.21,0,8.32-.08,12.59-2.88,.06-5.7,.02-8.49,.03-.32-.93-.41-34.96-.11-36.52,.33-.02,.68-.07,1.02-.07,4.53,0,9.06,0,13.59,0,2.26,0,4.48,.34,6.59,1.18,4.15,1.65,6.46,4.7,6.92,9.15,.5,4.85-1.24,8.62-5.37,11.25-.17,.11-.33,.22-.64,.43Zm-13.42-4.1c1.86-.09,3.58-.13,5.29-.28,.74-.07,1.5-.31,2.19-.6,1.58-.67,2.62-1.85,2.88-3.58,.12-.86,.17-1.76,.05-2.62-.3-2.22-1.28-3.39-3.5-3.66-2.21-.27-4.47-.15-6.7-.2-.06,0-.12,.09-.21,.17v10.78Z"/>
  <path class="cls-1" d="M227.87,174.54h-9.07c-1.14-3.51-2.28-7-3.44-10.56h-12.5c-1.3,3.48-2.62,6.99-3.95,10.55h-8.74c4.67-12.23,9.36-24.34,14.02-36.48h11.38c4.07,12.1,8.16,24.23,12.29,36.5Zm-18.17-30.68c-.11,0-.22,0-.32,0-1.37,4.5-2.74,9-4.14,13.6h8.02c-1.2-4.6-2.38-9.11-3.55-13.61Z"/>
  <path class="cls-1" d="M404.05,174.54h-9.07c-1.14-3.51-2.28-7.01-3.44-10.56h-12.5c-1.3,3.49-2.62,7-3.95,10.55h-8.75c4.7-12.22,9.37-24.35,14.04-36.49h11.38c4.08,12.1,8.16,24.23,12.29,36.5Zm-18.2-30.71c-.09,0-.18,0-.28,0-1.38,4.52-2.75,9.03-4.14,13.57,1.66,.24,7.05,.18,7.96-.09-1.17-4.5-2.3-9.01-3.54-13.49Z"/>
  <path class="cls-1" d="M169.73,174.54h-11.34c-4.13-12.13-8.27-24.24-12.44-36.47h9.22c2.98,9.87,5.97,19.75,8.95,29.64l.25,.04c1.83-4.94,3.57-9.91,5.35-14.86,1.77-4.93,3.55-9.87,5.33-14.83h8.7c-.08,.99-12.25,32.62-14.04,36.49Z"/>
  <path class="cls-1" d="M249.48,167.73h15.86v6.63c-.83,.28-21.96,.41-24.45,.15-.26-.82-.35-34.55-.09-36.43h8.67v29.65Z"/>
  <path class="cls-1" d="M212.1,192.23v13.28h-2.28c-.23-.84-.31-14.63-.09-16.59,.96-.26,1.96-.14,2.93-.07,.28,.02,.59,.48,.77,.8,1.26,2.18,2.5,4.38,3.75,6.58,.97,1.71,1.93,3.42,2.9,5.12,.19,.34,.4,.66,.81,.95v-13.43h2.52v16.71c-1.05,0-2.05,.04-3.03-.03-.28-.02-.63-.32-.79-.59-.71-1.16-1.35-2.36-2.02-3.55-1.55-2.76-3.11-5.51-4.66-8.27-.19-.34-.41-.66-.61-.99-.07,.02-.13,.05-.2,.07Z"/>
  <path class="cls-1" d="M244.84,188.83h3.42c1.96,5.54,3.91,11.07,5.9,16.67-.33,.04-.52,.08-.71,.08-.6,0-1.2,0-1.87,0-.69-1.95-1.37-3.86-2.06-5.81h-6.47c-.75,1.9-1.49,3.79-2.26,5.74h-2.5c2.2-5.59,4.36-11.1,6.55-16.68Zm1.77,1.97c-.09,0-.19-.01-.28-.02-.81,2.27-1.73,4.51-2.42,6.88h4.91c-.76-2.37-1.49-4.62-2.21-6.86Z"/>
  <path class="cls-1" d="M181.47,205.54h-2.46c2.21-5.62,4.38-11.15,6.56-16.7h3.42c1.95,5.52,3.91,11.05,5.91,16.68h-2.61c-.66-1.85-1.34-3.76-2.06-5.81-.59,0-1.18,0-1.77,0-1.28,0-2.57,.03-3.85,0-.62-.02-.93,.23-1.14,.8-.47,1.32-1.01,2.62-1.52,3.92-.14,.37-.31,.73-.47,1.12Zm8.08-7.85c-.76-2.36-1.48-4.61-2.2-6.85-.1,0-.2,0-.3,0-.82,2.25-1.64,4.5-2.49,6.86h5Z"/>
  <path class="cls-1" d="M324.18,188.92c0,.41,0,.77,0,1.12,0,.19-.04,.38-.08,.73h-5.5v14.72h-2.51c-.09-4.83,.02-9.69-.07-14.71h-5.5v-1.8c.83-.24,11.79-.32,13.66-.07Z"/>
  <path class="cls-1" d="M268.96,188.83h2.4v14.64h7.25v2.05h-9.66v-16.68Z"/>
  <path class="cls-1" d="M371.05,205.44c-.25,.09-.29,.12-.33,.12q-2.7,.17-4.36-1.98c-1.53-1.96-3.05-3.92-4.58-5.88-.27-.34-.52-.7-.81-1.1,.24-.33,.44-.62,.67-.89,1.74-2.05,3.5-4.08,5.2-6.15,.49-.59,1-.85,1.75-.78,.59,.05,1.18,.01,2.04,.01-1.15,1.5-2.32,2.69-3.4,3.93-1.1,1.27-2.23,2.52-3.4,3.84,2.41,2.96,4.78,5.87,7.22,8.87Z"/>
  <path class="cls-1" d="M360.59,205.54h-2.36v-16.65h2.36v16.65Z"/>
  <path class="cls-1" d="M293.47,188.86h2.17c.28,.91,.35,15.13,.08,16.64h-2.25v-16.64Z"/>
  <path class="cls-1" d="M338.74,188.83h2.28c.26,.86,.33,15.18,.07,16.69h-2.23c-.24-1.08-.09-2.19-.11-3.29-.03-1.12,0-2.24,0-3.36,0-1.08,0-2.16,0-3.24,0-1.12,0-2.24,0-3.36s0-2.22,0-3.43Z"/>
</svg>