<?xml version="1.0" encoding="UTF-8"?>
<svg id="Capa_27" data-name="Capa 27" xmlns="http://www.w3.org/2000/svg" viewBox="0 0 550 250">
  <defs>
    <style>
      .cls-1 {
        fill: #fff;
      }
    </style>
  </defs>
  <path class="cls-1" d="M117.73,124.89c.76-.32,1.51-.89,2.28-.93,2.71-.12,5.42-.01,8.13-.06,1.58-.03,2.43,.66,2.85,2.18,2.41,8.8,4.87,17.59,7.31,26.38,.11,.39,.23,.78,.44,1.47,.22-.7,.38-1.13,.5-1.57,2.44-8.74,4.9-17.47,7.27-26.23,.44-1.62,1.26-2.28,2.91-2.24,2.92,.07,5.83,.06,8.75,0,1.66-.03,2.48,.7,2.9,2.29,2.29,8.67,4.64,17.33,6.98,25.99,.13,.49,.27,.98,.5,1.8,.32-1,.55-1.7,.76-2.4,2.37-8.23,4.74-16.46,7.12-24.68,.67-2.3,1.21-2.72,3.56-2.73,2.05,0,4.09-.01,6.14,0,2.58,.02,3.12,.75,2.33,3.19-2.62,8.04-5.26,16.09-7.89,24.13-1.52,4.65-3.04,9.3-4.57,13.95-.84,2.54-1.39,2.93-4.1,2.93-2.51,0-5.01,0-7.52,0-2.99,0-3.52-.41-4.28-3.24-2.13-7.98-4.27-15.95-6.41-23.93-.09-.33-.22-.64-.46-1.3-1.45,5.43-2.82,10.52-4.18,15.62-.93,3.5-1.86,7-2.8,10.49-.52,1.94-1.08,2.36-3.16,2.36-2.92,0-5.83,0-8.75,0-2.34,0-2.96-.43-3.68-2.63-4.1-12.6-8.2-25.2-12.31-37.8-.17-.52-.42-1.01-.63-1.52,0-.51,0-1.02,0-1.53Z"/>
  <path class="cls-1" d="M413.45,154.49c.91,2.8,.91,5.51-.07,8.19-1.61,4.42-5.65,7.08-10.65,7.02-4.82-.05-8.96-2.91-10.42-7.37-.39-1.18-.88-1.6-2.12-1.53-2.09,.11-4.2,.09-6.29,0-1.03-.04-1.48,.27-1.83,1.29-1.73,5.07-6.29,7.93-11.83,7.55-4.85-.33-8.99-4-10.05-8.91-.1-.45-.24-.94-.15-1.36,.54-2.34-.79-3.31-2.64-4.37-6.06-3.48-10.92-8.25-14.15-14.5-.64-1.24-1.08-2.66-1.25-4.04-.23-1.81,.48-2.5,2.32-2.67,1.9-.18,3.58-.8,4.92-2.2,1.4-1.47,1.7-3.27,1.78-5.22,.18-4.48,.05-9.02,.78-13.42,2.76-16.52,16.79-29.87,33.5-32.25,21.9-3.12,41.63,10.61,46.15,32.1,3.21,15.29-3.37,31.48-16.5,40.61-.46,.32-.92,.64-1.51,1.06Zm-51.77-2.11c.18-.12,.29-.16,.34-.24,6.24-8.5,18.3-4.96,20.26,3.27,.08,.32,.6,.76,.9,.76,5.71-.06,11.44,.39,17.11-.96,18.45-4.39,30.39-22.78,26.77-41.35-3.61-18.53-20.99-31.16-39.77-28.89-16.11,1.95-28.74,13.92-31.24,29.98-.63,4.05-.44,8.24-.57,12.36-.14,4.73-2.9,8.67-7.31,10.34-.32,.12-.62,.26-1.02,.43,3.23,6.54,8.45,10.86,14.52,14.28Z"/>
  <path class="cls-1" d="M226.42,163.25c-6.58,8.4-19.72,8.05-27.61,1.45-7.3-6.11-9.69-14.12-8.15-23.24,1.45-8.62,6.45-14.6,14.77-17.63,3.38-1.23,6.9-1.5,10.43-.94,4.43,.7,6.6,1.99,10.56,6.03,0-1.18-.03-2.11,0-3.03,.05-1.58,.7-2.22,2.26-2.23,2.3-.02,4.6-.01,6.91,0,1.84,0,2.5,.64,2.51,2.47,.02,4.08,0,8.17,0,12.25,0,8.98,0,17.96,0,26.95,0,2.36-.42,2.78-2.74,2.78-2.2,0-4.4,.01-6.6,0-1.84-.01-2.33-.51-2.35-2.38,0-.7,0-1.41,0-2.46Zm-23.95-17.47c.02,7.24,5.13,12.66,11.94,12.68,6.72,.01,12.03-5.52,12-12.5-.03-6.93-5.27-12.38-11.94-12.42-6.77-.04-12.02,5.32-12,12.24Z"/>
  <path class="cls-1" d="M298.7,148.8c-.16,4.49,3.79,9.1,8.64,10.08,4.96,1,9.33-.13,12.92-3.83,1.41-1.45,2.07-1.5,3.71-.38,1.47,1.01,2.95,2.03,4.41,3.06,1.62,1.14,1.79,2.13,.58,3.7-2.2,2.85-4.97,5.02-8.35,6.29-6.28,2.38-12.72,2.74-19.08,.51-8.71-3.06-13.58-9.42-15.04-18.45-1.91-11.78,5.14-23.11,16.63-26.23,7.58-2.06,14.88-1.09,21.26,3.78,6.54,4.99,8.56,11.93,7.95,19.83-.1,1.29-1.01,1.64-2.17,1.63-3.07-.01-6.14,0-9.21,0-6.86,0-13.72,0-20.58,0-.56,0-1.11,0-1.66,0Zm22.31-7.41c-.61-5.49-5.63-9.64-11.18-9.36-5.38,.27-10.3,4.7-10.37,9.36h21.55Z"/>
  <path class="cls-1" d="M267.55,134.07c-2.15,0-4.02,0-5.9,0-4.3,0-8.6,0-12.9,0-2.31,0-2.98-.69-2.98-3.02,0-1.53,0-3.06,0-4.59,0-2,.73-2.76,2.76-2.79,2.46-.04,4.91,0,7.37,0,8.19,0,16.38,0,24.56,0,2.5,0,2.97,.73,3.27,3.13,.54,4.26-1.03,7.36-3.95,10.43-6.06,6.36-11.74,13.08-17.58,19.65-.3,.34-.58,.7-1.11,1.36,.81,0,1.33,0,1.84,0,6.29,0,12.59,0,18.88,0,2.04,0,2.64,.59,2.66,2.63,.02,1.79,.03,3.57,0,5.36-.03,1.51-.64,2.14-2.17,2.14-11.67,.02-23.34,.02-35,0-1.76,0-2.51-.81-2.58-2.52q-.23-6.01,3.78-10.45c6.09-6.76,12.15-13.54,18.23-20.31,.22-.25,.42-.52,.81-1.01Z"/>
  <path class="cls-1" d="M396.27,138.25c-7.02-.17-12.52-3.27-16.08-9.63-.89-1.58-.66-2.78,.55-3.46,1.27-.72,2.72-.21,3.56,1.35,2.11,3.9,5.34,6.25,9.7,6.99,5.63,.95,11.06-1.63,13.95-6.54,1.19-2.02,2.27-2.56,3.57-1.79,1.31,.77,1.42,2.08,.25,4.02-3.46,5.74-8.59,8.69-15.5,9.06Z"/>
  <path class="cls-1" d="M414.15,111.55c-.03,2.46-2.06,4.45-4.52,4.43-2.52-.02-4.51-2.11-4.45-4.65,.06-2.46,2.11-4.39,4.6-4.33,2.49,.06,4.4,2.05,4.37,4.55Z"/>
  <path class="cls-1" d="M378.12,111.52c-.03-2.5,1.9-4.48,4.39-4.53,2.48-.04,4.52,1.89,4.58,4.35,.06,2.51-1.97,4.62-4.48,4.63-2.45,0-4.46-1.98-4.49-4.45Z"/>
</svg>