<?xml version="1.0" encoding="UTF-8"?>
<svg id="Capa_26" data-name="Capa 26" xmlns="http://www.w3.org/2000/svg" viewBox="0 0 550 250">
  <defs>
    <style>
      .cls-1 {
        fill: #fff;
      }
    </style>
  </defs>
  <path class="cls-1" d="M195.6,169.36c-6.05,0-12.05,.03-18.05,0-4.29-.03-8.57-.21-12.86-.18-1.42,0-1.94-.43-2.28-1.82-5.39-21.91-10.84-43.81-16.29-65.71-2.34-9.43-4.7-18.86-7.05-28.29-.2-.8-.36-1.6-.58-2.58,3.36,0,6.55,0,9.74,0,7.04,0,14.08,.04,21.12-.02,1.34-.01,2,.26,2.36,1.73,4.86,19.84,9.8,39.67,14.73,59.5,3.02,12.14,6.06,24.28,9.08,36.42,.04,.18,.03,.37,.08,.97Z"/>
  <path class="cls-1" d="M197.33,168.23c-1.67-6.58-3.2-12.65-4.74-18.71-3.3-12.95-6.59-25.9-9.93-38.83-.34-1.3-.29-2.48,.08-3.72,5.16-17.38,10.32-34.76,15.46-52.15,.25-.86,.46-1.45,1.6-1.45,9.79,.05,19.59,.03,29.38,.04,.18,0,.35,.08,.66,.15-10.79,38.07-21.58,76.11-32.51,114.68Z"/>
  <path class="cls-1" d="M351.31,194.78c-1.98-7.7-3.91-15.12-5.81-22.55-6.5-25.45-12.99-50.91-19.49-76.36-.73-2.87-.75-2.87,2.3-2.87,8.64,0,17.27,.03,25.91-.03,1.35,0,1.96,.33,2.33,1.71,4.38,16.6,8.82,33.19,13.27,49.77,.19,.71,.23,1.33-.04,2.04-6.02,15.83-12.01,31.67-18.02,47.51-.07,.17-.19,.32-.45,.77Z"/>
  <path class="cls-1" d="M231.67,55.63c6.57,24.86,13.14,49.72,19.71,74.58,2.19,8.27,4.35,16.54,6.65,24.77,.47,1.69,0,1.85-1.49,1.88-9.91,.23-19.82,.2-29.74,0-1.2-.03-1.74-.29-2.07-1.58-3.33-13.06-6.75-26.1-10.16-39.15-.23-.9-.19-1.75,.07-2.64,5-17.36,9.99-34.73,14.98-52.1,.56-1.94,1.11-3.88,1.67-5.82,.12,.02,.25,.03,.37,.05Z"/>
  <path class="cls-1" d="M396.53,119.96c4.48,0,8.96,.06,13.44-.03,1.62-.03,1.8,.39,1.25,1.83-5.79,15.37-11.52,30.76-17.27,46.14-3.36,8.98-6.74,17.95-10.04,26.95-.45,1.23-1.04,1.59-2.33,1.62-9.09,.22-18.17,.23-27.26,0-1.59-.04-1.79-.35-1.24-1.83,9.13-24.27,18.23-48.55,27.26-72.86,.55-1.49,1.24-1.9,2.75-1.86,4.48,.1,8.96,.04,13.44,.04Z"/>
  <path class="cls-1" d="M266.46,157.2c1.43-3.95,2.77-7.72,4.15-11.49,6.21-17.03,12.45-34.06,18.62-51.11,.44-1.2,.95-1.66,2.28-1.65,7.67,.08,15.35,.07,23.02,.01,1.39,0,1.92,.09,1.32,1.71-7.38,20.09-14.71,40.19-21.98,60.31-.61,1.7-1.41,2.28-3.24,2.26-7.98-.11-15.97-.05-24.17-.05Z"/>
  <path class="cls-1" d="M303.2,157.19c6.98-21.21,13.9-42.25,20.84-63.31,.57,.17,.55,.64,.65,1.02,4.1,16.63,8.19,33.26,12.29,49.89,.22,.89,.17,1.74-.19,2.61-1.15,2.84-2.26,5.7-3.38,8.55-.26,.65-.44,1.27-1.4,1.27-9.53-.03-19.05-.02-28.8-.02Z"/>
  <path class="cls-1" d="M259.57,153.69c-3.69-13.54-7.29-26.74-10.89-39.93-.79-2.9-1.47-5.84-2.4-8.69-.63-1.93-.62-3.69,.17-5.56,.88-2.05,.81-4.89,2.42-6.13,1.61-1.24,4.31-.37,6.52-.38,7.81-.04,15.62,0,23.43-.02,1.19,0,1.59,.17,1.14,1.48-6.68,19.4-13.31,38.81-19.96,58.23-.08,.24-.19,.46-.43,1.01Z"/>
  <path class="cls-1" d="M290.96,90.28c1.49-4.03,2.89-7.85,4.31-11.68,.28-.75,.93-.75,1.59-.75,7.93,0,15.86,.02,23.8-.01,1.19,0,1.43,.3,.99,1.42-1.29,3.27-2.51,6.57-3.73,9.86-.23,.63-.39,1.17-1.25,1.17-8.49-.02-16.99-.01-25.72-.01Z"/>
</svg>