<?xml version="1.0" encoding="UTF-8"?>
<svg id="Capa_25" data-name="Capa 25" xmlns="http://www.w3.org/2000/svg" viewBox="0 0 550 250">
  <defs>
    <style>
      .cls-1 {
        fill: #fff;
      }
    </style>
  </defs>
  <path class="cls-1" d="M332.27,66.8c-15.54,16.69-30.72,33.01-46.01,49.43,16.7,22.24,33.34,44.41,50.15,66.8-.73,.07-1.18,.15-1.63,.15-10.99,0-21.97-.03-32.96,.05-1.46,.01-2.04-.78-2.73-1.7-10.68-14.33-21.36-28.65-32.04-42.97-.18-.24-.37-.48-.69-.89-1.47,1.54-2.9,3.01-4.29,4.51-12.39,13.31-24.76,26.64-37.18,39.92-.54,.58-1.52,1.01-2.31,1.05-2.8,.13-5.61,.05-8.99,.05,16.23-17.4,32.16-34.48,48.21-51.69-16.01-21.49-31.97-42.92-48.2-64.7,1.03,0,1.61,0,2.19,0,10.44,0,20.87,.04,31.31-.04,1.53-.01,2.43,.5,3.31,1.67,9.99,13.38,20.03,26.73,30.06,40.09,.36,.48,.75,.95,1.25,1.59,2.1-2.23,4.15-4.37,6.16-6.53,11.11-11.92,22.2-23.85,33.35-35.73,.54-.58,1.53-.97,2.34-1.01,2.71-.12,5.43-.05,8.68-.05Zm-102.96,7.77c.59,.84,.95,1.39,1.34,1.91,9.57,12.72,19.13,25.43,28.7,38.15,14.82,19.68,29.63,39.37,44.5,59.01,.49,.64,1.56,1.16,2.38,1.18,3.96,.12,7.93,.05,11.9,.05,.87,0,1.74,0,2.96,0-.7-.96-1.11-1.55-1.54-2.12-14.95-19.96-29.9-39.91-44.85-59.87-9.25-12.35-18.48-24.71-27.76-37.03-.45-.59-1.32-1.2-2.01-1.21-5.06-.1-10.12-.06-15.62-.06Z"/>
</svg>